<svg width="35" height="35" viewBox="0 0 35 35" fill="none" xmlns="http://www.w3.org/2000/svg">
<circle cx="17.5" cy="17.5" r="17.5" fill="white"/>
<mask id="mask0" mask-type="alpha" maskUnits="userSpaceOnUse" x="0" y="0" width="35" height="35">
<circle cx="17.5" cy="17.5" r="17.5" fill="white"/>
</mask>
<g mask="url(#mask0)">
<path d="M17.1823 23.0817C12.6519 23.0817 9.00238 20.5019 9.00238 17.3557V12.0702C9.00238 10.3084 11.0788 8.86115 13.6587 8.86115H20.7689C23.3488 8.86115 25.4252 10.3084 25.4252 12.0702V17.3557C25.3623 20.5019 21.7128 23.0817 17.1823 23.0817Z" fill="#414042"/>
<path d="M14.5397 25.5986C15.339 25.5986 15.9869 24.9506 15.9869 24.1513C15.9869 23.352 15.339 22.7041 14.5397 22.7041C13.7404 22.7041 13.0925 23.352 13.0925 24.1513C13.0925 24.9506 13.7404 25.5986 14.5397 25.5986Z" fill="#414042"/>
<path d="M12.8407 24.1513C13.64 24.1513 14.2879 23.5034 14.2879 22.7041C14.2879 21.9048 13.64 21.2569 12.8407 21.2569C12.0414 21.2569 11.3935 21.9048 11.3935 22.7041C11.3935 23.5034 12.0414 24.1513 12.8407 24.1513Z" fill="#414042"/>
<path d="M23.4748 22.0749C24.274 22.0749 24.922 21.4269 24.922 20.6276C24.922 19.8284 24.274 19.1804 23.4748 19.1804C22.6755 19.1804 22.0275 19.8284 22.0275 20.6276C22.0275 21.4269 22.6755 22.0749 23.4748 22.0749Z" fill="#414042"/>
<path d="M22.2792 24.2143C23.0785 24.2143 23.7264 23.5663 23.7264 22.767C23.7264 21.9678 23.0785 21.3198 22.2792 21.3198C21.4799 21.3198 20.832 21.9678 20.832 22.767C20.832 23.5663 21.4799 24.2143 22.2792 24.2143Z" fill="#414042"/>
<path d="M20.0769 25.347C20.8762 25.347 21.5241 24.6991 21.5241 23.8998C21.5241 23.1005 20.8762 22.4526 20.0769 22.4526C19.2776 22.4526 18.6297 23.1005 18.6297 23.8998C18.6297 24.6991 19.2776 25.347 20.0769 25.347Z" fill="#414042"/>
<path d="M16.9306 26.8571C18.2164 26.8571 19.2588 25.8147 19.2588 24.5289C19.2588 23.2432 18.2164 22.2008 16.9306 22.2008C15.6448 22.2008 14.6025 23.2432 14.6025 24.5289C14.6025 25.8147 15.6448 26.8571 16.9306 26.8571Z" fill="#414042"/>
<path d="M11.708 22.3896C12.5073 22.3896 13.1553 21.7416 13.1553 20.9423C13.1553 20.1431 12.5073 19.4951 11.708 19.4951C10.9087 19.4951 10.2608 20.1431 10.2608 20.9423C10.2608 21.7416 10.9087 22.3896 11.708 22.3896Z" fill="#414042"/>
<path d="M10.0092 20.3131C10.8085 20.3131 11.4565 19.6651 11.4565 18.8659C11.4565 18.0666 10.8085 17.4186 10.0092 17.4186C9.20996 17.4186 8.56201 18.0666 8.56201 18.8659C8.56201 19.6651 9.20996 20.3131 10.0092 20.3131Z" fill="#414042"/>
<path d="M8.87655 17.7331C9.67583 17.7331 10.3238 17.0852 10.3238 16.2859C10.3238 15.4866 9.67583 14.8387 8.87655 14.8387C8.07727 14.8387 7.42932 15.4866 7.42932 16.2859C7.42932 17.0852 8.07727 17.7331 8.87655 17.7331Z" fill="#414042"/>
<path d="M9.37996 15.1534C10.1792 15.1534 10.8272 14.5054 10.8272 13.7061C10.8272 12.9069 10.1792 12.2589 9.37996 12.2589C8.58068 12.2589 7.93274 12.9069 7.93274 13.7061C7.93274 14.5054 8.58068 15.1534 9.37996 15.1534Z" fill="#414042"/>
<path d="M9.37996 12.7625C10.1792 12.7625 10.8272 12.1145 10.8272 11.3153C10.8272 10.516 10.1792 9.86804 9.37996 9.86804C8.58068 9.86804 7.93274 10.516 7.93274 11.3153C7.93274 12.1145 8.58068 12.7625 9.37996 12.7625Z" fill="#414042"/>
<path d="M10.0092 11.3152C10.8085 11.3152 11.4565 10.6673 11.4565 9.868C11.4565 9.06872 10.8085 8.42078 10.0092 8.42078C9.20996 8.42078 8.56201 9.06872 8.56201 9.868C8.56201 10.6673 9.20996 11.3152 10.0092 11.3152Z" fill="#414042"/>
<path d="M24.5445 20.3131C25.3437 20.3131 25.9917 19.6651 25.9917 18.8659C25.9917 18.0666 25.3437 17.4186 24.5445 17.4186C23.7452 17.4186 23.0972 18.0666 23.0972 18.8659C23.0972 19.6651 23.7452 20.3131 24.5445 20.3131Z" fill="#414042"/>
<path d="M25.551 17.7332C26.4198 17.7332 27.1241 17.029 27.1241 16.1602C27.1241 15.2914 26.4198 14.5871 25.551 14.5871C24.6823 14.5871 23.978 15.2914 23.978 16.1602C23.978 17.029 24.6823 17.7332 25.551 17.7332Z" fill="#414042"/>
<path d="M25.1736 15.1534C25.9729 15.1534 26.6208 14.5054 26.6208 13.7061C26.6208 12.9069 25.9729 12.2589 25.1736 12.2589C24.3743 12.2589 23.7264 12.9069 23.7264 13.7061C23.7264 14.5054 24.3743 15.1534 25.1736 15.1534Z" fill="#414042"/>
<path d="M25.1736 12.7625C25.9729 12.7625 26.6208 12.1145 26.6208 11.3153C26.6208 10.516 25.9729 9.86804 25.1736 9.86804C24.3743 9.86804 23.7264 10.516 23.7264 11.3153C23.7264 12.1145 24.3743 12.7625 25.1736 12.7625Z" fill="#414042"/>
<path d="M24.1669 11.1264C24.9662 11.1264 25.6141 10.4784 25.6141 9.67916C25.6141 8.87988 24.9662 8.23193 24.1669 8.23193C23.3676 8.23193 22.7197 8.87988 22.7197 9.67916C22.7197 10.4784 23.3676 11.1264 24.1669 11.1264Z" fill="#414042"/>
<path d="M27.1242 16.1602C27.1242 15.531 26.7466 14.9647 26.1803 14.713C26.432 14.4613 26.6208 14.0838 26.6208 13.7062C26.6208 13.2028 26.3691 12.7624 25.9915 12.5107C26.3691 12.259 26.6208 11.8185 26.6208 11.3152C26.6208 10.6859 26.1803 10.1196 25.5511 9.93085C25.5511 9.86793 25.5511 9.74208 25.5511 9.67916C25.5511 8.86116 24.9219 8.23193 24.1668 8.23193C23.5376 8.23193 23.0342 8.60947 22.8454 9.17578C22.2162 8.98701 21.524 8.79824 20.769 8.79824H13.6587C12.2115 8.79824 10.8901 9.30162 10.0721 9.99377C9.88331 9.86793 9.63162 9.805 9.44285 9.805C8.62485 9.805 7.99563 10.4342 7.99563 11.2522C7.99563 11.7556 8.24732 12.1961 8.62485 12.4478C8.24732 12.6995 7.99563 13.1399 7.99563 13.6433C7.99563 14.1467 8.24732 14.5871 8.62485 14.8388C7.9327 14.9647 7.42932 15.531 7.42932 16.2231C7.42932 17.0411 8.05855 17.6704 8.87655 17.6704C8.93947 17.6704 9.00239 17.6704 9.06531 17.6704V17.7333C8.7507 17.985 8.56193 18.3625 8.56193 18.803C8.56193 19.621 9.19116 20.2502 10.0092 20.2502C10.0721 20.2502 10.135 20.2502 10.135 20.2502C10.1979 20.3131 10.2608 20.439 10.3238 20.5019C10.2608 20.6277 10.2608 20.8165 10.2608 20.9423C10.2608 21.6345 10.7642 22.2637 11.4564 22.3266C11.3935 22.4525 11.3935 22.5783 11.3935 22.7042C11.3935 23.5222 12.0227 24.1514 12.8407 24.1514C12.9665 24.1514 13.0294 24.1514 13.1553 24.1514C13.1553 24.1514 13.1553 24.1514 13.1553 24.2143C13.1553 25.0323 13.7845 25.6616 14.6025 25.6616C14.7284 25.6616 14.7913 25.6616 14.9171 25.5986C15.2947 26.3537 16.1127 26.92 16.9936 26.92C18.1262 26.92 19.07 26.102 19.2588 25.0952C19.5105 25.284 19.7622 25.4099 20.1397 25.4099C20.8948 25.4099 21.524 24.7806 21.587 24.0256C21.7757 24.1514 22.0903 24.2143 22.342 24.2143C23.16 24.2143 23.7892 23.5851 23.7892 22.7671C23.7892 22.5154 23.7263 22.2637 23.6005 22.075C24.3556 22.075 24.9848 21.4457 24.9848 20.6277C24.9848 20.5019 24.9848 20.376 24.9219 20.2502C25.5511 20.1243 26.0545 19.558 26.0545 18.8659C26.0545 18.4254 25.8657 17.985 25.4882 17.7333C25.5511 17.7333 25.5511 17.7333 25.614 17.7333C26.432 17.7333 27.1242 17.0411 27.1242 16.1602ZM20.8319 22.4525C20.8319 22.5154 20.8319 22.5783 20.8319 22.6413C20.769 22.5783 20.6431 22.5783 20.5802 22.5154C20.706 22.5154 20.769 22.5154 20.8319 22.4525ZM19.07 22.8929C19.0071 22.9559 18.9442 23.0188 18.8813 23.1446C18.8183 23.0817 18.7554 23.0188 18.7554 22.9559C18.8183 22.9559 18.9442 22.9559 19.07 22.8929ZM15.2317 22.8929C15.2317 22.8929 15.1688 22.8929 15.2317 22.8929C15.1688 22.8929 15.2317 22.8929 15.2317 22.8929ZM14.4767 22.7671C14.4138 22.7671 14.3508 22.7671 14.2879 22.7671C14.2879 22.7671 14.2879 22.7671 14.2879 22.7042C14.3508 22.7042 14.4138 22.7042 14.4767 22.7671Z" fill="#414042"/>
<path d="M25.2994 17.0411C25.2994 16.5377 24.9848 16.0972 24.5444 15.9085C24.7331 15.7197 24.859 15.4051 24.859 15.0905C24.859 14.7129 24.6702 14.3354 24.3556 14.1466C24.6702 13.9578 24.859 13.5803 24.859 13.2028C24.859 12.6994 24.4814 12.2589 24.041 12.1331C24.041 12.0702 24.041 12.0072 24.041 11.9443C24.041 11.3151 23.5376 10.8117 22.9084 10.8117C22.405 10.8117 22.0274 11.1263 21.8387 11.5668C21.3353 11.378 20.769 11.3151 20.2027 11.3151H14.5396C13.3441 11.3151 12.3373 11.6926 11.6452 12.2589C11.5193 12.196 11.3306 12.1331 11.1418 12.1331C10.5126 12.1331 10.0092 12.6365 10.0092 13.2657C10.0092 13.6432 10.198 14.0208 10.5126 14.2095C10.198 14.3983 10.0092 14.7758 10.0092 15.1534C10.0092 15.5309 10.198 15.9085 10.5126 16.0972C9.94626 16.1601 9.56873 16.6635 9.56873 17.2298C9.56873 17.8591 10.0721 18.3624 10.7013 18.3624C10.7643 18.3624 10.8272 18.3624 10.8272 18.3624V18.4254C10.5755 18.6141 10.4496 18.9288 10.4496 19.2434C10.4496 19.8726 10.953 20.376 11.5823 20.376C11.6452 20.376 11.6452 20.376 11.7081 20.376C11.771 20.4389 11.8339 20.5018 11.8969 20.5647C11.8339 20.6906 11.8339 20.8164 11.8339 20.9423C11.8339 21.5086 12.2744 21.949 12.7778 22.0749C12.7778 22.2007 12.7149 22.2637 12.7149 22.3895C12.7149 23.0187 13.2182 23.5221 13.8475 23.5221C13.9104 23.5221 13.9733 23.5221 14.0992 23.5221C14.0992 23.5221 14.0992 23.5221 14.0992 23.585C14.0992 24.2143 14.6026 24.7176 15.2318 24.7176C15.2947 24.7176 15.4205 24.7176 15.4835 24.7176C15.7981 25.3469 16.4273 25.7873 17.1824 25.7873C18.0633 25.7873 18.8184 25.1581 19.0071 24.3401C19.1959 24.466 19.4476 24.5918 19.6993 24.5918C20.3285 24.5918 20.8319 24.0884 20.8319 23.5221C21.0207 23.648 21.2094 23.7109 21.3982 23.7109C22.0274 23.7109 22.5308 23.2075 22.5308 22.5783C22.5308 22.3895 22.4679 22.2007 22.405 22.012C23.0342 22.012 23.5376 21.5086 23.5376 20.8794C23.5376 20.7535 23.5376 20.6906 23.4747 20.5647C23.978 20.4389 24.4185 19.9984 24.4185 19.4321C24.4185 19.0546 24.2297 18.74 23.978 18.5512C24.041 18.5512 24.041 18.5512 24.1039 18.5512C24.7331 18.2995 25.2994 17.7332 25.2994 17.0411ZM20.3285 22.0749C20.3285 22.1378 20.3285 22.2007 20.3285 22.2637C20.2656 22.2007 20.2027 22.2007 20.1398 22.1378C20.2027 22.1378 20.2656 22.0749 20.3285 22.0749ZM18.8813 22.4524C18.8184 22.5154 18.7555 22.5783 18.7555 22.6412C18.6925 22.5783 18.6925 22.5154 18.6296 22.5154C18.6925 22.4524 18.7555 22.4524 18.8813 22.4524ZM15.2318 22.3266C15.1689 22.3266 15.1059 22.3266 15.043 22.3266C15.043 22.3266 15.043 22.3266 15.043 22.2637C15.1059 22.2637 15.1689 22.2637 15.2318 22.3266Z" fill="#231F20"/>
<path d="M23.0972 11.3152C23.8965 11.3152 24.5444 10.6673 24.5444 9.868C24.5444 9.06872 23.8965 8.42078 23.0972 8.42078C22.2979 8.42078 21.65 9.06872 21.65 9.868C21.65 10.6673 22.2979 11.3152 23.0972 11.3152Z" fill="#414042"/>
<path d="M27.4389 40.3853H7.30359V36.1066C7.30359 30.5694 11.834 26.0389 17.3712 26.0389C22.9084 26.0389 27.4389 30.5694 27.4389 36.1066V40.3853Z" fill="#43B43D"/>
<path d="M17.8746 28.3672H16.8678C16.4273 28.3672 16.0498 27.9896 16.0498 27.5492V22.83C16.0498 22.3895 16.4273 22.012 16.8678 22.012H17.9375C18.3779 22.012 18.7555 22.3895 18.7555 22.83V27.5492C18.6926 27.9896 18.315 28.3672 17.8746 28.3672Z" fill="#CF9C89"/>
<path d="M17.8746 28.3672H17.3712V21.949H18.7555V27.4862C18.6926 27.9896 18.3151 28.3672 17.8746 28.3672Z" fill="#D9B0A1"/>
<path d="M23.0342 18.8658C23.5554 18.8658 23.978 18.4432 23.978 17.9219C23.978 17.4007 23.5554 16.9781 23.0342 16.9781C22.5129 16.9781 22.0903 17.4007 22.0903 17.9219C22.0903 18.4432 22.5129 18.8658 23.0342 18.8658Z" fill="#D9B0A1"/>
<path d="M17.3083 24.1515C14.1621 24.1515 11.5823 21.5717 11.5823 18.4255V13.14C11.5823 11.3782 13.0295 9.86804 14.8543 9.86804H19.8252C21.587 9.86804 23.0971 11.3153 23.0971 13.14V18.4255C23.0342 21.5717 20.5173 24.1515 17.3083 24.1515Z" fill="#CF9C89"/>
<path d="M19.8251 9.86804H18.6925C20.4543 9.86804 21.9645 11.3153 21.9645 13.14V18.4255C21.9645 21.3829 19.6993 23.8369 16.8048 24.0886C16.9936 24.0886 17.1823 24.0886 17.3711 24.0886C20.5173 24.0886 23.0971 21.5088 23.0971 18.3626V13.0771C23.0342 11.3153 21.5869 9.86804 19.8251 9.86804Z" fill="#D9B0A1"/>
<path d="M11.5823 18.8658C12.1036 18.8658 12.5262 18.4432 12.5262 17.9219C12.5262 17.4007 12.1036 16.9781 11.5823 16.9781C11.0611 16.9781 10.6385 17.4007 10.6385 17.9219C10.6385 18.4432 11.0611 18.8658 11.5823 18.8658Z" fill="#CF9C89"/>
<path d="M16.1127 15.9714H13.9104C13.8475 15.9714 13.7845 15.9084 13.7845 15.8455C13.7845 15.7826 13.8475 15.7197 13.9104 15.7197H16.1127C16.1756 15.7197 16.2385 15.7826 16.2385 15.8455C16.2385 15.9084 16.1756 15.9714 16.1127 15.9714Z" fill="#414042"/>
<path d="M20.7061 16.0342H18.5038C18.4409 16.0342 18.378 15.9713 18.378 15.9084C18.378 15.8455 18.4409 15.7825 18.5038 15.7825H20.7061C20.7691 15.7825 20.832 15.8455 20.832 15.9084C20.832 15.9713 20.7691 16.0342 20.7061 16.0342Z" fill="#414042"/>
<path d="M15.0431 17.041C15.2516 17.041 15.4206 16.872 15.4206 16.6635C15.4206 16.455 15.2516 16.2859 15.0431 16.2859C14.8346 16.2859 14.6655 16.455 14.6655 16.6635C14.6655 16.872 14.8346 17.041 15.0431 17.041Z" fill="#414042"/>
<path d="M19.6364 17.041C19.8449 17.041 20.0139 16.872 20.0139 16.6635C20.0139 16.455 19.8449 16.2859 19.6364 16.2859C19.4279 16.2859 19.2589 16.455 19.2589 16.6635C19.2589 16.872 19.4279 17.041 19.6364 17.041Z" fill="#414042"/>
<path d="M17.3712 19.4952C16.9307 19.4952 16.5532 19.1806 16.4902 18.7401C16.4902 18.803 16.4902 18.866 16.4902 18.9289C16.4902 19.4323 16.9307 19.8727 17.4341 19.8727C17.9375 19.8727 18.3779 19.4323 18.3779 18.9289C18.3779 18.866 18.3779 18.803 18.3779 18.7401C18.1891 19.1806 17.8116 19.4952 17.3712 19.4952Z" fill="#9B7567"/>
<path d="M19.5734 20.9424C19.5734 22.1379 18.6296 23.0818 17.4341 23.0818C16.2385 23.0818 15.2947 22.1379 15.2947 20.9424H19.5734Z" fill="white"/>
<path d="M13.1554 12.259C14.0937 12.259 14.8543 11.4983 14.8543 10.5601C14.8543 9.62178 14.0937 8.86115 13.1554 8.86115C12.2171 8.86115 11.4565 9.62178 11.4565 10.5601C11.4565 11.4983 12.2171 12.259 13.1554 12.259Z" fill="#414042"/>
<path d="M11.7711 14.0209C12.5704 14.0209 13.2183 13.3729 13.2183 12.5736C13.2183 11.7743 12.5704 11.1264 11.7711 11.1264C10.9718 11.1264 10.3239 11.7743 10.3239 12.5736C10.3239 13.3729 10.9718 14.0209 11.7711 14.0209Z" fill="#414042"/>
<path d="M13.9734 10.3714C14.9117 10.3714 15.6723 9.61077 15.6723 8.67249C15.6723 7.7342 14.9117 6.97357 13.9734 6.97357C13.0351 6.97357 12.2745 7.7342 12.2745 8.67249C12.2745 9.61077 13.0351 10.3714 13.9734 10.3714Z" fill="#414042"/>
<path d="M21.0836 13.3288C22.0219 13.3288 22.7825 12.5682 22.7825 11.6299C22.7825 10.6916 22.0219 9.93097 21.0836 9.93097C20.1453 9.93097 19.3847 10.6916 19.3847 11.6299C19.3847 12.5682 20.1453 13.3288 21.0836 13.3288Z" fill="#414042"/>
<path d="M22.8455 13.1399C23.6448 13.1399 24.2927 12.492 24.2927 11.6927C24.2927 10.8934 23.6448 10.2455 22.8455 10.2455C22.0462 10.2455 21.3983 10.8934 21.3983 11.6927C21.3983 12.492 22.0462 13.1399 22.8455 13.1399Z" fill="#414042"/>
<path d="M21.7129 10.9376C22.8597 10.9376 23.7894 10.008 23.7894 8.86118C23.7894 7.71439 22.8597 6.78473 21.7129 6.78473C20.5661 6.78473 19.6365 7.71439 19.6365 8.86118C19.6365 10.008 20.5661 10.9376 21.7129 10.9376Z" fill="#414042"/>
<path d="M11.9597 10.8118C12.898 10.8118 13.6586 10.0511 13.6586 9.11286C13.6586 8.17457 12.898 7.41394 11.9597 7.41394C11.0214 7.41394 10.2608 8.17457 10.2608 9.11286C10.2608 10.0511 11.0214 10.8118 11.9597 10.8118Z" fill="#414042"/>
<path d="M17.3713 13.2029C19.4911 13.2029 21.2095 11.6534 21.2095 9.74213C21.2095 7.8308 19.4911 6.28137 17.3713 6.28137C15.2514 6.28137 13.533 7.8308 13.533 9.74213C13.533 11.6534 15.2514 13.2029 17.3713 13.2029Z" fill="#414042"/>
<path d="M20.6431 7.85425C20.7061 8.10594 20.769 8.42055 20.769 8.73517C20.769 10.8116 19.0071 12.4476 16.9307 12.4476C15.6093 12.4476 14.4767 11.8184 13.7845 10.8745C14.2879 12.1959 15.7352 13.2027 17.4341 13.2027C19.5734 13.2027 21.2724 11.6296 21.2724 9.74193C21.2094 9.04978 21.0207 8.42055 20.6431 7.85425Z" fill="#231F20"/>
<path d="M11.3306 18.3623C12.0857 18.3623 12.652 18.9286 12.652 19.6837C12.652 20.4388 12.0857 21.0051 11.3306 21.0051C10.5755 21.0051 10.0092 20.4388 10.0092 19.6837C10.0092 19.0545 10.3868 18.5511 10.9531 18.4252" stroke="#FFC107" stroke-width="0.75" stroke-miterlimit="10"/>
<path d="M23.3489 18.5512C22.5938 18.5512 22.0275 19.1175 22.0275 19.8726C22.0275 20.6277 22.5938 21.194 23.3489 21.194C24.104 21.194 24.6703 20.6277 24.6703 19.8726C24.6703 19.2434 24.2927 18.74 23.7264 18.6141" stroke="#FFC107" stroke-width="0.75" stroke-miterlimit="10"/>
<path d="M18.8185 29.1223H15.9869C15.5465 29.1223 15.1689 28.7447 15.1689 28.3043V25.7244C15.1689 25.284 15.5465 24.9064 15.9869 24.9064H18.8185C19.2589 24.9064 19.6365 25.284 19.6365 25.7244V28.3043C19.5735 28.7447 19.2589 29.1223 18.8185 29.1223Z" fill="#279B21"/>
<path d="M19.5734 25.4098C19.5734 25.1581 19.3217 24.9694 19.07 24.9694H18.6925V29.1223H19.07C19.3217 29.1223 19.5105 28.9335 19.5734 28.6818V25.4098Z" fill="#7ED321"/>
<path d="M17.8745 24.9694H16.9936V29.1223H17.8745V24.9694Z" fill="#7ED321"/>
<path d="M16.1127 24.9694H15.6722C15.4834 24.9694 15.3576 25.0323 15.2947 25.1581V28.8706C15.3576 28.9964 15.5464 29.0593 15.6722 29.0593H16.1127V24.9694Z" fill="#7ED321"/>
</g>
</svg>
