<svg width="19" height="15" viewBox="0 0 19 15" fill="none" xmlns="http://www.w3.org/2000/svg">
<path d="M7.66199 14.4849C7.89168 14.7014 8.1788 14.8096 8.46591 14.8096C8.75302 14.8096 9.04013 14.7014 9.26982 14.4849C9.7292 14.0519 9.7292 13.3753 9.26982 12.9423L4.73344 8.63947H17.2516C17.8832 8.63947 18.4 8.15235 18.4 7.55698C18.4 6.96162 17.8832 6.4745 17.2516 6.4745H4.73344L9.29853 2.17163C9.75791 1.73864 9.75791 1.06209 9.29853 0.629097C8.83915 0.196104 8.12137 0.196104 7.66199 0.629097L1.14454 6.79925C0.685158 7.23224 0.685158 7.90879 1.14454 8.34178L7.66199 14.4849Z" fill="black"/>
</svg>
