<svg width="15" height="17" viewBox="0 0 15 17" fill="none" xmlns="http://www.w3.org/2000/svg">
<path fill-rule="evenodd" clip-rule="evenodd" d="M14.1219 4.19713C14.125 4.82408 14.125 5.45103 14.125 6.0811V6.82969V6.86401L14.1094 8.79164C14.1062 9.03182 14.1 9.24392 14.0906 9.44354C14.0468 10.4853 13.6747 11.4648 12.9556 12.4379C12.1551 13.5234 11.067 14.4186 9.62863 15.1765C9.19713 15.4011 8.75625 15.5914 8.32788 15.7754L8.3185 15.7785C8.22156 15.8191 8.12151 15.8596 8.02457 15.9033C7.88074 15.9657 7.71815 16 7.55555 16C7.4211 16 7.2929 15.975 7.17408 15.9314C5.4043 15.267 3.99723 14.3936 2.8747 13.2614C1.97418 12.3537 1.4176 11.393 1.17371 10.3263C1.07053 9.87087 1.01424 9.42171 1.01112 8.98815C0.99861 7.82158 0.99861 6.63943 1.00174 5.4947V5.48846V4.25327C1.00174 3.56394 1.36132 3.17717 2.04609 3.1335C3.62827 3.03369 5.15728 2.44105 6.85514 1.2776C7.06464 1.13412 7.29603 1 7.56493 1C7.83697 1 8.06835 1.13412 8.27785 1.28072C9.54734 2.16656 10.6949 2.69994 11.8799 2.95883C12.1832 3.02433 12.4991 3.05864 12.8336 3.09919C12.9462 3.11167 13.0619 3.12414 13.1744 3.13974C13.7685 3.2146 14.1219 3.61073 14.1219 4.19713ZM13.3714 6.82658L13.3746 6.07798V4.19713C13.3746 3.98815 13.3026 3.91017 13.0838 3.8821C12.9712 3.8665 12.8618 3.85402 12.7492 3.84155C12.3927 3.801 12.0582 3.76357 11.7205 3.68871C10.4354 3.40798 9.20339 2.83718 7.84947 1.8952C7.70877 1.7985 7.61496 1.7486 7.56493 1.7486C7.5149 1.7486 7.4211 1.79538 7.28039 1.89208C5.46684 3.13974 3.819 3.76981 2.09612 3.8821C1.95542 3.89145 1.85849 3.91953 1.81784 3.96319C1.77406 4.00686 1.75217 4.11291 1.75217 4.25639V5.49158V5.49782C1.75217 6.63943 1.74905 7.82158 1.76155 8.98191C1.76468 9.36245 1.81158 9.75858 1.90539 10.1609C2.11801 11.0873 2.60892 11.9295 3.40313 12.7374C4.44749 13.7885 5.76701 14.6057 7.43361 15.2327C7.468 15.2452 7.50865 15.2514 7.55242 15.2514C7.61183 15.2514 7.67124 15.2389 7.72127 15.2171C7.82133 15.1734 7.91826 15.1329 8.01832 15.0892L8.0277 15.0861C8.44357 14.9083 8.87194 14.7243 9.2753 14.5122C10.6105 13.8072 11.6173 12.9838 12.349 11.9919C12.9775 11.1435 13.3026 10.2982 13.3402 9.40923C13.3464 9.21585 13.3527 9.0131 13.3558 8.78228L13.3714 6.84841V6.82658Z" fill="#748CAD" stroke="#748CAD" stroke-width="0.4"/>
<path d="M4.12134 5.4325C4.28314 5.4325 4.41431 5.30133 4.41431 5.13953C4.41431 4.97772 4.28314 4.84656 4.12134 4.84656C3.95954 4.84656 3.82837 4.97772 3.82837 5.13953C3.82837 5.30133 3.95954 5.4325 4.12134 5.4325Z" fill="#748CAD" stroke="#748CAD" stroke-width="0.4"/>
<path d="M10.9691 5.4325C11.1309 5.4325 11.2621 5.30133 11.2621 5.13953C11.2621 4.97772 11.1309 4.84656 10.9691 4.84656C10.8073 4.84656 10.6761 4.97772 10.6761 5.13953C10.6761 5.30133 10.8073 5.4325 10.9691 5.4325Z" fill="#748CAD" stroke="#748CAD" stroke-width="0.4"/>
<path d="M4.12134 12.1624C4.28314 12.1624 4.41431 12.0312 4.41431 11.8694C4.41431 11.7076 4.28314 11.5764 4.12134 11.5764C3.95954 11.5764 3.82837 11.7076 3.82837 11.8694C3.82837 12.0312 3.95954 12.1624 4.12134 12.1624Z" fill="#748CAD" stroke="#748CAD" stroke-width="0.4"/>
<path d="M10.9691 12.1624C11.1309 12.1624 11.2621 12.0312 11.2621 11.8694C11.2621 11.7076 11.1309 11.5764 10.9691 11.5764C10.8073 11.5764 10.6761 11.7076 10.6761 11.8694C10.6761 12.0312 10.8073 12.1624 10.9691 12.1624Z" fill="#748CAD" stroke="#748CAD" stroke-width="0.4"/>
<path d="M7.20996 8.51661L6.97875 9.95837H8.1116L7.88027 8.51661C8.1382 8.39169 8.3168 8.12814 8.3168 7.82228C8.3168 7.3963 7.97133 7.0506 7.54512 7.0506C7.11891 7.0506 6.77344 7.3963 6.77344 7.82228C6.77344 8.12814 6.95191 8.39169 7.20996 8.51661Z" fill="#748CAD" stroke="#748CAD" stroke-width="0.4"/>
<path d="M4.7021 6.57751C4.32828 7.12735 4.10925 7.79087 4.10925 8.50454C4.10925 9.19536 4.31492 9.8386 4.66718 10.3778L4.63894 10.4061C4.41664 10.6283 4.41664 10.992 4.63894 11.2141L4.82164 11.3971C5.04382 11.6193 5.40757 11.6193 5.62988 11.3971L5.65519 11.3718C6.19765 11.7306 6.84722 11.9404 7.54507 11.9404C8.25886 11.9404 8.92214 11.7215 9.4721 11.3475L9.52167 11.3971C9.74386 11.6193 10.1074 11.6193 10.3297 11.3971L10.5126 11.2143C10.7348 10.9921 10.7348 10.6283 10.5126 10.4061L10.447 10.3405C10.7845 9.80896 10.981 9.17942 10.981 8.50454C10.981 7.80669 10.7714 7.15712 10.4124 6.61454L10.5125 6.51446C10.7347 6.29228 10.7347 5.92864 10.5125 5.70646L10.3296 5.52364C10.1074 5.30146 9.74386 5.30146 9.52144 5.52364L9.41843 5.62653C8.87914 5.27427 8.23578 5.0686 7.54507 5.0686C6.87019 5.0686 6.24066 5.26501 5.7091 5.60251L5.63011 5.52353C5.40792 5.30134 5.04417 5.30134 4.82199 5.52353L4.63917 5.70634C4.41699 5.92853 4.41687 6.29228 4.63917 6.51446L4.7021 6.57751ZM10.2849 8.50463C10.2849 10.0152 9.05584 11.2443 7.54512 11.2443C6.03441 11.2443 4.80535 10.0152 4.80535 8.50463C4.80535 6.99378 6.03454 5.76458 7.54512 5.76458C9.05597 5.76458 10.2849 6.99378 10.2849 8.50463Z" fill="#748CAD" stroke="#748CAD" stroke-width="0.4"/>
</svg>
