<svg width="15" height="15" viewBox="0 0 15 15" fill="none" xmlns="http://www.w3.org/2000/svg">
<path d="M14.4508 1.78348H10.6439V0.882353C10.6439 0.394243 10.1705 0 9.58333 0H5.41667C4.81061 0 4.35606 0.394243 4.35606 0.882353V1.78348H0.549243C0.246212 1.78348 0 2.02753 0 2.32791C0 2.62829 0.246212 2.87234 0.549243 2.87234H1.43939L2.27273 12.9725C2.27273 14.0801 3.20076 15 4.33712 15H10.6629C11.7992 15 12.7273 14.0989 12.7273 12.9912L13.5606 2.85357H14.4508C14.7538 2.85357 15 2.60951 15 2.30914C15 2.00876 14.7538 1.78348 14.4508 1.78348ZM5.43561 1.80225V1.08886H9.56439V1.80225H5.43561ZM12.4621 2.85357L11.6477 12.9161V12.9537C11.6477 13.4793 11.1932 13.9299 10.6629 13.9299H4.31818C3.78788 13.9299 3.33333 13.4793 3.33333 12.9349L2.5 2.85357H12.4621Z" fill="#FF5B5B"/>
<path fill-rule="evenodd" clip-rule="evenodd" d="M5.42539 10.3463C5.26248 10.1857 5.26248 9.92447 5.42456 9.76381L7.02986 8.16697L5.42456 6.57018C5.26248 6.40869 5.26248 6.14834 5.42539 5.98686C5.5883 5.82702 5.85096 5.82702 6.01304 5.98851L7.61647 7.58344L9.21975 5.98861C9.38183 5.82713 9.64365 5.82713 9.80656 5.98614C9.96947 6.14763 9.96947 6.40799 9.80739 6.56948L8.20263 8.16649L9.80826 9.76361C9.97034 9.92426 9.97034 10.1854 9.80743 10.3461C9.64534 10.5068 9.38186 10.5059 9.21978 10.3453L7.61614 8.75014L6.01304 10.3455C5.85096 10.5062 5.58747 10.507 5.42539 10.3463Z" fill="#FF5B5B"/>
<path d="M5.42456 9.76381L5.60056 9.94136L5.60087 9.94105L5.42456 9.76381ZM5.42539 10.3463L5.60139 10.1688L5.60093 10.1683L5.42539 10.3463ZM7.02986 8.16697L7.20617 8.34421L7.38435 8.16696L7.20616 7.98972L7.02986 8.16697ZM5.42456 6.57018L5.24811 6.74728L5.24825 6.74742L5.42456 6.57018ZM5.42539 5.98686L5.2503 5.8084L5.24939 5.80931L5.42539 5.98686ZM6.01304 5.98851L5.83659 6.16561L5.83674 6.16575L6.01304 5.98851ZM7.61647 7.58344L7.44017 7.76069L7.61648 7.93606L7.79278 7.76068L7.61647 7.58344ZM9.21975 5.98861L9.39606 6.16586L9.3962 6.16571L9.21975 5.98861ZM9.80656 5.98614L9.98257 5.80859L9.98119 5.80724L9.80656 5.98614ZM9.80739 6.56948L9.98374 6.74668L9.98385 6.74658L9.80739 6.56948ZM8.20263 8.16649L8.02628 7.98928L7.84817 8.16653L8.02632 8.34373L8.20263 8.16649ZM9.80826 9.76361L9.63195 9.94085L9.63226 9.94116L9.80826 9.76361ZM9.80743 10.3461L9.63188 10.1681L9.63143 10.1685L9.80743 10.3461ZM9.21978 10.3453L9.04347 10.5225L9.04378 10.5228L9.21978 10.3453ZM7.61614 8.75014L7.79245 8.5729L7.6161 8.39748L7.43979 8.57294L7.61614 8.75014ZM6.01304 10.3455L6.18904 10.523L6.18938 10.5227L6.01304 10.3455ZM5.24856 9.58626C4.98773 9.84481 4.98774 10.2658 5.24984 10.5243L5.60093 10.1683C5.53722 10.1055 5.53722 10.0041 5.60056 9.94136L5.24856 9.58626ZM6.85355 7.98972L5.24825 9.58657L5.60087 9.94105L7.20617 8.34421L6.85355 7.98972ZM7.20616 7.98972L5.60086 6.39293L5.24825 6.74742L6.85355 8.34421L7.20616 7.98972ZM5.60101 6.39308C5.53707 6.32938 5.53707 6.22817 5.60139 6.16441L5.24939 5.80931C4.98789 6.06852 4.98788 6.48801 5.24811 6.74728L5.60101 6.39308ZM5.60047 6.16531C5.66626 6.10077 5.77217 6.10142 5.83659 6.16561L6.18949 5.8114C5.92975 5.55262 5.51035 5.55328 5.25031 5.80841L5.60047 6.16531ZM5.83674 6.16575L7.44017 7.76069L7.79278 7.40619L6.18935 5.81126L5.83674 6.16575ZM9.04344 5.81137L7.44017 7.4062L7.79278 7.76068L9.39606 6.16586L9.04344 5.81137ZM9.98119 5.80724C9.72119 5.55346 9.30296 5.5528 9.04329 5.81151L9.3962 6.16571C9.4607 6.10145 9.56611 6.1008 9.63194 6.16505L9.98119 5.80724ZM9.98385 6.74658C10.2441 6.48731 10.2441 6.06781 9.98256 5.80859L9.63056 6.16369C9.69489 6.22745 9.69488 6.32867 9.63094 6.39238L9.98385 6.74658ZM8.37898 8.34369L9.98374 6.74668L9.63105 6.39227L8.02628 7.98928L8.37898 8.34369ZM8.02632 8.34373L9.63195 9.94085L9.98456 9.58636L8.37893 7.98924L8.02632 8.34373ZM9.63226 9.94116C9.69559 10.0039 9.6956 10.1053 9.63189 10.1681L9.98297 10.5241C10.2451 10.2656 10.2451 9.8446 9.98425 9.58605L9.63226 9.94116ZM9.63143 10.1685C9.56744 10.232 9.46105 10.2324 9.39577 10.1677L9.04378 10.5228C9.30266 10.7794 9.72325 10.7815 9.98342 10.5237L9.63143 10.1685ZM9.39608 10.168L7.79245 8.5729L7.43983 8.92739L9.04347 10.5225L9.39608 10.168ZM6.18938 10.5227L7.79249 8.92735L7.43979 8.57294L5.83669 10.1683L6.18938 10.5227ZM5.24939 10.5239C5.50957 10.7818 5.93015 10.7797 6.18904 10.523L5.83704 10.1679C5.77176 10.2327 5.66537 10.2322 5.60139 10.1688L5.24939 10.5239Z" fill="#FF5B5B"/>
</svg>
