<svg width="20" height="15" viewBox="0 0 20 15" fill="none" xmlns="http://www.w3.org/2000/svg">
<path d="M17.4998 0H2.50005C1.12539 0 0 1.12512 0 2.4995V12.5C0 13.8741 1.12512 15 2.50005 15H17.4998C18.8739 15 19.9998 13.8743 19.9998 12.5V2.49923C19.9998 1.12511 18.8742 0 17.4998 0ZM18.7497 12.5C18.7497 13.1897 18.1882 13.7501 17.5 13.7501H2.50005C1.80919 13.7501 1.24989 13.1897 1.24989 12.5V6.24971H18.7499V12.5H18.7497ZM18.7497 3.74966H1.24962V2.4995C1.24962 1.81136 1.80919 1.24989 2.49977 1.24989H17.4998C18.1879 1.24989 18.7494 1.81136 18.7494 2.4995V3.74966H18.7497Z" fill="#0F8CFF"/>
</svg>
