<svg width="24" height="24" viewBox="0 0 24 24" fill="none" xmlns="http://www.w3.org/2000/svg">
<path d="M23.0616 0.938459L23.0615 0.938436C22.5209 0.397632 21.8024 0.1 21.0375 0.1H2.96246C2.1976 0.1 1.47909 0.397632 0.938459 0.938436L0.938436 0.938459C0.397632 1.47909 0.1 2.1976 0.1 2.96246V5.9751C0.1 6.73977 0.397628 7.45829 0.938447 7.99911C1.47927 8.53993 2.19779 8.83756 2.96246 8.83756H4.51868H4.61868V8.93756V21.7906C4.61868 22.3543 4.83794 22.8837 5.23648 23.2822C5.63503 23.6807 6.1644 23.9 6.72803 23.9H17.272C17.8356 23.9 18.365 23.6807 18.7635 23.2822C18.7635 23.2822 18.7635 23.2822 18.7635 23.2822M23.0616 0.938459L19.4813 21.7906C19.4813 22.3808 19.2513 22.9356 18.8342 23.3529L18.7635 23.2822M23.0616 0.938459C23.6024 1.47909 23.9 2.1976 23.9 2.96246V5.9751C23.9 6.73977 23.6024 7.45829 23.0616 7.99911L23.0615 7.99913C22.5209 8.53992 21.8024 8.83738 21.0375 8.83738H19.4813H19.3813V8.93738V21.7906C19.3813 22.3543 19.1619 22.8836 18.7635 23.2822M23.0616 0.938459L18.7635 23.2822M5.82493 5.07181H5.92493H18.0751H18.1751V5.17181V21.7906C18.1751 22.0318 18.0808 22.2588 17.9105 22.4292M5.82493 5.07181L17.8398 22.3585M5.82493 5.07181V5.17181V21.7906C5.82493 22.0316 5.91916 22.2588 6.08951 22.4292M5.82493 5.07181L6.16022 22.3585M17.9105 22.4292L17.8398 22.3585M17.9105 22.4292C17.9105 22.4292 17.9105 22.4291 17.9105 22.4291L17.8398 22.3585M17.9105 22.4292C17.7401 22.5997 17.5129 22.6938 17.272 22.6938H6.72803C6.48713 22.6938 6.2599 22.5997 6.08951 22.4292M17.8398 22.3585C17.6882 22.5103 17.4864 22.5938 17.272 22.5938H6.72803C6.51361 22.5938 6.31183 22.5103 6.16022 22.3585M6.08951 22.4292L6.16022 22.3585M6.08951 22.4292C6.08949 22.4292 6.08948 22.4291 6.08946 22.4291L6.16022 22.3585M19.3811 7.63131V7.53131V5.172V5.072H19.4811H20.2844C20.6174 5.072 20.8875 4.80183 20.8875 4.46887C20.8875 4.13575 20.6174 3.86575 20.2844 3.86575H3.71558C3.3826 3.86575 3.11245 4.13575 3.11245 4.46887C3.11245 4.80183 3.38262 5.072 3.71558 5.072H4.51868H4.61868V5.172V7.53131V7.63131H4.51868H2.96246C2.52028 7.63131 2.1041 7.4589 1.79129 7.14609C1.47865 6.83345 1.30625 6.41727 1.30625 5.9751V2.96246C1.30625 2.52028 1.47866 2.1041 1.79147 1.79129C2.10411 1.47865 2.52029 1.30625 2.96246 1.30625H21.0375C21.4797 1.30625 21.8959 1.47866 22.2087 1.79147C22.5213 2.10411 22.6938 2.52029 22.6938 2.96246V5.9751C22.6938 6.41725 22.5214 6.83343 22.2085 7.14607C22.2085 7.14608 22.2085 7.1461 22.2085 7.14611M19.3811 7.63131L21.0375 7.53131C21.4532 7.53131 21.8439 7.36945 22.1378 7.07538L22.2085 7.14611M19.3811 7.63131H19.4811H21.0375C21.4797 7.63131 21.8959 7.45892 22.2085 7.14611M19.3811 7.63131L22.2085 7.14611" fill="#8FA9FF" stroke="#18379A" stroke-width="0.2"/>
</svg>
