<svg viewBox="0 0 12 20" fill="none" xmlns="http://www.w3.org/2000/svg">
<path d="M11.6616 19.6559C11.4393 19.8744 11.1407 19.9979 10.829 20C10.5172 19.9979 10.2186 19.8744 9.99637 19.6559L1.14858 10.8108C0.928933 10.5894 0.805687 10.2901 0.805687 9.97824C0.805687 9.66635 0.928933 9.36708 1.14858 9.14564L9.99359 0.297857C10.2184 0.0980274 10.5112 -0.00834016 10.8118 0.000511228C11.1125 0.00936262 11.3985 0.132764 11.6112 0.345474C11.8239 0.558184 11.9473 0.844127 11.9561 1.14481C11.965 1.4455 11.8586 1.73821 11.6588 1.96306L3.64916 9.97824L11.6616 17.9907C11.8786 18.2135 12 18.5122 12 18.8233C12 19.1343 11.8786 19.433 11.6616 19.6559Z" fill="#223856"/>
</svg>
