<svg width="12" height="7" viewBox="0 0 12 7" fill="none" xmlns="http://www.w3.org/2000/svg">
<path d="M11.7935 0.203058C11.9247 0.336404 11.9987 0.515588 12 0.70262C11.9987 0.889651 11.9247 1.06884 11.7935 1.20218L6.48651 6.51085C6.35364 6.64264 6.17409 6.71659 5.98695 6.71659C5.79981 6.71659 5.62025 6.64264 5.48739 6.51085L0.178714 1.20385C0.0588164 1.06893 -0.00500414 0.893309 0.000306706 0.712897C0.00561755 0.532485 0.0796584 0.360919 0.207284 0.233293C0.33491 0.105667 0.506476 0.0316265 0.686888 0.0263157C0.8673 0.0210049 1.04292 0.0848254 1.17784 0.204723L5.98695 5.0105L10.7944 0.203058C10.9281 0.0728588 11.1073 4.85517e-07 11.294 4.93675e-07C11.4806 5.01832e-07 11.6598 0.0728588 11.7935 0.203058Z" fill="#748CAD"/>
</svg>
