<svg width="15" height="15" viewBox="0 0 15 15" fill="none" xmlns="http://www.w3.org/2000/svg">
<path d="M14.7258 13.3999L8.82615 7.50021L14.7258 1.60056C15.0919 1.23441 15.0919 0.641157 14.7258 0.274857C14.3599 -0.0912933 13.7664 -0.0912933 13.4001 0.274857L7.50045 6.17451L1.6008 0.274857C1.23495 -0.0912933 0.641401 -0.0912933 0.275101 0.274857C-0.0910492 0.640407 -0.0910492 1.23426 0.275101 1.60056L6.17475 7.50021L0.275101 13.3999C-0.0910492 13.766 -0.0910492 14.3593 0.275101 14.7256C0.641251 15.0917 1.2345 15.0917 1.6008 14.7256L7.50045 8.82591L13.4001 14.7256C13.7662 15.0917 14.3599 15.0917 14.7258 14.7256C15.0919 14.3594 15.0919 13.7662 14.7258 13.3999Z" fill="#18379A"/>
</svg>
