<svg width="24" height="22" viewBox="0 0 24 22" fill="none" xmlns="http://www.w3.org/2000/svg">
<path d="M21.4056 0C21.4008 0 21.4008 0 21.3959 0H5.99514C4.60081 0 3.46883 1.10769 3.46883 2.48259L3.37167 15.9352H0.466408C0.194344 15.9352 1.24837e-05 16.1732 1.24837e-05 16.4453V18.306C-0.00484581 20.1036 1.40892 21.5902 3.20648 21.668H16.1781V21.6631C16.2267 21.668 16.3044 21.668 16.3724 21.668C18.2283 21.6631 19.7295 20.157 19.7247 18.3012V6.51011H23.5336C23.7862 6.51497 23.9951 6.31578 24 6.06315C24 6.05343 24 6.04857 24 6.03885V2.62348C24.0097 1.18056 22.8485 0.00485829 21.4056 0ZM3.34252 20.6963C2.03078 20.6915 0.966812 19.6275 0.97167 18.3158C0.97167 18.3109 0.97167 18.306 0.97167 18.306V16.9068H13.0202V18.306C13.0202 19.2437 13.3943 20.0647 14.0113 20.6963H3.34252ZM18.7579 2.62348V18.306H18.753C18.753 19.6226 17.689 20.6866 16.3724 20.6866C15.0559 20.6866 13.9919 19.6226 13.9919 18.306V16.4453C13.987 16.1684 13.7684 15.9449 13.4963 15.9352H4.34332L4.44049 2.48744C4.44049 1.64696 5.13522 0.971658 5.99514 0.971658H19.3603C18.9716 1.4332 18.7579 2.02105 18.7579 2.62348ZM23.0283 5.53845H19.7247V2.62348C19.7247 1.71012 20.4631 0.971658 21.3765 0.971658C22.2898 0.971658 23.0283 1.71012 23.0283 2.62348V5.53845Z" fill="#8FA9FF"/>
<path d="M12.4858 8.21045H10.2995C10.0323 8.21045 9.81372 8.42907 9.81372 8.69628V13.4088C9.81372 13.676 10.0323 13.8946 10.2995 13.8946H12.4858C12.753 13.8946 12.9716 13.676 12.9716 13.4088V8.69628C12.9716 8.42907 12.753 8.21045 12.4858 8.21045ZM12.0485 12.8744H10.7854V9.18211H12.0485V12.8744Z" fill="#8FA9FF"/>
<path d="M16.2267 5.68408H14.0405C13.7732 5.68408 13.5546 5.90271 13.5546 6.16991V13.3602C13.5546 13.6274 13.7732 13.846 14.0405 13.846H16.2267C16.4939 13.846 16.7125 13.6274 16.7125 13.3602V6.16991C16.7125 5.90271 16.4939 5.68408 16.2267 5.68408ZM15.7409 12.8744H14.5263V6.65574H15.7409V12.8744Z" fill="#8FA9FF"/>
<path d="M8.79351 9.91113H6.60729C6.34008 9.91113 6.12146 10.1298 6.12146 10.397V13.3605C6.12146 13.6277 6.34008 13.8463 6.60729 13.8463H8.79351C9.06072 13.8463 9.27934 13.6277 9.27934 13.3605V10.397C9.27934 10.1298 9.06072 9.91113 8.79351 9.91113ZM8.30769 12.8747H7.09312V10.8828H8.30769V12.8747Z" fill="#8FA9FF"/>
</svg>
