<svg width="16" height="14" viewBox="0 0 16 14" fill="none" xmlns="http://www.w3.org/2000/svg">
<path d="M0.661744 3.02759H2.74127C2.88546 3.51081 3.21473 3.93934 3.67703 4.24543C4.13933 4.55151 4.70829 4.71769 5.29395 4.71769C5.87961 4.71769 6.44857 4.55151 6.91087 4.24543C7.37317 3.93934 7.70244 3.51081 7.84663 3.02759H15.2201C15.3956 3.02759 15.5639 2.96824 15.688 2.86259C15.8121 2.75695 15.8819 2.61366 15.8819 2.46425C15.8819 2.31485 15.8121 2.17156 15.688 2.06591C15.5639 1.96027 15.3956 1.90092 15.2201 1.90092H7.84663C7.70244 1.41769 7.37317 0.989163 6.91087 0.683078C6.44857 0.376994 5.87961 0.210815 5.29395 0.210815C4.70829 0.210815 4.13933 0.376994 3.67703 0.683078C3.21473 0.989163 2.88546 1.41769 2.74127 1.90092H0.661744C0.486238 1.90092 0.317921 1.96027 0.19382 2.06591C0.0697192 2.17156 0 2.31485 0 2.46425C0 2.61366 0.0697192 2.75695 0.19382 2.86259C0.317921 2.96824 0.486238 3.02759 0.661744 3.02759ZM5.29395 1.33758C5.55571 1.33758 5.81159 1.40366 6.02924 1.52746C6.24689 1.65126 6.41652 1.82722 6.51669 2.03309C6.61686 2.23897 6.64307 2.4655 6.59201 2.68406C6.54094 2.90261 6.41489 3.10336 6.2298 3.26093C6.0447 3.4185 5.80888 3.52581 5.55215 3.56928C5.29542 3.61275 5.02931 3.59044 4.78747 3.50516C4.54564 3.41989 4.33894 3.27548 4.19351 3.0902C4.04808 2.90492 3.97046 2.68709 3.97046 2.46425C3.97046 2.16544 4.1099 1.87887 4.3581 1.66757C4.60631 1.45628 4.94294 1.33758 5.29395 1.33758Z" fill="#748CAD"/>
<path d="M0.661744 7.53424H8.03522C8.17941 8.01747 8.50868 8.44599 8.97098 8.75208C9.43328 9.05816 10.0022 9.22434 10.5879 9.22434C11.1736 9.22434 11.7425 9.05816 12.2048 8.75208C12.6671 8.44599 12.9964 8.01747 13.1406 7.53424H15.2201C15.3956 7.53424 15.5639 7.47489 15.688 7.36924C15.8121 7.2636 15.8819 7.12031 15.8819 6.97091C15.8819 6.8215 15.8121 6.67821 15.688 6.57257C15.5639 6.46692 15.3956 6.40757 15.2201 6.40757H13.1406C12.9964 5.92434 12.6671 5.49582 12.2048 5.18973C11.7425 4.88365 11.1736 4.71747 10.5879 4.71747C10.0022 4.71747 9.43328 4.88365 8.97098 5.18973C8.50868 5.49582 8.17941 5.92434 8.03522 6.40757H0.661744C0.486238 6.40757 0.317921 6.46692 0.19382 6.57257C0.0697192 6.67821 0 6.8215 0 6.97091C0 7.12031 0.0697192 7.2636 0.19382 7.36924C0.317921 7.47489 0.486238 7.53424 0.661744 7.53424ZM10.5879 5.84423C10.8497 5.84423 11.1055 5.91031 11.3232 6.03411C11.5408 6.15791 11.7105 6.33387 11.8106 6.53975C11.9108 6.74562 11.937 6.97216 11.886 7.19071C11.8349 7.40926 11.7088 7.61002 11.5237 7.76758C11.3387 7.92515 11.1028 8.03246 10.8461 8.07593C10.5894 8.1194 10.3233 8.09709 10.0814 8.01182C9.83959 7.92654 9.63289 7.78213 9.48746 7.59685C9.34203 7.41157 9.26441 7.19374 9.26441 6.97091C9.26441 6.67209 9.40385 6.38552 9.65205 6.17423C9.90026 5.96293 10.2369 5.84423 10.5879 5.84423Z" fill="#748CAD"/>
<path d="M0.661744 12.041H2.74127C2.88546 12.5242 3.21473 12.9528 3.67703 13.2589C4.13933 13.5649 4.70829 13.7311 5.29395 13.7311C5.87961 13.7311 6.44857 13.5649 6.91087 13.2589C7.37317 12.9528 7.70244 12.5242 7.84663 12.041H15.2201C15.3956 12.041 15.5639 11.9817 15.688 11.876C15.8121 11.7704 15.8819 11.6271 15.8819 11.4777C15.8819 11.3283 15.8121 11.185 15.688 11.0793C15.5639 10.9737 15.3956 10.9143 15.2201 10.9143H7.84663C7.70244 10.4311 7.37317 10.0026 6.91087 9.69651C6.44857 9.39042 5.87961 9.22424 5.29395 9.22424C4.70829 9.22424 4.13933 9.39042 3.67703 9.69651C3.21473 10.0026 2.88546 10.4311 2.74127 10.9143H0.661744C0.486238 10.9143 0.317921 10.9737 0.19382 11.0793C0.0697192 11.185 0 11.3283 0 11.4777C0 11.6271 0.0697192 11.7704 0.19382 11.876C0.317921 11.9817 0.486238 12.041 0.661744 12.041ZM5.29395 10.351C5.55571 10.351 5.81159 10.4171 6.02924 10.5409C6.24689 10.6647 6.41652 10.8406 6.51669 11.0465C6.61686 11.2524 6.64307 11.4789 6.59201 11.6975C6.54094 11.916 6.41489 12.1168 6.2298 12.2744C6.0447 12.4319 5.80888 12.5392 5.55215 12.5827C5.29542 12.6262 5.02931 12.6039 4.78747 12.5186C4.54564 12.4333 4.33894 12.2889 4.19351 12.1036C4.04808 11.9183 3.97046 11.7005 3.97046 11.4777C3.97046 11.1789 4.1099 10.8923 4.3581 10.681C4.60631 10.4697 4.94294 10.351 5.29395 10.351Z" fill="#748CAD"/>
</svg>
