<svg width="20" height="20" viewBox="0 0 20 20" fill="none" xmlns="http://www.w3.org/2000/svg">
<path d="M17.4938 5.40562C15.8886 3.79808 13.7059 2.89768 11.4318 2.90483C11.0364 2.90483 10.7158 3.22473 10.7158 3.61934V10.7406H3.57987C3.18445 10.7406 2.86389 11.0605 2.86389 11.4551C2.8671 15.3236 5.47257 18.7079 9.21723 19.7078C12.9619 20.7077 16.9128 19.074 18.8514 15.7241C20.79 12.3741 20.2332 8.14261 17.4938 5.40562ZM16.4676 6.42975C18.0563 8.01678 18.7996 10.2599 18.4723 12.4793L12.1478 10.9074V4.38148C13.782 4.54421 15.3089 5.2682 16.4676 6.42975ZM11.4318 18.5764C7.77248 18.5704 4.71074 15.8031 4.34359 12.1697H11.3364L18.1382 13.8607C17.1221 16.686 14.4398 18.5722 11.4318 18.5764Z" fill="#8FAAFF"/>
<path d="M8.56793 0C6.29558 0 4.11629 0.900834 2.50949 2.50433C0.90269 4.10783 0 6.28263 0 8.55032C0 8.94493 0.320557 9.26483 0.715983 9.26483H8.56793C8.96336 9.26483 9.28392 8.94493 9.28392 8.55032V0.714511C9.28392 0.319898 8.96336 0 8.56793 0ZM7.85195 7.83581H1.4797C1.81363 4.46718 4.47765 1.79868 7.85195 1.45284V7.83581Z" fill="#8FAAFF"/>
</svg>
