<svg width="23" height="27" viewBox="0 0 23 27" fill="none" xmlns="http://www.w3.org/2000/svg">
<path d="M6.36497 22.909L11.5253 25.9138C11.6225 25.9703 11.733 26 11.8454 26C11.9579 26 12.0683 25.9703 12.1655 25.9138L17.3284 22.909C19.1865 21.8343 20.6801 20.2278 21.6166 18.2964C22.5532 16.3651 22.8898 14.1975 22.5831 12.0731L21.5806 5.00218C21.5591 4.84983 21.4832 4.7104 21.3669 4.60961C21.2507 4.50882 21.1019 4.45347 20.948 4.45375C17.3361 4.45375 14.5863 3.41302 12.2905 1.18105C12.1714 1.06497 12.0117 1 11.8454 1C11.6791 1 11.5194 1.06497 11.4003 1.18105C9.10456 3.41302 6.35477 4.45375 2.7428 4.45375C2.58894 4.45347 2.44016 4.50882 2.3239 4.60961C2.20764 4.7104 2.13174 4.84983 2.1102 5.00218L1.11028 12.0731C0.803544 14.1975 1.14016 16.3651 2.07674 18.2964C3.01331 20.2278 4.50691 21.8343 6.36497 22.909ZM2.37293 12.2516L3.29888 5.72151C6.77055 5.62458 9.51269 4.59405 11.8467 2.51258C14.1807 4.5966 16.9228 5.62458 20.3945 5.72406L21.3204 12.2542C21.5914 14.1265 21.2955 16.0371 20.4708 17.7397C19.6461 19.4423 18.3304 20.8589 16.6933 21.807L11.8467 24.6129L7.00013 21.807C5.36254 20.8588 4.04653 19.4417 3.22179 17.7386C2.39705 16.0355 2.10139 14.1243 2.37293 12.2516Z" fill="#8FA9FF" stroke="#8FA9FF" stroke-width="0.5"/>
<path d="M16.2263 13.3076H18.6011C18.7703 13.3076 18.9325 13.2404 19.0521 13.1208C19.1717 13.0012 19.2388 12.839 19.2388 12.6699C19.2388 12.5008 19.1717 12.3386 19.0521 12.219C18.9325 12.0994 18.7703 12.0322 18.6011 12.0322H16.6931L15.4662 7.92282C15.4039 7.71479 15.3004 7.52139 15.162 7.35409C15.0236 7.18678 14.8529 7.04896 14.6602 6.94882C14.4676 6.84867 14.2567 6.78822 14.0403 6.77106C13.8238 6.7539 13.6061 6.78038 13.4 6.84892L11.8466 7.35909L10.2931 6.84892C10.087 6.78038 9.86933 6.7539 9.65285 6.77106C9.43638 6.78822 9.22555 6.84867 9.03286 6.94882C8.84018 7.04896 8.66956 7.18678 8.53112 7.35409C8.39269 7.52139 8.28925 7.71479 8.22694 7.92282L6.99999 12.0322H5.08943C4.9203 12.0322 4.75809 12.0994 4.6385 12.219C4.51891 12.3386 4.45172 12.5008 4.45172 12.6699C4.45172 12.839 4.51891 13.0012 4.6385 13.1208C4.75809 13.2404 4.9203 13.3076 5.08943 13.3076H16.2263ZM9.44623 8.28759C9.45957 8.24317 9.48167 8.20188 9.51124 8.16615C9.54081 8.13043 9.57724 8.10099 9.61839 8.07959C9.65953 8.05818 9.70454 8.04525 9.75077 8.04154C9.797 8.03784 9.8435 8.04344 9.88752 8.05801L11.645 8.65491C11.7759 8.69847 11.9173 8.69847 12.0481 8.65491L13.803 8.07077C13.8472 8.05579 13.894 8.04988 13.9405 8.05339C13.987 8.0569 14.0323 8.06976 14.0738 8.09119C14.1152 8.11262 14.1519 8.14219 14.1816 8.17813C14.2114 8.21406 14.2336 8.25563 14.2469 8.30034L15.3718 12.0449H8.32387L9.44623 8.28759Z" fill="#8FA9FF" stroke="#8FA9FF" stroke-width="0.5"/>
<path d="M14.6808 14.3662C14.2126 14.367 13.7556 14.5088 13.3693 14.7732C12.983 15.0376 12.6853 15.4122 12.5151 15.8483C12.0794 15.7221 11.6168 15.7221 11.181 15.8483C10.9773 15.3283 10.5932 14.8989 10.0991 14.6387C9.60495 14.3784 9.03367 14.3046 8.4896 14.4307C7.94554 14.5569 7.46501 14.8745 7.1358 15.3257C6.80659 15.7768 6.65067 16.3314 6.69652 16.888C6.74237 17.4446 6.98693 17.9661 7.38553 18.3573C7.78413 18.7485 8.31016 18.9832 8.86754 19.0187C9.42491 19.0541 9.97641 18.8878 10.4213 18.5501C10.8662 18.2125 11.1748 17.7261 11.2907 17.1798C11.4599 17.08 11.6528 17.0273 11.8493 17.0273C12.0458 17.0273 12.2387 17.08 12.408 17.1798C12.4982 17.6108 12.7087 18.0074 13.0152 18.3236C13.3217 18.6398 13.7115 18.8627 14.1395 18.9663C14.5675 19.0699 15.0161 19.0501 15.4332 18.9091C15.8504 18.7681 16.219 18.5117 16.4964 18.1696C16.7738 17.8276 16.9485 17.414 17.0002 16.9767C17.052 16.5394 16.9788 16.0963 16.789 15.699C16.5992 15.3016 16.3006 14.9662 15.9279 14.7317C15.5552 14.4972 15.1237 14.3731 14.6833 14.3739L14.6808 14.3662ZM9.01282 17.7461C8.80414 17.7471 8.59986 17.6861 8.42589 17.5708C8.25192 17.4556 8.1161 17.2913 8.03565 17.0987C7.95521 16.9061 7.93377 16.694 7.97405 16.4893C8.01432 16.2845 8.11451 16.0963 8.26189 15.9486C8.40928 15.8008 8.59722 15.7002 8.80188 15.6594C9.00654 15.6186 9.21871 15.6396 9.41146 15.7195C9.60421 15.7995 9.76887 15.9349 9.88455 16.1086C10.0002 16.2823 10.0617 16.4865 10.0612 16.6951C10.0605 16.9732 9.94995 17.2398 9.75356 17.4366C9.55717 17.6335 9.2909 17.7447 9.01282 17.7461ZM14.6808 17.7461C14.4724 17.7461 14.2687 17.6843 14.0955 17.5685C13.9222 17.4528 13.7872 17.2882 13.7075 17.0957C13.6277 16.9032 13.6069 16.6914 13.6475 16.4871C13.6882 16.2827 13.7885 16.095 13.9358 15.9477C14.0832 15.8003 14.2709 15.7 14.4752 15.6593C14.6796 15.6187 14.8914 15.6396 15.0839 15.7193C15.2764 15.799 15.4409 15.9341 15.5567 16.1073C15.6725 16.2806 15.7342 16.4842 15.7342 16.6926C15.7342 16.972 15.6233 17.24 15.4257 17.4375C15.2281 17.6351 14.9602 17.7461 14.6808 17.7461Z" fill="#8FA9FF" stroke="#8FA9FF" stroke-width="0.5"/>
</svg>

