<svg width="17" height="15" viewBox="0 0 17 15" fill="none" xmlns="http://www.w3.org/2000/svg">
<path d="M13.1141 4.24541C12.6074 1.70344 10.1361 0.0535498 7.59411 0.56018C5.7349 0.930739 4.28116 2.38357 3.90945 4.24254C2.10712 4.45026 0.814286 6.07966 1.02188 7.88211C1.213 9.54093 2.61799 10.7925 4.2878 10.7913H6.63429C6.8935 10.7913 7.10361 10.5812 7.10361 10.322C7.10361 10.0628 6.8935 9.85267 6.63429 9.85267H4.2878C2.99175 9.845 1.94737 8.78825 1.95503 7.49232C1.9627 6.19639 3.01945 5.15201 4.31549 5.15956C4.55467 5.15967 4.75563 4.97966 4.78195 4.74197C5.02022 2.68214 6.8832 1.20551 8.94302 1.44378C10.6747 1.64405 12.0408 3.01013 12.2411 4.74185C12.2805 4.98389 12.4901 5.16116 12.7353 5.15956C14.0313 5.15956 15.0819 6.21013 15.0819 7.50617C15.0819 8.8021 14.0313 9.85267 12.7353 9.85267H10.3888C10.1295 9.85267 9.91943 10.0628 9.91943 10.322C9.91943 10.5812 10.1295 10.7913 10.3888 10.7913H12.7354C14.5496 10.78 16.0112 9.30003 16 7.4858C15.9897 5.83362 14.754 4.44614 13.1141 4.24541Z" fill="#0F8CFF" stroke="#0F8CFF" stroke-width="0.2"/>
<path d="M10.1705 11.7533L8.98076 12.9433V7.03671C8.98076 6.7775 8.77065 6.56738 8.51144 6.56738C8.25234 6.56738 8.04223 6.7775 8.04223 7.03671V12.9435L6.8525 11.7533C6.67237 11.5667 6.37528 11.5616 6.18886 11.7417C6.00243 11.9217 5.99728 12.2188 6.1773 12.4052C6.18108 12.4091 6.18497 12.413 6.18886 12.4168L8.17922 14.4076C8.22259 14.451 8.27409 14.4854 8.33085 14.509C8.44632 14.5578 8.57667 14.5578 8.69214 14.509C8.7489 14.4854 8.8004 14.451 8.84377 14.4076L10.8341 12.4168C11.0206 12.2368 11.0257 11.9397 10.8457 11.7533C10.6656 11.5667 10.3685 11.5616 10.182 11.7417C10.1782 11.7455 10.1743 11.7493 10.1705 11.7533Z" fill="#0F8CFF" stroke="#0F8CFF" stroke-width="0.2"/>
</svg>
