<svg width="13" height="13" viewBox="0 0 13 13" fill="none" xmlns="http://www.w3.org/2000/svg">
<path d="M9.89941 9.90059C9.81582 9.97787 9.68974 10.0377 9.57596 10.0412L5.86337 10.1538C5.63179 10.1414 5.35265 9.95281 5.34306 9.68975C5.33359 9.43065 5.57966 9.19257 5.83875 9.20103L8.44741 9.12362L2.2494 2.9256C2.06301 2.73921 2.06301 2.43699 2.24941 2.25059C2.43581 2.06419 2.73803 2.06419 2.92442 2.25058L9.12244 8.44859L9.19985 5.83993C9.20005 5.60939 9.42936 5.33752 9.68857 5.34423C9.94774 5.35093 10.1497 5.63355 10.1526 5.86456L10.04 9.57713C10.0362 9.70418 9.98941 9.81099 9.89941 9.90059Z" fill="#FF5B5B"/>
</svg>
