<svg width="15" height="9" viewBox="0 0 15 9" fill="none" xmlns="http://www.w3.org/2000/svg">
<path d="M7.5 2.3208C7.26318 2.3208 7.04216 2.36816 6.83692 2.43131C7.16846 2.60497 7.40527 2.9523 7.40527 3.34698C7.40527 3.91533 6.94744 4.37317 6.37909 4.37317C5.9844 4.37317 5.63708 4.13636 5.46342 3.80482C5.40027 4.01006 5.35291 4.23108 5.35291 4.46789C5.35291 5.66774 6.31594 6.63077 7.51578 6.63077C8.71563 6.63077 9.67866 5.66774 9.67866 4.46789C9.66288 3.29962 8.69984 2.3208 7.5 2.3208Z" fill="#0F8CFF"/>
<path d="M14.7622 2.54178C14.6359 2.43126 11.4626 0 7.5 0C3.53735 0 0.379867 2.44705 0.23778 2.54178C-0.0306063 2.7628 -0.0779686 3.15749 0.127268 3.42587C0.253568 3.58375 0.443017 3.66268 0.616679 3.66268C0.758765 3.66268 0.885065 3.61532 1.01136 3.53639C1.02715 3.5206 2.24278 2.58914 4.02676 1.92607C3.48999 2.6365 3.17424 3.53639 3.17424 4.49942C3.17424 6.88332 5.10031 8.82518 7.5 8.82518C9.8839 8.82518 11.8258 6.89911 11.8258 4.49942C11.8258 3.53639 11.51 2.65229 10.9732 1.94185C12.7572 2.60493 13.9728 3.53639 13.9886 3.55217C14.257 3.7732 14.6517 3.71005 14.8727 3.44166C15.078 3.15749 15.0306 2.7628 14.7622 2.54178ZM7.5 7.70427C5.73181 7.70427 4.29515 6.26761 4.29515 4.49942C4.29515 2.73123 5.73181 1.29457 7.5 1.29457C9.26819 1.29457 10.7048 2.73123 10.7048 4.49942C10.7048 6.26761 9.26819 7.70427 7.5 7.70427Z" fill="#0F8CFF"/>
</svg>
