<svg width="30" height="30" viewBox="0 0 30 30" fill="none" xmlns="http://www.w3.org/2000/svg">
<path d="M0.660895 0.607516C1.05722 0.208332 1.62088 0.00103736 2.1797 0.00147747C3.34798 0.0023577 4.5167 0.00323817 5.68542 0.0010376C5.11251 0.599154 4.51406 1.17262 3.93366 1.7637C2.62271 3.0704 1.31483 4.38106 0.00475566 5.68865C-0.00449194 4.51618 0.00387534 3.34371 0.000352447 2.17125C-0.0106566 1.58765 0.236827 1.00758 0.660895 0.607516Z" fill="#00E59E"/>
<path d="M12.0985 0.00390969C13.9736 0.000388773 15.8487 0.00434968 17.7237 0.00170898C15.3224 2.4175 12.9062 4.81877 10.5014 7.2306C6.99916 10.7273 3.50445 14.2315 0.000488281 17.726C0.001369 15.8494 0.000928643 13.9732 0.000488281 12.0965C4.0342 8.06682 8.0688 4.03712 12.0985 0.00390969Z" fill="#00E59E"/>
<path d="M0.00201518 24.0796C8.0329 16.055 16.0558 8.02198 24.0894 0C25.3303 0.00440115 26.5717 0.00132029 27.8126 0.00132029C28.3415 -0.000440169 28.8748 0.177807 29.2707 0.53518C29.726 0.926882 30.0061 1.51972 29.999 2.12223C29.9999 10.5878 29.9995 19.0535 29.9995 27.5191C29.9981 27.755 30.0078 27.9922 29.9744 28.2272C29.8669 28.8183 29.5041 29.3544 28.9924 29.6704C28.6062 29.9203 28.1367 30.0084 27.6823 29.9969C26.4422 29.9991 25.2017 29.993 23.9617 30C22.3605 28.4187 20.7761 26.8197 19.1807 25.2322C16.7868 22.8389 14.3895 20.4495 11.997 18.0548C11.6716 18.3422 11.3827 18.671 11.071 18.9742C10.3611 19.6947 9.64418 20.4081 8.93696 21.1312C11.2964 23.4947 13.6453 25.8682 16.0052 28.2312C16.5865 28.8218 17.181 29.4001 17.7539 29.9982C15.7775 29.9947 13.8016 29.9991 11.8257 29.9965C9.8648 28.0072 7.90651 26.0156 5.94734 24.0254C4.94243 25.0575 3.94325 26.0949 2.93571 27.1243C3.45401 27.6313 3.98112 28.13 4.49547 28.6414C4.96137 29.0907 5.433 29.5348 5.88569 29.9974C4.66589 29.9969 3.44609 29.9965 2.22628 29.9978C1.66262 30.0053 1.09059 29.8094 0.683255 29.4129C0.259627 29.0203 0.00157506 28.4517 0.00157506 27.8729C0.00157506 26.6085 0.00113445 25.344 0.00201518 24.0796Z" fill="#00E59E"/>
</svg>