<svg width="24" height="24" viewBox="0 0 24 24" fill="none" xmlns="http://www.w3.org/2000/svg">
<path d="M23.7324 17.1779C23.2706 16.5199 22.4873 16.3593 21.6364 16.7475L21.1854 16.94C21.8965 15.4705 21.9847 13.8323 21.6307 12.285C21.2242 10.5078 20.2422 8.78617 18.7121 7.16789C18.5768 7.02478 18.3475 7.01513 18.1999 7.14633C18.0522 7.27749 18.0423 7.49982 18.1776 7.64298C19.6206 9.16905 20.5442 10.7821 20.9229 12.4372C21.3217 14.1806 21.0897 15.9786 20.0719 17.4153L15.5591 19.3419L15.5628 18.8477C15.5629 18.8352 15.5623 18.8228 15.561 18.8104C15.4568 17.7947 14.6561 16.9855 13.6137 16.8425C13.6107 16.8421 13.6076 16.8417 13.6044 16.8414L9.59346 16.3936C8.05112 16.1807 7.6539 15.2846 5.56509 14.7736C5.42077 13.5863 5.61315 12.3221 6.14043 11.0547C6.93454 9.14608 8.48809 7.29169 10.6418 5.67764C11.4445 6.22945 15.0257 6.29812 15.8271 5.58628C16.2377 5.88857 16.6296 6.20011 16.9946 6.51544C17.0637 6.57516 17.1498 6.6045 17.2357 6.6045C17.3354 6.6045 17.4349 6.5648 17.5065 6.48684C17.6397 6.34191 17.6264 6.11972 17.4769 5.99058C17.0768 5.64496 16.6464 5.30395 16.195 4.97437C16.3008 4.53946 16.1527 4.03044 15.7621 3.72744C16.8972 2.05812 17.2274 0.9655 16.7713 0.393059C16.4581 -0.000177562 16.0684 0.18437 15.902 0.263215C15.6199 0.396715 15.4661 0.403747 15.2066 0.239121C14.7115 -0.0749905 14.1911 -0.0851155 13.68 0.239121C13.4172 0.405856 13.2102 0.405856 12.9475 0.239121C12.4523 -0.0749905 11.9321 -0.0851155 11.4209 0.239121C11.1584 0.405715 11.004 0.395403 10.7264 0.261621C10.5602 0.181511 10.1709 -0.00608386 9.85569 0.3872C9.40988 0.943515 9.70814 2.00168 10.7667 3.61423C10.7019 3.64822 10.6401 3.68811 10.5824 3.73367C10.1614 3.30261 9.47162 2.85303 8.47412 2.96103C7.64674 3.05079 7.03665 2.78571 6.67046 2.54759C6.50415 2.43959 6.27894 2.48262 6.16745 2.64377C6.05596 2.80503 6.1004 3.02337 6.26666 3.13147C6.73346 3.43489 7.50924 3.77267 8.55457 3.65966C9.32523 3.57584 9.84815 3.95769 10.1737 4.34628C10.1692 4.36128 10.1651 4.37638 10.1613 4.39147C9.88364 4.39569 9.46867 4.42082 9.01169 4.51297C7.91266 4.73465 7.09684 5.24104 6.65238 5.97754C6.55129 6.14508 6.6094 6.36042 6.78219 6.45848C6.95504 6.5565 7.1771 6.50011 7.27819 6.33258C7.9393 5.23715 9.55299 5.10318 10.1939 5.09479C10.1967 5.10252 10.1999 5.11016 10.2028 5.11785C7.91561 6.82847 6.32323 8.73615 5.46806 10.7916C4.92753 12.0909 4.71161 13.3925 4.82122 14.6295C4.47355 14.5796 4.12187 14.5529 3.7685 14.5505V14.3379C3.7685 13.7755 3.29653 13.3179 2.71641 13.3179H1.05209C0.471969 13.3179 0 13.7755 0 14.3379V22.5244C0 23.0869 0.471969 23.5445 1.05209 23.5445H2.71636C3.29648 23.5445 3.76845 23.0869 3.76845 22.5244V22.4243L7.39891 23.7344C7.88679 23.9104 8.39811 23.9997 8.91867 23.9997H14.3281C15.1551 23.9997 15.9615 23.7729 16.66 23.3437C23.8763 18.9084 23.4381 19.1843 23.4798 19.1485C24.0611 18.6483 24.1697 17.801 23.7324 17.1779ZM15.1468 5.16974C13.821 5.49431 12.532 5.49431 11.2059 5.16974C10.6369 5.03029 10.8018 4.04638 11.4133 4.19507C12.5996 4.48382 13.753 4.48382 14.9394 4.19507C15.5403 4.04881 15.7249 5.02809 15.1468 5.16974ZM10.3953 0.887171C10.3981 0.888531 10.401 0.889937 10.4037 0.891249C10.8943 1.12769 11.3243 1.14053 11.8179 0.827452C12.4356 0.435434 12.5026 1.06398 13.3137 1.06398C13.7041 1.06398 13.9196 0.927297 14.0769 0.827452C14.3398 0.66067 14.5468 0.660764 14.8096 0.827452C15.3054 1.14199 15.7249 1.12647 16.2299 0.890359C16.3045 1.15108 16.1357 1.92832 15.0606 3.48017C14.5267 3.47136 13.752 3.97972 11.5589 3.50651C10.4861 1.9346 10.3203 1.14981 10.3953 0.887171ZM23.0181 18.6056L16.2719 22.7501C15.6897 23.1078 15.0175 23.297 14.3281 23.297H8.91872C8.4848 23.297 8.05857 23.2225 7.65187 23.0758L3.76845 21.6743V17.8889C3.76845 17.6948 3.60615 17.5374 3.40594 17.5374C3.20573 17.5374 3.04343 17.6948 3.04343 17.8889V22.5246C3.04343 22.6995 2.89669 22.8417 2.71641 22.8417H1.05209C0.871755 22.8417 0.725068 22.6994 0.725068 22.5246V14.3381C0.725068 14.1633 0.871755 14.0211 1.05209 14.0211H2.71636C2.89669 14.0211 3.04338 14.1633 3.04338 14.3381V16.2457C3.04338 16.4398 3.20568 16.5972 3.40589 16.5972C3.6061 16.5972 3.7684 16.4398 3.7684 16.2457V15.2537C6.76745 15.276 7.44175 16.8085 9.49642 17.0903C9.49952 17.0908 9.50261 17.0912 9.50571 17.0915L13.5165 17.5392C14.2188 17.6375 14.7592 18.1797 14.8375 18.8623L14.8324 19.531H11.092C10.8918 19.531 10.7295 19.6883 10.7295 19.8825C10.7295 20.0766 10.8918 20.234 11.092 20.234H15.1923C15.2381 20.234 15.291 20.2242 15.337 20.2047C15.3444 20.2015 21.925 17.3924 21.9327 17.3891C22.4071 17.1848 22.8395 17.1556 23.1328 17.5734C23.3608 17.8981 23.3103 18.3371 23.0181 18.6056Z" fill="white"/>
<path d="M13.2719 15.9477C13.4721 15.9477 13.6344 15.7903 13.6344 15.5962V15.0135C14.6522 14.8534 15.246 14.0547 15.3752 13.3095C15.5366 12.3787 15.0337 11.5692 14.0942 11.2473C13.9281 11.1904 13.7754 11.1359 13.6344 11.0834V8.84219C14.0633 8.91114 14.3208 9.12634 14.3395 9.14242C14.4868 9.27227 14.7147 9.26266 14.8498 9.12063C14.9856 8.97794 14.9763 8.75556 14.8291 8.62394C14.8036 8.60106 14.3595 8.21345 13.6344 8.1324V7.63252C13.6344 7.43837 13.4721 7.28101 13.2718 7.28101C13.0716 7.28101 12.9093 7.43837 12.9093 7.63252V8.16081C12.8219 8.17703 12.7324 8.19765 12.6403 8.22451C12.0254 8.40409 11.5657 8.91536 11.4406 9.55872C11.3271 10.1426 11.5181 10.704 11.9388 11.024C12.1804 11.2077 12.4845 11.3759 12.9093 11.5557V14.3355C12.49 14.3182 12.232 14.2419 11.7817 13.9564C11.6142 13.8502 11.3895 13.8956 11.2799 14.0581C11.1703 14.2205 11.2172 14.4384 11.3848 14.5447C11.9766 14.92 12.3723 15.018 12.9093 15.0382V15.5962C12.9093 15.7903 13.0716 15.9477 13.2719 15.9477ZM12.3863 10.4709C12.1794 10.3135 12.09 10.0138 12.1532 9.68894C12.2117 9.38763 12.4254 9.02153 12.8495 8.89769C12.8697 8.89178 12.8895 8.88672 12.9093 8.88156V10.7802C12.6922 10.6751 12.522 10.574 12.3863 10.4709ZM13.8525 11.9101C14.7547 12.2192 14.6988 12.9703 14.6602 13.1931C14.5802 13.6544 14.2309 14.1468 13.6344 14.295V11.8339C13.705 11.8589 13.777 11.8842 13.8525 11.9101Z" fill="white"/>
</svg>
