<svg width="27" height="27" viewBox="0 0 27 27" fill="none" xmlns="http://www.w3.org/2000/svg">
<path d="M10.375 16.7542V15.6962C11.0522 16.0241 11.7907 16.2062 12.5427 16.2309C13.2948 16.2556 14.0436 16.1222 14.7409 15.8394C15.4382 15.5566 16.0683 15.1306 16.5907 14.5891C17.113 14.0475 17.516 13.4023 17.7734 12.6953C18.1189 12.6392 18.4403 12.4829 18.6978 12.2459C18.9553 12.0089 19.1376 11.7015 19.2221 11.3618L19.4448 10.4712C19.4716 10.3647 19.4852 10.2553 19.4854 10.1455C19.4846 9.87283 19.4005 9.60688 19.2444 9.3833C19.0882 9.15972 18.8675 8.98919 18.6118 8.89455L18.7216 8.35744C18.7669 8.13539 18.8001 7.91103 18.821 7.68537C18.821 7.68464 18.821 7.68386 18.821 7.68312C18.8387 7.49367 18.8479 7.30402 18.8479 7.11525C18.8487 6.30903 18.6882 5.51081 18.3757 4.7676C18.0717 4.0415 17.6311 3.38059 17.0776 2.82082C16.5088 2.24247 15.8303 1.7835 15.0818 1.47084C14.3333 1.15818 13.5299 0.998107 12.7188 1.00002H12.7178C11.9257 0.998099 11.1409 1.15069 10.4072 1.44924C10.3597 1.4686 10.3165 1.49714 10.28 1.53321C10.2435 1.56928 10.2145 1.61219 10.1946 1.65948C10.1544 1.75499 10.1538 1.86255 10.1929 1.95851C10.232 2.05447 10.3076 2.13097 10.4031 2.17117C10.4986 2.21137 10.6062 2.21198 10.7021 2.17287C11.4631 1.86419 12.2849 1.73469 13.104 1.79438C13.923 1.85406 14.7173 2.10134 15.4255 2.51709C16.1337 2.93283 16.7368 3.5059 17.1881 4.19197C17.6394 4.87804 17.9269 5.65873 18.0283 6.47365C17.2807 5.86481 16.3535 5.70187 16.2985 5.69269L16.1462 5.66735L14.649 6.66564C14.0774 7.04662 13.4057 7.24992 12.7188 7.24992C12.0318 7.24992 11.3601 7.04662 10.7885 6.66564L9.29131 5.66745L9.13896 5.69279C9.08408 5.70197 8.15635 5.86501 7.40859 6.47404C7.52096 5.55311 7.87305 4.67779 8.42969 3.93556C8.4914 3.85245 8.51762 3.74824 8.50261 3.64582C8.4876 3.54339 8.43258 3.45109 8.34961 3.38918C8.30852 3.35844 8.26177 3.33612 8.21203 3.3235C8.1623 3.31088 8.11056 3.30822 8.05979 3.31565C8.00902 3.32309 7.96021 3.34048 7.91618 3.36683C7.87216 3.39319 7.83377 3.42798 7.80322 3.46921C7.41757 3.98607 7.11584 4.56053 6.90918 5.1714C6.69687 5.79748 6.58883 6.45416 6.58936 7.11525C6.58936 7.30207 6.59813 7.48924 6.61567 7.67678C6.61567 7.67824 6.61567 7.67966 6.61606 7.68112C6.63693 7.90817 6.67023 8.1339 6.71582 8.35729L6.82568 8.8944C6.5165 9.00775 6.26026 9.23161 6.10642 9.52277C5.95259 9.81394 5.91206 10.1518 5.99268 10.4711L6.21533 11.3617C6.29988 11.7014 6.48226 12.0088 6.73987 12.2459C6.99748 12.4829 7.31899 12.6391 7.66455 12.6952C8.03597 13.7168 8.70868 14.6017 9.59375 15.2328V16.7542C9.59376 16.8457 9.56166 16.9343 9.50304 17.0045C9.44443 17.0748 9.36301 17.1222 9.273 17.1386L4.20747 18.0596C3.30727 18.2229 2.493 18.6971 1.90678 19.3996C1.32056 20.102 0.999632 20.988 1 21.9028V25.6094C1 25.713 1.04116 25.8124 1.11441 25.8856C1.18767 25.9589 1.28703 26 1.39063 26C1.49423 26 1.59358 25.9589 1.66684 25.8856C1.7401 25.8124 1.78125 25.713 1.78125 25.6094V21.9028C1.78096 21.1709 2.0377 20.4622 2.50667 19.9002C2.97564 19.3383 3.62706 18.9589 4.34722 18.8282L8.85977 18.0079C9.00303 18.9285 9.47072 19.7676 10.1784 20.3736C10.8861 20.9796 11.7871 21.3126 12.7188 21.3125C12.8224 21.3125 12.9217 21.2714 12.995 21.1981C13.0682 21.1249 13.1094 21.0255 13.1094 20.9219C13.1094 20.8183 13.0682 20.7189 12.995 20.6457C12.9217 20.5724 12.8224 20.5313 12.7188 20.5313C11.9664 20.5312 11.2392 20.2598 10.6709 19.7667C10.1026 19.2736 9.7313 18.592 9.62515 17.8472C9.84591 17.7621 10.0357 17.6121 10.1696 17.417C10.3034 17.2219 10.375 16.9908 10.375 16.7542ZM8.32617 12.2129L8.2417 11.939L7.95264 11.9375C7.72733 11.9378 7.50842 11.8626 7.33087 11.724C7.15332 11.5853 7.02737 11.3911 6.97315 11.1724L6.75049 10.2818C6.73926 10.2372 6.73352 10.1915 6.7334 10.1455C6.73407 9.99897 6.79275 9.85865 6.89661 9.75525C7.00047 9.65185 7.14105 9.59379 7.2876 9.59377H7.7666L7.48096 8.2007C7.4472 8.03517 7.42116 7.86878 7.40283 7.70153C7.77632 6.90348 8.75605 6.58801 9.12451 6.49548L10.355 7.31579C11.055 7.78233 11.8774 8.03128 12.7187 8.03128C13.5599 8.03128 14.3823 7.78233 15.0823 7.31579L16.3128 6.49548C16.6819 6.58825 17.6607 6.90392 18.0343 7.70119C18.016 7.86833 17.9904 8.03522 17.9565 8.20085L17.6714 9.59094L17.6709 9.59391H18.1499C18.2232 9.59361 18.2959 9.60801 18.3636 9.63627C18.4313 9.66454 18.4926 9.70609 18.5439 9.75846C18.6111 9.82592 18.6596 9.90968 18.6847 10.0015C18.7098 10.0934 18.7106 10.1902 18.687 10.2824L18.4644 11.1725C18.4101 11.3912 18.284 11.5855 18.1064 11.7241C17.9287 11.8628 17.7097 11.9379 17.4844 11.9375H17.1982L17.1113 12.2129C16.8248 13.1533 16.2429 13.9763 15.4518 14.5599C14.6608 15.1435 13.7028 15.4568 12.7197 15.4531H12.7178C11.7347 15.4568 10.7766 15.1437 9.9856 14.56C9.19455 13.9763 8.61265 13.1533 8.32617 12.2129Z" fill="white" stroke="white" stroke-width="0.2"/>
<path d="M4.51562 22.4847C4.41202 22.4847 4.31267 22.5259 4.23941 22.5992C4.16616 22.6724 4.125 22.7718 4.125 22.8754V25.6097C4.125 25.7133 4.16616 25.8127 4.23941 25.886C4.31267 25.9592 4.41202 26.0004 4.51562 26.0004C4.61923 26.0004 4.71858 25.9592 4.79184 25.886C4.86509 25.8127 4.90625 25.7133 4.90625 25.6097V22.8754C4.90625 22.7718 4.86509 22.6724 4.79184 22.5992C4.71858 22.5259 4.61923 22.4847 4.51562 22.4847Z" fill="white" stroke="white" stroke-width="0.2"/>
<path d="M9.20649 2.98084C9.29477 2.98079 9.38043 2.95085 9.44951 2.89588C9.51859 2.84092 9.56701 2.76418 9.58689 2.67817C9.60677 2.59216 9.59693 2.50195 9.55897 2.42225C9.52101 2.34255 9.45718 2.27806 9.37787 2.23928C9.29857 2.20051 9.20847 2.18974 9.12226 2.20873C9.03605 2.22773 8.95881 2.27536 8.90314 2.34387C8.84747 2.41238 8.81665 2.49773 8.8157 2.586C8.81474 2.67427 8.84372 2.76026 8.8979 2.82996C8.93427 2.87715 8.98103 2.91531 9.03455 2.94148C9.08808 2.96765 9.14692 2.98112 9.20649 2.98084Z" fill="white" stroke="white" stroke-width="0.2"/>
<path d="M26 21.1268V19.2528L24.5078 18.7717L24.2462 18.1403L24.9621 16.7422L23.6371 15.4172L22.239 16.1331L21.6076 15.8715L21.1265 14.3793H19.2524L18.7713 15.8715L18.1399 16.1331L16.7418 15.4172L15.4168 16.7422L16.1328 18.1403L15.8711 18.7717L14.3789 19.2528V21.1268L15.8711 21.608L16.1327 22.2393L15.4168 23.6375L16.7418 24.9624L18.1399 24.2465L18.7713 24.5081L19.2524 26.0004H21.1265L21.6076 24.5081L22.239 24.2466L23.6371 24.9624L24.9621 23.6375L24.2461 22.2393L24.5078 21.608L26 21.1268ZM24.0074 23.4873L23.4869 24.0078L22.2736 23.3866L20.9748 23.9247L20.5575 25.2191H19.8214L19.4041 23.9247L18.1052 23.3865L16.8919 24.0078L16.3714 23.4873L16.9926 22.274L16.4545 20.9751L15.1602 20.5579V19.8218L16.4546 19.4044L16.9928 18.1056L16.3715 16.8923L16.892 16.3718L18.1053 16.9929L19.4042 16.4549L19.8214 15.1605H20.5575L20.9749 16.455L22.2737 16.9931L23.487 16.3719L24.0075 16.8924L23.3862 18.1057L23.9243 19.4045L25.2188 19.8218V20.5579L23.9243 20.9752L23.3861 22.274L24.0074 23.4873Z" fill="white" stroke="white" stroke-width="0.2"/>
<path d="M21.0225 17.9691C20.9759 17.9497 20.9259 17.9398 20.8755 17.9398C20.7858 17.9397 20.6988 17.9704 20.6291 18.0268C20.5594 18.0832 20.5113 18.1619 20.4927 18.2496C20.4742 18.3373 20.4864 18.4288 20.5272 18.5086C20.5681 18.5884 20.6352 18.6517 20.7173 18.6879H20.7168L20.7285 18.6927C21.0128 18.8084 21.2568 19.0052 21.4299 19.2587C21.603 19.5122 21.6975 19.811 21.7018 20.1179C21.7061 20.4248 21.6198 20.7261 21.4538 20.9843C21.2878 21.2425 21.0494 21.446 20.7684 21.5695C20.4874 21.693 20.1763 21.7309 19.8738 21.6786C19.5714 21.6263 19.2911 21.4861 19.0679 21.2754C18.8447 21.0647 18.6885 20.7929 18.6189 20.494C18.5492 20.1951 18.5692 19.8822 18.6763 19.5946C18.6982 19.5355 18.7055 19.472 18.6976 19.4094C18.6897 19.3468 18.6668 19.2871 18.6308 19.2353C18.5948 19.1836 18.5469 19.1412 18.4911 19.112C18.4352 19.0827 18.3731 19.0674 18.3101 19.0673C18.2305 19.0676 18.1529 19.0921 18.0876 19.1375C18.0223 19.183 17.9723 19.2472 17.9443 19.3217C17.7834 19.7533 17.7532 20.2228 17.8576 20.6715C17.9619 21.1201 18.1962 21.5281 18.5311 21.8444C18.866 22.1608 19.2867 22.3714 19.7406 22.4499C20.1945 22.5285 20.6615 22.4716 21.0832 22.2863C21.505 22.101 21.8627 21.7955 22.1119 21.408C22.361 21.0205 22.4904 20.5682 22.4839 20.1076C22.4774 19.6469 22.3353 19.1984 22.0754 18.8181C21.8155 18.4378 21.4493 18.1425 21.0225 17.9691Z" fill="white" stroke="white" stroke-width="0.2"/>
<path d="M19.355 18.7431C19.4088 18.7432 19.462 18.7321 19.5112 18.7104L19.5122 18.7098C19.5602 18.6898 19.6036 18.6605 19.6401 18.6235C19.6765 18.5864 19.7052 18.5425 19.7245 18.4943C19.7437 18.4461 19.7532 18.3945 19.7523 18.3426C19.7514 18.2906 19.7401 18.2394 19.7192 18.1919C19.6982 18.1443 19.668 18.1015 19.6303 18.0657C19.5926 18.03 19.5482 18.0022 19.4996 17.9839C19.451 17.9655 19.3992 17.9571 19.3473 17.959C19.2954 17.9609 19.2444 17.9732 19.1973 17.995L19.1865 17.9994H19.187C19.1068 18.0374 19.0419 18.1016 19.003 18.1814C18.9642 18.2613 18.9537 18.3519 18.9732 18.4385C18.9928 18.5251 19.0413 18.6025 19.1106 18.6578C19.18 18.7132 19.2662 18.7433 19.355 18.7431H19.355Z" fill="white" stroke="white" stroke-width="0.2"/>
</svg>
