<svg width="22" height="22" viewBox="0 0 22 22" fill="none" xmlns="http://www.w3.org/2000/svg">
<path d="M12.8633 7.93904C13.3732 7.93904 13.7769 7.53952 13.7769 7.03486V4.44848L19.2155 3.10274V18.9784L13.7769 17.6327V15.0463C13.7769 14.5416 13.3732 14.1421 12.8633 14.1421C12.3535 14.1421 11.9498 14.5416 11.9498 15.0463V18.3266C11.9498 18.7471 12.226 19.1046 12.6297 19.1887L19.874 20.976C20.1502 21.0391 20.4264 20.976 20.6601 20.8078C20.8725 20.6396 21 20.3872 21 20.0929V1.90417C21 1.63082 20.8725 1.35746 20.6601 1.18924C20.4901 1.06307 20.2989 1 20.1077 1C20.044 1 19.959 0.999995 19.8953 1.02102L12.6509 2.80835C12.2473 2.91349 11.9711 3.27096 11.9711 3.67048V6.95075C11.9498 7.53951 12.3535 7.93904 12.8633 7.93904Z" fill="#8FA9FF" stroke="#18379A" stroke-width="0.3"/>
<path d="M1.27087 11.6609L5.05239 15.4038C5.41355 15.7613 5.98715 15.7613 6.32707 15.4038C6.68822 15.0463 6.68822 14.4786 6.32707 14.1422L4.09639 11.9343H16.0713C16.5812 11.9343 16.9848 11.5348 16.9848 11.0301C16.9848 10.5255 16.5812 10.1259 16.0713 10.1259H4.07515L6.32707 7.89703C6.68822 7.53957 6.68822 6.97183 6.32707 6.63539C6.15711 6.46717 5.92342 6.38306 5.68973 6.38306C5.45604 6.38306 5.22235 6.46717 5.05239 6.63539L1.27087 10.3783C0.909711 10.7568 0.909711 11.3245 1.27087 11.6609Z" fill="#8FA9FF" stroke="#18379A" stroke-width="0.3"/>
</svg>
