<svg width="28" height="25" viewBox="0 0 28 25" fill="none" xmlns="http://www.w3.org/2000/svg">
<path d="M19.7155 13.5255H16.136C15.1564 13.5255 14.3597 14.3221 14.3597 15.3018V18.0469C14.3597 19.0266 15.1564 19.8232 16.136 19.8232H19.7155C20.6951 19.8232 21.4917 19.0266 21.4917 18.0469V15.3018C21.4917 14.3221 20.6951 13.5255 19.7155 13.5255ZM20.1999 18.0469C20.1999 18.3161 19.9792 18.5314 19.7155 18.5314H16.136C15.8669 18.5314 15.6516 18.3107 15.6516 18.0469V15.3018C15.6516 15.0327 15.8723 14.8173 16.136 14.8173H19.7155C19.9846 14.8173 20.1999 15.038 20.1999 15.3018V18.0469Z" fill="#748CAD" stroke="white" stroke-width="0.3"/>
<path d="M27.3426 8.53569C27.3426 8.42265 27.3157 8.315 27.2565 8.21811L23.3379 1.32834C23.2249 1.12918 23.0096 1 22.7781 1H5.55909C5.32764 1 5.11233 1.1238 4.9993 1.32834L1.08612 8.21811C1.0323 8.315 1 8.42265 1 8.53569C1 10.0805 1.9312 11.4046 3.26071 11.9913V23.3541C3.26071 23.7093 3.55137 24 3.90662 24H7.47531C7.48069 24 7.48607 24 7.49146 24H12.4973C12.5027 24 12.5081 24 12.5135 24H24.4306C24.7859 24 25.0765 23.7093 25.0765 23.3541V12.0721C25.0765 12.0452 25.0765 12.0236 25.0711 12.0021C26.406 11.4154 27.3426 10.0859 27.3426 8.53569ZM5.93588 2.29722H22.4014L25.4641 7.68523H2.87854L5.93588 2.29722ZM19.7477 8.97168C19.5432 10.1343 18.5259 11.0171 17.304 11.0171C16.0821 11.0171 15.0648 10.1343 14.8603 8.97168H19.7477ZM13.4877 8.97168C13.2832 10.1343 12.2659 11.0171 11.044 11.0171C9.82214 11.0171 8.80482 10.1343 8.5949 8.97168H13.4877ZM2.33489 8.97168H7.22771C7.02317 10.1343 6.00047 11.0171 4.77861 11.0171C3.55675 11.0225 2.53943 10.1343 2.33489 8.97168ZM11.8514 22.7082H8.13737V15.7377C8.13737 15.2317 8.54645 14.8172 9.0578 14.8172H10.9363C11.4423 14.8172 11.8568 15.2263 11.8568 15.7377V22.7082H11.8514ZM23.7847 22.7082H13.1432V15.7377C13.1432 14.5212 12.1528 13.5254 10.931 13.5254H9.05242C7.83595 13.5254 6.84016 14.5158 6.84016 15.7377V22.7136H4.55254V12.3089C4.6279 12.3143 4.70325 12.3143 4.77861 12.3143C6.08121 12.3143 7.23309 11.6522 7.9113 10.6457C8.58951 11.6522 9.7414 12.3143 11.044 12.3143C12.3466 12.3143 13.4931 11.6522 14.1767 10.6457C14.8549 11.6522 16.0068 12.3143 17.304 12.3143C18.6066 12.3143 19.7531 11.6522 20.4313 10.6457C21.1095 11.6522 22.2614 12.3143 23.564 12.3143C23.6394 12.3143 23.7093 12.3089 23.7847 12.3089V22.7082ZM23.564 11.0225C22.3421 11.0225 21.3248 10.1397 21.1203 8.97707H26.0131C25.8032 10.1343 24.7859 11.0225 23.564 11.0225Z" fill="#748CAD" stroke="white" stroke-width="0.3"/>
</svg>
