<svg viewBox="0 0 16 20" fill="none" xmlns="http://www.w3.org/2000/svg">
<path d="M10.5625 19C9.56123 19 8.58245 18.7031 7.74993 18.1468C6.9174 17.5905 6.26853 16.7999 5.88536 15.8748C5.50219 14.9498 5.40194 13.9319 5.59728 12.9499C5.79261 11.9678 6.27477 11.0658 6.98277 10.3578C7.69078 9.64977 8.59283 9.16761 9.57486 8.97228C10.5569 8.77694 11.5748 8.87719 12.4998 9.26036C13.4249 9.64353 14.2155 10.2924 14.7718 11.1249C15.3281 11.9575 15.625 12.9362 15.625 13.9375C15.625 15.2802 15.0916 16.5678 14.1422 17.5172C13.1928 18.4666 11.9052 19 10.5625 19ZM10.5625 10C9.78374 10 9.02246 10.2309 8.37494 10.6636C7.72743 11.0962 7.22275 11.7112 6.92473 12.4307C6.62671 13.1502 6.54873 13.9419 6.70066 14.7057C6.85259 15.4695 7.2276 16.1711 7.77827 16.7217C8.32894 17.2724 9.03053 17.6474 9.79433 17.7993C10.5581 17.9513 11.3498 17.8733 12.0693 17.5753C12.7888 17.2773 13.4038 16.7726 13.8364 16.1251C14.2691 15.4775 14.5 14.7163 14.5 13.9375C14.5 12.8932 14.0852 11.8917 13.3467 11.1533C12.6083 10.4148 11.6068 10 10.5625 10Z" fill="#00E59E" stroke="#00E59E" stroke-width="0.2"/>
<path d="M10.5625 14.5C10.4133 14.5 10.2702 14.4407 10.1648 14.3353C10.0593 14.2298 10 14.0867 10 13.9375V11.7625C10 11.6133 10.0593 11.4702 10.1648 11.3648C10.2702 11.2593 10.4133 11.2 10.5625 11.2C10.7117 11.2 10.8548 11.2593 10.9602 11.3648C11.0657 11.4702 11.125 11.7625 11.125 11.7625V13.9375C11.125 14.0867 11.0657 14.2298 10.9602 14.3353C10.8548 14.4407 10.7117 14.5 10.5625 14.5Z" fill="#00E59E" stroke="#00E59E" stroke-width="0.2"/>
<path d="M4.6375 19H2.6875C2.23995 19 1.81073 18.8222 1.49426 18.5057C1.17779 18.1893 1 17.7601 1 17.3125V2.6875C1 2.23995 1.17779 1.81072 1.49426 1.49426C1.81073 1.17779 2.23995 1 2.6875 1H10.5625C11.0101 1 11.4393 1.17779 11.7557 1.49426C12.0722 1.81072 12.25 2.23995 12.25 2.6875V6.55C12.25 6.69918 12.1907 6.84226 12.0852 6.94775C11.9798 7.05324 11.8367 7.1125 11.6875 7.1125C11.5383 7.1125 11.3952 7.05324 11.2898 6.94775C11.1843 6.84226 11.125 6.69918 11.125 6.55V2.6875C11.125 2.53832 11.0657 2.39524 10.9602 2.28975C10.8548 2.18426 10.7117 2.125 10.5625 2.125H2.6875C2.53832 2.125 2.39524 2.18426 2.28975 2.28975C2.18426 2.39524 2.125 2.53832 2.125 2.6875V17.3125C2.125 17.4617 2.18426 17.6048 2.28975 17.7102C2.39524 17.8157 2.53832 17.875 2.6875 17.875H4.6375C4.78668 17.875 4.92976 17.9343 5.03525 18.0398C5.14074 18.1452 5.2 18.2883 5.2 18.4375C5.2 18.5867 5.14074 18.7298 5.03525 18.8352C4.92976 18.9407 4.78668 19 4.6375 19Z" fill="#00E59E" stroke="#00E59E" stroke-width="0.2"/>
<path d="M7.75 4.375H5.5C5.05245 4.375 4.62322 4.19721 4.30676 3.88074C3.99029 3.56428 3.8125 3.13505 3.8125 2.6875V1.5625C3.8125 1.41332 3.87176 1.27024 3.97725 1.16475C4.08274 1.05926 4.22582 1 4.375 1C4.52418 1 4.66726 1.05926 4.77275 1.16475C4.87824 1.27024 4.9375 1.41332 4.9375 1.5625V2.6875C4.9375 2.83668 4.99676 2.97976 5.10225 3.08525C5.20774 3.19074 5.35082 3.25 5.5 3.25H7.75C7.89918 3.25 8.04226 3.19074 8.14775 3.08525C8.25324 2.97976 8.3125 2.83668 8.3125 2.6875V1.5625C8.3125 1.41332 8.37176 1.27024 8.47725 1.16475C8.58274 1.05926 8.72582 1 8.875 1C9.02418 1 9.16726 1.05926 9.27275 1.16475C9.37824 1.27024 9.4375 1.41332 9.4375 1.5625V2.6875C9.4375 3.13505 9.25971 3.56428 8.94324 3.88074C8.62678 4.19721 8.19755 4.375 7.75 4.375Z" fill="#00E59E" stroke="#00E59E" stroke-width="0.2"/>
<path d="M10.5625 16.8475C10.4133 16.8475 10.2702 16.7882 10.1648 16.6828C10.0593 16.5773 10 16.4342 10 16.285V15.7225C10 15.5733 10.0593 15.4302 10.1648 15.3248C10.2702 15.2193 10.4133 15.16 10.5625 15.16C10.7117 15.16 10.8548 15.2193 10.9602 15.3248C11.0657 15.4302 11.125 15.5733 11.125 15.7225V16.285C11.125 16.4342 11.0657 16.5773 10.9602 16.6828C10.8548 16.7882 10.7117 16.8475 10.5625 16.8475Z" fill="#00E59E" stroke="#00E59E" stroke-width="0.2"/>
</svg>
