<svg width="17" height="17" viewBox="0 0 17 17" fill="none" xmlns="http://www.w3.org/2000/svg">
<path fill-rule="evenodd" clip-rule="evenodd" d="M0.999998 12.5543V7.39457C0.999998 7.12008 1.22225 6.897 1.49674 6.897C1.77123 6.897 1.9943 7.12008 1.9943 7.39457V12.5543C1.9943 13.9061 3.09393 15.0057 4.44565 15.0057H12.5535C13.9052 15.0057 15.0049 13.9061 15.0049 12.5543V4.44648C15.0049 3.09476 13.9052 1.99513 12.5535 1.99513H7.39374C7.11925 1.99513 6.89617 1.77206 6.89617 1.49757C6.89617 1.22308 7.11842 1 7.39374 1H12.5535C14.4542 1 16 2.54578 16 4.44565V12.5543C16 14.4542 14.4542 16 12.5535 16H4.44565C2.54578 16 0.999998 14.4542 0.999998 12.5543ZM9.94406 8.76566L9.94655 8.74659C9.9482 8.73083 9.94903 8.71425 9.94903 8.69766V4.69141C9.94903 4.41692 9.72596 4.19385 9.45147 4.19385C9.17697 4.19385 8.9539 4.41692 8.9539 4.69141V7.49769L2.79982 1.34278C2.70279 1.24576 2.57508 1.19683 2.4482 1.19683C2.32132 1.19683 2.19361 1.24576 2.09659 1.34278C1.90254 1.53684 1.90254 1.85279 2.09659 2.04601L8.25067 8.20009H5.46927C5.19478 8.20009 4.9717 8.42317 4.9717 8.69766C4.9717 8.97215 5.19478 9.19523 5.46927 9.19523H9.45147C9.46805 9.19523 9.48464 9.1944 9.49956 9.19357C9.5036 9.19312 9.5074 9.19243 9.51109 9.19176C9.51421 9.19119 9.51725 9.19063 9.5203 9.19025C9.52486 9.18942 9.52942 9.1888 9.53399 9.18818C9.53854 9.18756 9.5431 9.18694 9.54766 9.18611C9.55678 9.18445 9.56508 9.18279 9.57337 9.1803C9.5771 9.17906 9.58063 9.17823 9.58415 9.1774C9.58768 9.17657 9.5912 9.17574 9.59493 9.1745L9.6223 9.16455C9.6252 9.1633 9.62831 9.16226 9.63142 9.16123C9.63453 9.16019 9.63764 9.15915 9.64054 9.15791C9.6465 9.15543 9.65216 9.15265 9.6577 9.14993C9.66141 9.14811 9.66507 9.14631 9.66874 9.14464C9.67123 9.1434 9.67393 9.14215 9.67662 9.14091C9.67932 9.13966 9.68201 9.13842 9.68449 9.13718C9.69113 9.13386 9.69776 9.12981 9.7044 9.12575C9.70771 9.12373 9.71103 9.1217 9.71435 9.11976C9.71766 9.11728 9.72181 9.11479 9.72596 9.1123C9.7327 9.1078 9.73921 9.10306 9.74586 9.09821C9.75148 9.09411 9.7572 9.08994 9.76327 9.08576C9.76369 9.08535 9.76431 9.08493 9.76493 9.08452C9.76555 9.08411 9.76618 9.08369 9.76659 9.08328C9.7923 9.06254 9.81552 9.0385 9.83708 9.01279C9.84123 9.00781 9.84454 9.00366 9.84786 8.99869C9.85076 8.99454 9.85387 8.9904 9.85698 8.98625C9.86009 8.9821 9.8632 8.97796 9.86611 8.97381C9.87108 8.96635 9.87523 8.95971 9.87937 8.95225C9.88352 8.94562 9.88767 8.93898 9.89098 8.93235C9.89344 8.92792 9.89561 8.9232 9.89784 8.91835C9.89936 8.91504 9.90091 8.91167 9.90259 8.9083C9.90591 8.90166 9.90923 8.89503 9.91172 8.8884C9.91337 8.88425 9.91483 8.8801 9.91628 8.87595C9.91773 8.87181 9.91918 8.86766 9.92084 8.86352L9.9283 8.84196C9.92955 8.83781 9.93058 8.83345 9.93162 8.8291C9.93265 8.82475 9.93369 8.82039 9.93493 8.81625L9.93991 8.79469C9.94079 8.78985 9.94144 8.78479 9.9421 8.77961C9.94268 8.77502 9.94328 8.77034 9.94406 8.76566Z" fill="#00C588"/>
<path d="M9.94655 8.74659L10.0958 8.7623L10.0953 8.766L9.94655 8.74659ZM9.94406 8.76566L10.0929 8.78508L10.092 8.79032L9.94406 8.76566ZM8.9539 7.49769H9.1039V7.85986L8.84782 7.60375L8.9539 7.49769ZM2.79982 1.34278L2.90588 1.23672L2.90589 1.23673L2.79982 1.34278ZM2.09659 1.34278L1.99052 1.23672V1.23672L2.09659 1.34278ZM2.09659 2.04601L2.20243 1.93972L2.20265 1.93995L2.09659 2.04601ZM8.25067 8.20009L8.35674 8.09403L8.6128 8.35009H8.25067V8.20009ZM9.49956 9.19357L9.51616 9.34288L9.50788 9.34334L9.49956 9.19357ZM9.51109 9.19176L9.538 9.33932L9.538 9.33932L9.51109 9.19176ZM9.5203 9.19025L9.54717 9.33806L9.53887 9.3391L9.5203 9.19025ZM9.53399 9.18818L9.55426 9.3368L9.55424 9.33681L9.53399 9.18818ZM9.54766 9.18611L9.57449 9.33369H9.57449L9.54766 9.18611ZM9.57337 9.1803L9.62081 9.32267L9.61648 9.32397L9.57337 9.1803ZM9.58415 9.1774L9.54978 9.03139L9.54982 9.03138L9.58415 9.1774ZM9.59493 9.1745L9.64621 9.31552L9.64239 9.31679L9.59493 9.1745ZM9.6223 9.16455L9.68148 9.30263L9.67356 9.30551L9.6223 9.16455ZM9.63142 9.16123L9.67887 9.30352L9.67883 9.30354L9.63142 9.16123ZM9.64054 9.15791L9.58148 9.02002L9.58284 9.01945L9.64054 9.15791ZM9.6577 9.14993L9.72381 9.28457L9.7238 9.28458L9.6577 9.14993ZM9.66874 9.14464L9.73586 9.2789L9.7308 9.2812L9.66874 9.14464ZM9.67662 9.14091L9.7395 9.27709L9.73949 9.2771L9.67662 9.14091ZM9.68449 9.13718L9.75158 9.27134L9.75154 9.27136L9.68449 9.13718ZM9.7044 9.12575L9.78261 9.25375L9.78261 9.25375L9.7044 9.12575ZM9.71435 9.11976L9.80435 9.23976L9.79742 9.24496L9.78994 9.24932L9.71435 9.11976ZM9.72596 9.1123L9.80926 9.23725L9.80312 9.24093L9.72596 9.1123ZM9.74586 9.09821L9.83424 9.21941L9.83424 9.21941L9.74586 9.09821ZM9.76327 9.08576L9.86934 9.19183L9.8596 9.20157L9.84825 9.20937L9.76327 9.08576ZM9.76493 9.08452L9.84814 9.20933L9.84805 9.20939L9.76493 9.08452ZM9.76659 9.08328L9.66046 8.97727L9.66616 8.97157L9.67243 8.96651L9.76659 9.08328ZM9.83708 9.01279L9.95231 9.10882L9.95201 9.10918L9.83708 9.01279ZM9.84786 8.99869L9.72302 8.91546L9.72498 8.91266L9.84786 8.99869ZM9.85698 8.98625L9.73698 8.89625L9.73699 8.89624L9.85698 8.98625ZM9.86611 8.97381L9.99094 9.05704L9.98899 9.05983L9.86611 8.97381ZM9.87937 8.95225L9.74807 8.87931L9.75218 8.87275L9.87937 8.95225ZM9.89098 8.93235L9.75669 8.86521L9.75986 8.85951L9.89098 8.93235ZM9.89784 8.91835L9.76153 8.85573L9.76153 8.85573L9.89784 8.91835ZM9.90259 8.9083L9.76843 8.84122L9.76843 8.84121L9.90259 8.9083ZM9.91172 8.8884L9.77123 8.83572L9.77245 8.83268L9.91172 8.8884ZM9.91628 8.87595L9.7747 8.82641L9.7747 8.8264L9.91628 8.87595ZM9.92084 8.86352L10.0627 8.91264L10.0601 8.91922L9.92084 8.86352ZM9.9283 8.84196L10.0721 8.8851L10.07 8.89103L9.9283 8.84196ZM9.93162 8.8291L10.0775 8.86382L10.0775 8.86383L9.93162 8.8291ZM9.93493 8.81625L10.0814 8.85005L10.0786 8.85935L9.93493 8.81625ZM9.93991 8.79469L10.0877 8.82155L10.0861 8.82842L9.93991 8.79469ZM9.9421 8.77961L10.0909 8.79857L10.0909 8.79858L9.9421 8.77961ZM1.15 7.39457V12.5543H0.849998V7.39457H1.15ZM1.49674 7.047C1.30541 7.047 1.15 7.2026 1.15 7.39457H0.849998C0.849998 7.03756 1.13908 6.747 1.49674 6.747V7.047ZM1.84431 7.39457C1.84431 7.20292 1.68839 7.047 1.49674 7.047V6.747C1.85407 6.747 2.1443 7.03724 2.1443 7.39457H1.84431ZM1.84431 12.5543V7.39457H2.1443V12.5543H1.84431ZM4.44565 15.1557C3.01109 15.1557 1.84431 13.9889 1.84431 12.5543H2.1443C2.1443 13.8232 3.17677 14.8557 4.44565 14.8557V15.1557ZM12.5535 15.1557H4.44565V14.8557H12.5535V15.1557ZM15.1549 12.5543C15.1549 13.9889 13.9881 15.1557 12.5535 15.1557V14.8557C13.8224 14.8557 14.8549 13.8232 14.8549 12.5543H15.1549ZM15.1549 4.44648V12.5543H14.8549V4.44648H15.1549ZM12.5535 1.84513C13.9881 1.84513 15.1549 3.01192 15.1549 4.44648H14.8549C14.8549 3.1776 13.8224 2.14513 12.5535 2.14513V1.84513ZM7.39374 1.84513H12.5535V2.14513H7.39374V1.84513ZM7.04617 1.49757C7.04617 1.68922 7.20209 1.84513 7.39374 1.84513V2.14513C7.03641 2.14513 6.74617 1.8549 6.74617 1.49757H7.04617ZM7.39374 1.15C7.20143 1.15 7.04617 1.30576 7.04617 1.49757H6.74617C6.74617 1.1404 7.03541 0.85 7.39374 0.85V1.15ZM12.5535 1.15H7.39374V0.85H12.5535V1.15ZM15.85 4.44565C15.85 2.62864 14.3714 1.15 12.5535 1.15V0.85C14.537 0.85 16.15 2.46291 16.15 4.44565H15.85ZM15.85 12.5543V4.44565H16.15V12.5543H15.85ZM12.5535 15.85C14.3714 15.85 15.85 14.3714 15.85 12.5543H16.15C16.15 14.5371 14.537 16.15 12.5535 16.15V15.85ZM4.44565 15.85H12.5535V16.15H4.44565V15.85ZM1.15 12.5543C1.15 14.3714 2.62862 15.85 4.44565 15.85V16.15C2.46293 16.15 0.849998 14.5371 0.849998 12.5543H1.15ZM10.0953 8.766L10.0928 8.78507L9.79532 8.74626L9.79781 8.72718L10.0953 8.766ZM10.099 8.69766C10.099 8.71911 10.098 8.74095 10.0957 8.76229L9.79737 8.73088C9.79844 8.72071 9.79903 8.70938 9.79903 8.69766H10.099ZM10.099 4.69141V8.69766H9.79903V4.69141H10.099ZM9.45147 4.04385C9.8088 4.04385 10.099 4.33408 10.099 4.69141H9.79903C9.79903 4.49977 9.64311 4.34385 9.45147 4.34385V4.04385ZM8.8039 4.69141C8.8039 4.33408 9.09413 4.04385 9.45147 4.04385V4.34385C9.25982 4.34385 9.1039 4.49977 9.1039 4.69141H8.8039ZM8.8039 7.49769V4.69141H9.1039V7.49769H8.8039ZM2.90589 1.23673L9.05997 7.39164L8.84782 7.60375L2.69374 1.44884L2.90589 1.23673ZM2.4482 1.04683C2.61344 1.04683 2.77973 1.11057 2.90588 1.23672L2.69375 1.44885C2.62585 1.38095 2.53673 1.34683 2.4482 1.34683V1.04683ZM1.99052 1.23672C2.11667 1.11057 2.28297 1.04683 2.4482 1.04683V1.34683C2.35968 1.34683 2.27056 1.38095 2.20265 1.44885L1.99052 1.23672ZM1.99075 2.15231C1.73769 1.90033 1.73802 1.48922 1.99052 1.23672L2.20265 1.44885C2.06706 1.58445 2.06738 1.80525 2.20243 1.93972L1.99075 2.15231ZM8.1446 8.30616L1.99052 2.15208L2.20265 1.93995L8.35674 8.09403L8.1446 8.30616ZM5.46927 8.05009H8.25067V8.35009H5.46927V8.05009ZM4.8217 8.69766C4.8217 8.34033 5.11193 8.05009 5.46927 8.05009V8.35009C5.27762 8.35009 5.1217 8.50601 5.1217 8.69766H4.8217ZM5.46927 9.34523C5.11193 9.34523 4.8217 9.055 4.8217 8.69766H5.1217C5.1217 8.88931 5.27762 9.04523 5.46927 9.04523V9.34523ZM9.45147 9.34523H5.46927V9.04523H9.45147V9.34523ZM9.50788 9.34334C9.49274 9.34418 9.47255 9.34523 9.45147 9.34523V9.04523C9.46355 9.04523 9.47654 9.04462 9.49125 9.0438L9.50788 9.34334ZM9.538 9.33932C9.53492 9.33988 9.52615 9.34154 9.51613 9.34265L9.48299 9.04449C9.48106 9.0447 9.47988 9.04497 9.48418 9.04419L9.538 9.33932ZM9.53887 9.3391L9.538 9.33932L9.48418 9.04419C9.48659 9.04375 9.49379 9.0424 9.50172 9.04141L9.53887 9.3391ZM9.55424 9.33681C9.54917 9.3375 9.54788 9.3377 9.54713 9.33783L9.49347 9.04267C9.50184 9.04115 9.50967 9.04011 9.51373 9.03955L9.55424 9.33681ZM9.57449 9.33369C9.56613 9.33521 9.55829 9.33625 9.55426 9.3368L9.51371 9.03956C9.5188 9.03886 9.52008 9.03866 9.52083 9.03853L9.57449 9.33369ZM9.61648 9.32397C9.59973 9.329 9.58457 9.33186 9.57449 9.33369L9.52083 9.03853C9.529 9.03704 9.53042 9.03658 9.53026 9.03663L9.61648 9.32397ZM9.61852 9.32341C9.6143 9.3244 9.61715 9.32382 9.62079 9.32261L9.52595 9.038C9.53705 9.03429 9.54695 9.03206 9.54978 9.03139L9.61852 9.32341ZM9.64239 9.31679C9.63124 9.32051 9.62131 9.32275 9.61848 9.32342L9.54982 9.03138C9.55404 9.03039 9.55116 9.03097 9.54748 9.0322L9.64239 9.31679ZM9.67356 9.30551L9.6462 9.31546L9.54367 9.03353L9.57103 9.02358L9.67356 9.30551ZM9.67883 9.30354C9.67703 9.30414 9.67692 9.30418 9.67706 9.30413C9.67734 9.30403 9.67899 9.30344 9.68138 9.30242L9.56321 9.02667C9.57287 9.02253 9.58206 9.01957 9.58401 9.01892L9.67883 9.30354ZM9.6996 9.29579C9.68998 9.29992 9.68083 9.30287 9.67887 9.30352L9.58398 9.01893C9.58578 9.01833 9.58589 9.01828 9.58576 9.01833C9.58549 9.01843 9.58386 9.01901 9.58148 9.02003L9.6996 9.29579ZM9.7238 9.28458C9.71887 9.287 9.70914 9.29183 9.69825 9.29637L9.58284 9.01945C9.58385 9.01903 9.58544 9.0183 9.59159 9.01528L9.7238 9.28458ZM9.7308 9.2812C9.72953 9.28178 9.72791 9.28256 9.72381 9.28457L9.59158 9.01529C9.59491 9.01365 9.60062 9.01084 9.60667 9.00809L9.7308 9.2812ZM9.73949 9.2771C9.73804 9.27777 9.7372 9.27815 9.73647 9.2785C9.73577 9.27883 9.73563 9.2789 9.73582 9.27881L9.60165 9.01048C9.60662 9.00799 9.61153 9.00574 9.61376 9.00471L9.73949 9.2771ZM9.75154 9.27136C9.74661 9.27382 9.74174 9.27606 9.7395 9.27709L9.61375 9.00472C9.61518 9.00406 9.61603 9.00367 9.61676 9.00332C9.61746 9.00299 9.61761 9.00291 9.61744 9.003L9.75154 9.27136ZM9.78261 9.25375C9.77708 9.25712 9.76492 9.26467 9.75158 9.27134L9.61741 9.00302C9.61688 9.00328 9.61721 9.00314 9.61886 9.00218C9.62063 9.00114 9.62263 8.99993 9.62619 8.99776L9.78261 9.25375ZM9.78994 9.24932C9.78817 9.25036 9.78616 9.25158 9.78261 9.25375L9.62618 8.99776C9.62927 8.99587 9.63389 8.99304 9.63875 8.9902L9.78994 9.24932ZM9.80312 9.24093C9.80203 9.24159 9.80135 9.24199 9.80075 9.24236C9.80047 9.24253 9.80027 9.24265 9.80013 9.24273C9.79999 9.24282 9.79994 9.24286 9.79994 9.24285C9.79995 9.24285 9.80004 9.24279 9.80021 9.24268C9.80038 9.24257 9.80065 9.2424 9.80099 9.24216C9.80165 9.24172 9.80283 9.2409 9.80435 9.23976L9.62434 8.99977C9.6351 8.9917 9.64649 8.98505 9.64879 8.98367L9.80312 9.24093ZM9.83424 9.21941C9.82801 9.22395 9.81897 9.23057 9.80917 9.2371L9.64274 8.9875C9.64643 8.98504 9.6504 8.98217 9.65748 8.97701L9.83424 9.21941ZM9.84825 9.20937C9.84416 9.21218 9.84008 9.21515 9.83424 9.21941L9.65748 8.97701C9.66288 8.97308 9.67024 8.96769 9.6783 8.96215L9.84825 9.20937ZM9.84805 9.20939C9.84726 9.20991 9.84959 9.20839 9.85225 9.20645C9.85467 9.20469 9.86155 9.19962 9.86934 9.19183L9.65721 8.9797C9.66541 8.97149 9.6728 8.96601 9.6758 8.96383C9.67763 8.9625 9.67916 8.96145 9.68008 8.96082C9.68096 8.96022 9.68174 8.9597 9.68182 8.95965L9.84805 9.20939ZM9.87272 9.18928C9.86448 9.19753 9.85705 9.20304 9.85408 9.2052C9.85225 9.20653 9.85073 9.20758 9.84982 9.2082C9.84895 9.20878 9.84818 9.2093 9.84814 9.20933L9.68173 8.95971C9.68258 8.95915 9.68025 8.96067 9.6776 8.9626C9.67607 8.96371 9.67378 8.96542 9.67107 8.96765C9.6684 8.96984 9.66466 8.97306 9.66046 8.97727L9.87272 9.18928ZM9.95201 9.10918C9.92614 9.14002 9.89606 9.17156 9.86075 9.20004L9.67243 8.96651C9.68854 8.95352 9.7049 8.93697 9.72215 8.9164L9.95201 9.10918ZM9.97267 9.0819C9.96484 9.09364 9.95743 9.10267 9.95231 9.10881L9.72185 8.91676C9.72502 8.91295 9.72425 8.91369 9.72306 8.91548L9.97267 9.0819ZM9.97698 9.07625C9.97361 9.08075 9.972 9.08292 9.97074 9.08471L9.72498 8.91266C9.72953 8.90616 9.73414 8.90004 9.73698 8.89625L9.97698 9.07625ZM9.98899 9.05983C9.98443 9.06634 9.97982 9.07246 9.97698 9.07626L9.73699 8.89624C9.74036 8.89174 9.74197 8.88958 9.74322 8.88779L9.98899 9.05983ZM10.0105 9.02509C10.0039 9.03703 9.99745 9.04721 9.99091 9.05702L9.7413 8.8906C9.74471 8.88548 9.74659 8.8824 9.74825 8.87941L10.0105 9.02509ZM10.0251 8.99943C10.0181 9.01358 10.0099 9.02637 10.0066 9.03175L9.75218 8.87275C9.75441 8.86917 9.75556 8.86731 9.75651 8.86572C9.75739 8.86424 9.75732 8.86427 9.75682 8.86527L10.0251 8.99943ZM10.0341 8.98097C10.0324 8.98481 10.0278 8.99487 10.0221 9.00519L9.75986 8.85951C9.75923 8.86063 9.75903 8.86109 9.75938 8.86036C9.7598 8.85949 9.76032 8.85838 9.76153 8.85573L10.0341 8.98097ZM10.0368 8.97537C10.0364 8.97617 10.0358 8.97731 10.0341 8.98098L9.76153 8.85573C9.7629 8.85277 9.76546 8.84716 9.76843 8.84122L10.0368 8.97537ZM10.0522 8.94106C10.0464 8.95638 10.0394 8.97017 10.0368 8.97538L9.76843 8.84121C9.77024 8.8376 9.77103 8.83599 9.77165 8.83468C9.77219 8.83353 9.77188 8.83408 9.77127 8.83573L10.0522 8.94106ZM10.0579 8.92549C10.0566 8.92918 10.0541 8.93641 10.051 8.94411L9.77245 8.83268C9.77268 8.83209 9.77308 8.83102 9.7747 8.82641L10.0579 8.92549ZM10.0601 8.91922C10.0599 8.91982 10.0595 8.92088 10.0579 8.9255L9.7747 8.8264C9.77598 8.82274 9.77849 8.81551 9.78156 8.80781L10.0601 8.91922ZM10.07 8.89103L10.0626 8.91259L9.77909 8.81445L9.78655 8.79289L10.07 8.89103ZM10.0775 8.86383C10.0767 8.86738 10.0747 8.87604 10.072 8.88507L9.78463 8.79884C9.78442 8.79955 9.7844 8.79967 9.78462 8.79882C9.78486 8.79786 9.78514 8.79672 9.7857 8.79436L10.0775 8.86383ZM10.0786 8.85935C10.0788 8.85865 10.0788 8.85853 10.0786 8.85938C10.0784 8.86033 10.0781 8.86147 10.0775 8.86382L9.78569 8.79438C9.78654 8.79082 9.78855 8.78217 9.79126 8.77314L10.0786 8.85935ZM10.0861 8.82842L10.0811 8.84998L9.78878 8.78252L9.79375 8.76095L10.0861 8.82842ZM10.0909 8.79858C10.0903 8.80297 10.0892 8.81207 10.0875 8.82152L9.79233 8.76786C9.79229 8.76807 9.79236 8.76771 9.79254 8.7664C9.79274 8.765 9.79295 8.7634 9.7933 8.76064L10.0909 8.79858ZM10.092 8.79032C10.0918 8.79169 10.0915 8.79353 10.0909 8.79857L9.7933 8.76065C9.79383 8.75651 9.79477 8.74899 9.7961 8.741L10.092 8.79032Z" fill="#00C588"/>
</svg>
