<svg width="26" height="29" viewBox="0 0 26 29" fill="none" xmlns="http://www.w3.org/2000/svg">
<path d="M10.4207 10.0722C10.4207 10.0722 6.71533 10.113 6.71533 13.5023C6.71533 16.8711 6.71533 17.6419 6.71533 17.6419H19.2847C19.2847 17.6419 19.2847 16.8711 19.2847 13.5023C19.2847 10.1334 15.5794 10.0722 15.5794 10.0722H10.4207ZM18.8598 13.5023V17.217H7.14026V13.5023C7.14026 10.5805 10.2924 10.4989 10.4207 10.4972H15.576C15.7502 10.5006 18.8598 10.6051 18.8598 13.5023Z" fill="#8FAAFF" stroke="#8FAAFF" stroke-width="0.7" stroke-linejoin="round"/>
<path d="M13 1C10.7334 1 8.89603 2.82295 8.89603 5.07167C8.89603 5.2238 8.92493 5.36827 8.94108 5.5153H3.02606C1.90935 5.5153 1 6.41785 1 7.52606V20.1184C1 21.2275 1.9085 22.1292 3.02606 22.1292H12.4731L19.5592 27.7535V22.1292H22.9739C24.0907 22.1292 25 21.2266 25 20.1184V7.52691C25 6.41785 24.0915 5.51615 22.9739 5.51615H17.0589C17.0751 5.36827 17.104 5.22465 17.104 5.07252C17.104 2.8238 15.2666 1 13 1ZM13 1.42493C15.0286 1.42493 16.679 3.06091 16.679 5.07167C16.679 7.08244 15.0286 8.71926 13 8.71926C10.9714 8.71926 9.32096 7.08329 9.32096 5.07252C9.32096 3.06176 10.9714 1.42493 13 1.42493ZM22.9731 5.94108C23.8561 5.94108 24.5742 6.65241 24.5742 7.52691V20.1193C24.5742 20.9938 23.8561 21.7051 22.9731 21.7051H19.1334V26.8748L12.6779 21.751L12.6201 21.7051H3.02691C2.14391 21.7051 1.42578 20.9938 1.42578 20.1193V7.52691C1.42578 6.65241 2.14391 5.94108 3.02691 5.94108H8.99547C9.39745 7.77167 11.0351 9.14419 13.0008 9.14419C14.9666 9.14419 16.6042 7.77167 17.0062 5.94108H22.9731Z" fill="#8FAAFF" stroke="#8FAAFF" stroke-width="0.7" stroke-linejoin="round"/>
</svg>
