<svg width="14" height="16" viewBox="0 0 14 16" fill="none" xmlns="http://www.w3.org/2000/svg">
<path d="M13.3054 9.26648C12.9916 9.20381 12.615 9.39184 12.5523 9.70522C11.9247 12.275 9.66525 14.0299 7.02927 14.0299C3.89121 14.0299 1.31799 11.4602 1.31799 8.32633C1.31799 5.1925 3.89121 2.62275 7.02927 2.62275C8.47279 2.62275 9.9163 3.18684 10.9205 4.18967H8.2845C7.9707 4.18967 7.65689 4.44037 7.65689 4.81644C7.65689 5.12982 7.90793 5.4432 8.2845 5.4432H12.1757C12.4895 5.4432 12.8033 5.1925 12.8033 4.81644V0.930478C12.8033 0.617095 12.5523 0.303711 12.1757 0.303711C11.8619 0.303711 11.5481 0.554418 11.5481 0.930478V3.12416C10.2929 1.99598 8.66107 1.36922 6.96651 1.36922C3.13807 1.36922 -1.4771e-08 4.50305 0 8.32633C1.4771e-08 12.1496 3.13807 15.2834 6.96651 15.2834C10.1673 15.2834 12.9288 13.0898 13.7447 10.0186C13.8075 9.70522 13.6192 9.39184 13.3054 9.26648Z" fill="#0F8CFF"/>
</svg>
