<svg width="15" height="15" viewBox="0 0 15 15" fill="none" xmlns="http://www.w3.org/2000/svg">
<path d="M0.571304 6.46717C0.573242 7.59328 0.891024 8.6963 1.4886 9.65112C2.08618 10.6059 2.93964 11.3743 3.95215 11.8692C4.96467 12.364 6.09572 12.5654 7.217 12.4505C8.33829 12.3357 9.40492 11.9092 10.2959 11.2195L13.6128 14.5333C13.757 14.6567 13.9425 14.7212 14.1323 14.7139C14.322 14.7065 14.502 14.628 14.6362 14.4938C14.7705 14.3597 14.8491 14.1799 14.8564 13.9904C14.8638 13.8008 14.7992 13.6155 14.6757 13.4714L11.3588 10.1576C11.9495 9.40039 12.3505 8.51317 12.5285 7.5698C12.7064 6.62644 12.6562 5.65425 12.382 4.7342C12.1077 3.81416 11.6174 2.9729 10.9518 2.28051C10.2863 1.58811 9.46478 1.06461 8.55573 0.753627C7.64667 0.442642 6.6764 0.353168 5.72573 0.492659C4.77506 0.63215 3.87152 0.996568 3.09035 1.55556C2.30919 2.11455 1.67303 2.85193 1.23485 3.70627C0.796679 4.56062 0.569179 5.5072 0.571304 6.46717ZM6.60206 1.94832C7.49664 1.94832 8.37113 2.21334 9.11494 2.70988C9.85876 3.20642 10.4385 3.91217 10.7808 4.73788C11.1232 5.56359 11.2127 6.47218 11.0382 7.34876C10.8637 8.22533 10.4329 9.03051 9.80035 9.66248C9.16779 10.2945 8.36186 10.7248 7.48447 10.8992C6.60708 11.0736 5.69764 10.9841 4.87116 10.642C4.04468 10.3 3.33827 9.72083 2.84127 8.97771C2.34427 8.23459 2.07899 7.36092 2.07899 6.46717C2.07899 5.2687 2.55553 4.11931 3.40377 3.27186C4.25201 2.42441 5.40247 1.94832 6.60206 1.94832Z" fill="#748CAD"/>
</svg>
