<svg width="20" height="20" viewBox="0 0 20 20" fill="none" xmlns="http://www.w3.org/2000/svg">
<path d="M10.2832 20H9.68312L9.3771 19.908C8.63908 19.7066 8.03221 19.1815 7.72701 18.48C7.61945 18.2404 7.48527 18.0136 7.32698 17.804C7.07697 17.472 6.87696 17.404 6.72695 17.404C6.35911 17.3658 5.98764 17.4237 5.64889 17.572C4.73055 17.983 3.65423 17.7897 2.9362 17.085C2.21818 16.3803 2.00491 15.3078 2.39871 14.3821C2.52812 14.0939 2.59623 13.782 2.59872 13.4661C2.61424 13.2951 2.57351 13.1238 2.48271 12.9781C2.24519 12.6588 1.921 12.4145 1.54866 12.2741C1.16228 12.1203 0.822493 11.8687 0.562606 11.5441C0.0579283 10.9472 -0.121496 10.1406 0.0825787 9.38613C0.283587 8.63428 0.826686 8.02083 1.54866 7.73015C1.80226 7.63379 2.03511 7.48988 2.2347 7.30615C2.40658 7.18324 2.53034 7.00434 2.58472 6.80016C2.63975 6.40884 2.58217 6.00995 2.41871 5.65017C2.17342 5.08679 2.15126 4.45129 2.35671 3.8722C2.56403 3.23045 3.03882 2.70975 3.65878 2.44421C4.29619 2.16471 5.02148 2.16471 5.65889 2.44421C5.93497 2.56925 6.236 2.62946 6.53894 2.62021C6.70155 2.62868 6.86265 2.58526 6.99897 2.49621C7.31806 2.25899 7.56184 1.93467 7.70101 1.56222C7.85649 1.1702 8.11157 0.825516 8.44105 0.562236C9.04051 0.0547041 9.85221 -0.123499 10.6092 0.0862415C11.3587 0.29477 11.969 0.839278 12.2613 1.56022C12.3588 1.81428 12.5033 2.04768 12.6873 2.24822C12.8198 2.43334 13.0193 2.55959 13.2433 2.60021C13.6143 2.63828 13.9888 2.57828 14.3294 2.42621C14.899 2.17453 15.5438 2.15232 16.1295 2.36421C16.7666 2.57358 17.2826 3.04729 17.5456 3.6642C17.8248 4.30161 17.8248 5.02676 17.5456 5.66417C17.4211 5.94196 17.3596 6.24383 17.3655 6.54816C17.3531 6.71329 17.3923 6.87821 17.4776 7.02016C17.7253 7.35286 18.0654 7.60534 18.4556 7.74615C18.9322 7.93096 19.3301 8.27512 19.5817 8.72014C19.6858 8.91609 19.7741 9.12007 19.8457 9.33013C19.8717 9.40213 19.8997 9.47613 19.9277 9.54813L19.9537 9.60013L19.9657 9.65812C20.0111 9.88184 20.0111 10.1124 19.9657 10.3361L19.9517 10.4001L19.9257 10.4801C19.9257 10.4981 19.9117 10.5181 19.9057 10.5421C19.7191 11.3534 19.1375 12.0168 18.3576 12.3081C18.0914 12.4153 17.8508 12.5775 17.6516 12.7841C17.5036 12.9032 17.4064 13.0741 17.3795 13.2621C17.3417 13.6305 17.3995 14.0025 17.5476 14.3421C17.7275 14.753 17.7905 15.2056 17.7296 15.6501C17.648 16.4137 17.2005 17.0902 16.5295 17.464C15.853 17.8398 15.0406 17.8812 14.3294 17.576C14.0524 17.4532 13.7523 17.3911 13.4493 17.394C13.2737 17.3794 13.0984 17.426 12.9533 17.526C12.6371 17.776 12.3956 18.1081 12.2553 18.486C12.1181 18.8247 11.903 19.1262 11.6272 19.366C11.2666 19.6692 10.8386 19.8817 10.3792 19.986L10.2832 20ZM9.88313 18.692H10.1131C10.3449 18.6394 10.5618 18.5348 10.7472 18.386C10.8693 18.2809 10.9652 18.1487 11.0272 18C11.2536 17.4049 11.6372 16.8823 12.1373 16.488C12.5109 16.2107 12.9683 16.0695 13.4333 16.088C13.9267 16.0819 14.4154 16.1836 14.8654 16.386C15.2009 16.521 15.5793 16.4975 15.8955 16.322C16.2036 16.1492 16.4053 15.8342 16.4335 15.4821C16.4643 15.2729 16.4352 15.0593 16.3495 14.8661C16.1137 14.3253 16.0194 13.7334 16.0755 13.1461C16.1288 12.6542 16.3583 12.1981 16.7215 11.8621C17.0498 11.5244 17.4458 11.26 17.8836 11.0861C18.2738 10.9436 18.5612 10.6077 18.6416 10.2001C18.6576 10.1441 18.6736 10.0961 18.6876 10.0541C18.6891 10.0341 18.6891 10.0141 18.6876 9.99412C18.6876 9.99412 18.6876 9.97612 18.6876 9.96812C18.6636 9.90612 18.6416 9.84612 18.6196 9.78412C18.5709 9.63922 18.5114 9.49816 18.4416 9.36213C18.3374 9.17723 18.1708 9.03545 17.9716 8.96213C17.3478 8.73003 16.8064 8.31883 16.4155 7.78015C16.1715 7.42026 16.047 6.99275 16.0595 6.55816C16.0518 6.06274 16.1535 5.57173 16.3575 5.12018C16.4773 4.81979 16.4708 4.48374 16.3395 4.18819C16.2268 3.91009 15.9981 3.69523 15.7135 3.6002C15.4381 3.49392 15.132 3.50038 14.8614 3.6182C14.316 3.86016 13.7171 3.95663 13.1233 3.8982C12.5733 3.82894 12.0715 3.5494 11.7232 3.1182C11.429 2.79632 11.1983 2.42175 11.0432 2.01422C10.8982 1.68652 10.6143 1.44079 10.2691 1.34423C9.91735 1.248 9.54075 1.33687 9.26909 1.58022C9.11474 1.70239 8.99538 1.86314 8.92307 2.04622C8.69169 2.64568 8.29412 3.16673 7.77701 3.5482C7.41827 3.79701 6.98935 3.92455 6.55294 3.91219C6.05716 3.91882 5.56583 3.81784 5.11286 3.6162C4.81181 3.49396 4.47406 3.49901 4.17681 3.6302C3.8992 3.74893 3.68782 3.9837 3.59878 4.27219C3.49488 4.54517 3.50134 4.84788 3.61678 5.11618C3.87661 5.69728 3.96808 6.33964 3.88079 6.97016C3.79152 7.4821 3.52016 7.94452 3.11675 8.27214C2.79545 8.56761 2.42073 8.79908 2.01269 8.95413C1.68412 9.09793 1.43895 9.38357 1.34665 9.73013C1.25239 10.0829 1.34352 10.4594 1.58866 10.7301C1.70829 10.8809 1.86559 10.9975 2.04469 11.0681C2.64041 11.2973 3.15957 11.6896 3.54277 12.2001C3.80043 12.5692 3.93036 13.0123 3.91279 13.4621C3.91027 13.9552 3.8068 14.4425 3.60878 14.8941C3.43153 15.3258 3.53589 15.822 3.87205 16.1458C4.20821 16.4696 4.70801 16.5553 5.13286 16.362C5.67452 16.1269 6.26745 16.0346 6.85496 16.094C7.46849 16.1671 8.02014 16.5028 8.36704 17.014C8.58517 17.3028 8.7697 17.6155 8.91707 17.946C9.06843 18.3007 9.37833 18.5631 9.75312 18.654L9.88313 18.692ZM9.98713 14.0921C7.73051 14.0877 5.9038 12.2566 5.90491 10.0001C5.9082 7.74832 7.73119 5.92278 9.98313 5.91617C12.2374 5.91948 14.0641 7.74599 14.0674 10.0001C14.0652 12.2485 12.2476 14.0731 9.99914 14.0841H9.97913L9.98713 14.0921ZM9.98713 7.23215C8.86345 7.23337 7.85148 7.91227 7.42427 8.95151C6.99707 9.99075 7.23902 11.185 8.03703 11.9761C8.55341 12.4911 9.25381 12.779 9.98313 12.7761H9.99914C11.5257 12.7662 12.7582 11.5266 12.7593 10.0001C12.7571 8.47025 11.5191 7.22966 9.98913 7.22416L9.98713 7.23215Z" fill="#8FA9FF"/>
</svg>
