<svg width="80" height="100" viewBox="0 0 80 100" fill="none" xmlns="http://www.w3.org/2000/svg">
<path d="M64.0022 10.6021H6.18918C2.77098 10.6021 0 13.3694 0 16.783V93.6842C0 97.0977 2.77098 99.865 6.18918 99.865H64.0022C67.4202 99.865 70.1914 97.0977 70.1914 93.6842V16.783C70.1914 13.3694 67.4202 10.6021 64.0022 10.6021Z" fill="#E69871"/>
<path d="M6.86035 17.9761H63.3304V92.4911H6.86035V17.9761Z" fill="#EBF0F3"/>
<path d="M50.4051 7.55271H44.5687C43.5027 7.55271 42.6387 6.68972 42.6387 5.62523V1.9274C42.6387 0.862915 41.7747 0 40.7087 0H29.4828C28.4168 0 27.5528 0.862915 27.5528 1.9274V5.62523C27.5528 6.68972 26.6888 7.55271 25.6228 7.55271H19.7864C18.7204 7.55271 17.8564 8.41563 17.8564 9.48011V20.6551C17.8564 21.7196 18.7204 22.5826 19.7864 22.5826H50.4051C51.4711 22.5826 52.3351 21.7196 52.3351 20.6551V9.48011C52.3351 8.41563 51.4711 7.55271 50.4051 7.55271Z" fill="#FCD462"/>
<path d="M47.6465 40.6425C47.6465 44.2709 46.0912 47.5555 43.6053 49.8472C41.3744 51.9097 38.3784 53.17 35.0893 53.17C31.8003 53.17 28.817 51.9097 26.5861 49.8599C24.1002 47.5683 22.5449 44.2836 22.5449 40.6425C22.5449 33.7167 28.1669 28.115 35.0893 28.115C42.0246 28.115 47.6465 33.7167 47.6465 40.6425Z" fill="#E56353"/>
<path d="M38.0684 42.5538L37.2977 42.071H32.8896L32.1176 42.5593L31.6592 43.2411L32.6578 44.4378C32.6578 44.4378 33.7229 45.2622 33.8294 45.2622C33.936 45.2622 34.8547 45.3952 34.9345 45.3952C35.0144 45.3952 35.7334 45.475 35.9731 45.342C36.2127 45.209 36.7054 44.8633 36.8252 44.8234C36.945 44.7835 37.7705 43.999 37.8105 43.9459C37.8504 43.8927 38.3599 42.9087 38.3599 42.9087L38.0684 42.5538Z" fill="#F7BE56"/>
<path d="M32.8896 37.8H37.2977V43.7889H32.8896V37.8Z" fill="#F7BE56"/>
<path d="M43.6052 48.2686V49.8473C41.3742 51.9097 38.3782 53.1701 35.0892 53.1701C31.8002 53.1701 28.8169 51.9097 26.5859 49.86V48.2686C26.5859 47.1482 27.0067 46.0661 27.7716 45.2258C28.1031 44.8566 28.4982 44.5383 28.9445 44.2964L31.3921 42.9597L31.5197 42.896C31.5708 42.9851 31.6344 43.0869 31.6981 43.1761C31.8257 43.3925 31.9785 43.5962 32.1316 43.8C32.3865 44.1309 32.6797 44.4365 32.9984 44.7038C33.024 44.7166 33.0495 44.7293 33.075 44.7548C33.1516 44.8057 33.2152 44.8566 33.2916 44.9076C33.572 45.0857 33.8782 45.2258 34.2095 45.3022C34.235 45.3149 34.2478 45.3149 34.2733 45.3149C34.4518 45.3659 34.643 45.3914 34.8343 45.3914H34.9107H34.9362C35.7521 45.3786 36.5298 45.0476 37.18 44.5383C37.384 44.3728 37.5752 44.1946 37.7536 43.9909C37.7791 43.9654 37.8046 43.9272 37.8429 43.889C37.8429 43.889 37.8557 43.8763 37.8684 43.8509C38.1233 43.5581 38.3273 43.2398 38.4803 42.9088C38.4931 42.8705 38.5058 42.8451 38.5186 42.8069L38.7863 42.9597L41.2466 44.2964C41.6802 44.5383 42.0882 44.8566 42.4195 45.2258C43.1844 46.0661 43.6052 47.1482 43.6052 48.2686Z" fill="#27A2DB"/>
<path d="M38.8223 36.8624C38.8569 36.3836 38.6983 35.982 38.4681 35.9654C38.2378 35.9488 38.0231 36.3235 37.9885 36.8023C37.9538 37.2811 38.1124 37.6827 38.3427 37.6993C38.5729 37.7159 38.7876 37.3412 38.8223 36.8624Z" fill="#FCD462"/>
<path d="M31.8318 37.5954C32.0621 37.5788 32.2207 37.1772 32.186 36.6984C32.1514 36.2196 31.9367 35.8449 31.7064 35.8615C31.4762 35.8781 31.3176 36.2797 31.3522 36.7585C31.3869 37.2373 31.6016 37.612 31.8318 37.5954Z" fill="#FCD462"/>
<path d="M38.327 37.6934L38.1971 33.8641L37.7424 32.6293L35.0853 31.9136L32.4281 32.6293L31.9735 33.8641L31.8436 37.6934C31.8436 37.6934 31.692 38.624 32.0384 39.3039C32.3848 39.9839 32.7096 40.2944 33.1643 40.7476C33.6189 41.2007 34.2133 41.3413 35.0853 41.3694C35.9573 41.3413 36.5516 41.2007 37.0063 40.7476C37.4609 40.2944 37.7857 39.9839 38.1321 39.3039C38.4785 38.624 38.327 37.6934 38.327 37.6934Z" fill="#FCD462"/>
<path d="M38.5191 42.8069L38.4042 42.7432L38.0727 42.5522C37.8561 44.0036 36.6068 45.1112 35.0897 45.1112C33.5853 45.1112 32.3359 44.0036 32.1193 42.565L31.7879 42.7432L31.5202 42.896L31.3926 42.9597C31.7879 44.6402 33.2921 45.8878 35.0897 45.8878C36.9 45.8878 38.4042 44.6402 38.7867 42.9597L38.5191 42.8069Z" fill="#EBF0F3"/>
<path d="M37.6607 32.0589C37.6607 32.0589 37.5314 30.6142 35.5144 30.6367C33.4974 30.6593 31.7391 31.3591 31.3771 32.42C31.015 33.481 31.1185 34.6322 31.5063 35.7609C31.8942 36.8896 31.8425 37.5442 31.8425 37.5442H32.2045C32.2045 37.5442 31.8684 36.4381 32.2045 35.1063C32.2045 35.1063 31.765 33.7293 32.6958 33.3907C33.583 33.068 33.7909 33.7887 34.7484 33.6229C34.5657 33.9299 34.241 34.1618 34.241 34.1618C35.09 34.2349 36.1001 33.4308 36.1001 33.4308C35.8805 34.0741 34.9729 34.498 34.9729 34.498C36.5762 34.2728 37.0849 33.3328 37.1987 33.0655C37.2893 33.0817 37.3676 33.1123 37.428 33.165C37.8158 33.5036 38.1003 34.2259 37.8676 34.6322C37.6348 35.0386 38.5399 35.8286 38.1262 37.5442H38.4106C38.4106 37.5442 38.2296 36.8896 38.7726 35.5126C39.3156 34.1356 39.057 31.9234 37.6607 32.0589Z" fill="#2F4859"/>
<path d="M16.626 60.7476H53.5659V62.8034H16.626V60.7476Z" fill="#D5D6DB"/>
<path d="M16.626 67.9219H53.5659V69.9777H16.626V67.9219Z" fill="#D5D6DB"/>
<path d="M16.626 75.0959H53.5659V77.1518H16.626V75.0959Z" fill="#D5D6DB"/>
<path d="M16.626 82.2703H53.5659V84.3261H16.626V82.2703Z" fill="#D5D6DB"/>
<path d="M65 88.8799C73.2843 88.8799 80 82.1733 80 73.9002C80 65.6271 73.2843 58.9204 65 58.9204C56.7157 58.9204 50 65.6271 50 73.9002C50 82.1733 56.7157 88.8799 65 88.8799Z" fill="#00DD80"/>
<path d="M61.167 80.6575L68.8799 88.36C75.2679 86.6588 79.9998 80.8465 79.9998 73.9C79.9998 73.7583 79.9998 73.6165 79.9998 73.4747L73.943 67.8987L61.167 80.6575Z" fill="#00AA63"/>
<path d="M65.3782 77.2555C66.0406 77.9171 66.0406 79.0512 65.3782 79.7127L64.0059 81.0831C63.3435 81.7447 62.2078 81.7447 61.5454 81.0831L55.5359 75.0345C54.8734 74.3729 54.8734 73.2388 55.5359 72.5773L56.9081 71.2069C57.5706 70.5453 58.7063 70.5453 59.3687 71.2069L65.3782 77.2555Z" fill="white"/>
<path d="M70.6306 66.8121C71.293 66.1505 72.4287 66.1505 73.0911 66.8121L74.4634 68.1825C75.1258 68.844 75.1258 69.9782 74.4634 70.6397L64.0533 80.9885C63.3908 81.6501 62.2552 81.6501 61.5927 80.9885L60.2205 79.6181C59.558 78.9566 59.558 77.8225 60.2205 77.1609L70.6306 66.8121Z" fill="white"/>
</svg>
