<svg width="20" height="15" viewBox="0 0 20 15" fill="none" xmlns="http://www.w3.org/2000/svg">
<path d="M16.7149 8.87588C16.3954 8.55635 15.8774 8.55635 15.5579 8.87588C15.2383 9.1954 15.2383 9.71342 15.5579 10.033L16.2066 10.6817H1.81818C1.36633 10.6817 1 11.048 1 11.4998C1 11.9517 1.36633 12.318 1.81818 12.318H16.2066L15.5578 12.9667C15.2383 13.2863 15.2383 13.8043 15.5578 14.1238C15.7176 14.2836 15.927 14.3635 16.1363 14.3635C16.3457 14.3635 16.5551 14.2836 16.7149 14.1238L18.7603 12.0784C19.0799 11.7588 19.0799 11.2408 18.7603 10.9213L16.7149 8.87588Z" fill="white" stroke="#18379A" stroke-width="0.5"/>
<path d="M3.28507 1.23965C3.6046 0.920118 4.12262 0.920118 4.44214 1.23965C4.76167 1.55917 4.76167 2.07719 4.44214 2.39672L3.79344 3.04543H18.1818C18.6337 3.04543 19 3.41176 19 3.86361C19 4.31547 18.6337 4.6818 18.1818 4.6818H3.79344L4.4422 5.33051C4.76173 5.65003 4.76173 6.16805 4.4422 6.48758C4.28244 6.64734 4.07304 6.72725 3.86369 6.72725C3.65429 6.72725 3.44489 6.6474 3.28513 6.48758L1.23967 4.44212C0.920145 4.1226 0.920145 3.60458 1.23967 3.28505L3.28507 1.23965Z" fill="white" stroke="#18379A" stroke-width="0.5"/>
</svg>
