<svg width="15" height="15" viewBox="0 0 15 15" fill="none" xmlns="http://www.w3.org/2000/svg">
<path d="M14.4508 1.78348H10.6439V0.882353C10.6439 0.394243 10.1705 0 9.58333 0H5.41667C4.81061 0 4.35606 0.394243 4.35606 0.882353V1.78348H0.549243C0.246212 1.78348 0 2.02753 0 2.32791C0 2.62829 0.246212 2.87234 0.549243 2.87234H1.43939L2.27273 12.9725C2.27273 14.0801 3.20076 15 4.33712 15H10.6629C11.7992 15 12.7273 14.0989 12.7273 12.9912L13.5606 2.85357H14.4508C14.7538 2.85357 15 2.60951 15 2.30914C15 2.00876 14.7538 1.78348 14.4508 1.78348ZM5.43561 1.80225V1.08886H9.56439V1.80225H5.43561ZM12.4621 2.85357L11.6477 12.9161V12.9537C11.6477 13.4793 11.1932 13.9299 10.6629 13.9299H4.31818C3.78788 13.9299 3.33333 13.4793 3.33333 12.9349L2.5 2.85357H12.4621Z" fill="#FF5B5B"/>
<path fill-rule="evenodd" clip-rule="evenodd" d="M5.42533 10.3461C5.26242 10.1854 5.26242 9.92423 5.4245 9.76357L7.0298 8.16672L5.4245 6.56993C5.26242 6.40845 5.26242 6.1481 5.42533 5.98662C5.58824 5.82678 5.8509 5.82678 6.01298 5.98826L7.61641 7.5832L9.21969 5.98837C9.38177 5.82688 9.64359 5.82688 9.8065 5.9859C9.96941 6.14739 9.96941 6.40774 9.80733 6.56923L8.20257 8.16624L9.8082 9.76336C9.97028 9.92402 9.97028 10.1852 9.80737 10.3459C9.64528 10.5065 9.3818 10.5057 9.21971 10.345L7.61608 8.7499L6.01298 10.3453C5.85089 10.5059 5.58741 10.5067 5.42533 10.3461Z" fill="#FF5B5B"/>
<path d="M5.4245 9.76357L5.6005 9.94112L5.60081 9.94081L5.4245 9.76357ZM5.42533 10.3461L5.60133 10.1685L5.60087 10.1681L5.42533 10.3461ZM7.0298 8.16672L7.20611 8.34397L7.38429 8.16672L7.2061 7.98948L7.0298 8.16672ZM5.4245 6.56993L5.24805 6.74704L5.24819 6.74718L5.4245 6.56993ZM5.42533 5.98662L5.25024 5.80816L5.24933 5.80906L5.42533 5.98662ZM6.01298 5.98826L5.83653 6.16537L5.83667 6.16551L6.01298 5.98826ZM7.61641 7.5832L7.44011 7.76044L7.61642 7.93582L7.79272 7.76044L7.61641 7.5832ZM9.21969 5.98837L9.39599 6.16561L9.39614 6.16547L9.21969 5.98837ZM9.8065 5.9859L9.98251 5.80834L9.98113 5.807L9.8065 5.9859ZM9.80733 6.56923L9.98368 6.74644L9.98379 6.74633L9.80733 6.56923ZM8.20257 8.16624L8.02622 7.98904L7.84811 8.16628L8.02626 8.34349L8.20257 8.16624ZM9.8082 9.76336L9.63189 9.94061L9.6322 9.94092L9.8082 9.76336ZM9.80737 10.3459L9.63182 10.1679L9.63137 10.1683L9.80737 10.3459ZM9.21971 10.345L9.04341 10.5223L9.04372 10.5226L9.21971 10.345ZM7.61608 8.7499L7.79238 8.57265L7.61604 8.39724L7.43973 8.57269L7.61608 8.7499ZM6.01298 10.3453L6.18897 10.5228L6.18932 10.5225L6.01298 10.3453ZM5.2485 9.58601C4.98767 9.84456 4.98768 10.2656 5.24978 10.5241L5.60087 10.1681C5.53716 10.1052 5.53716 10.0039 5.6005 9.94112L5.2485 9.58601ZM6.85349 7.98948L5.24819 9.58632L5.60081 9.94081L7.20611 8.34397L6.85349 7.98948ZM7.2061 7.98948L5.6008 6.39269L5.24819 6.74718L6.85349 8.34397L7.2061 7.98948ZM5.60095 6.39283C5.53701 6.32913 5.537 6.22793 5.60132 6.16417L5.24933 5.80906C4.98783 6.06827 4.98782 6.48777 5.24805 6.74704L5.60095 6.39283ZM5.60041 6.16507C5.6662 6.10053 5.77211 6.10118 5.83653 6.16537L6.18943 5.81116C5.92969 5.55238 5.51029 5.55303 5.25025 5.80816L5.60041 6.16507ZM5.83667 6.16551L7.44011 7.76044L7.79272 7.40595L6.18929 5.81102L5.83667 6.16551ZM9.04338 5.81113L7.4401 7.40595L7.79272 7.76044L9.39599 6.16561L9.04338 5.81113ZM9.98113 5.807C9.72113 5.55321 9.3029 5.55256 9.04323 5.81127L9.39614 6.16547C9.46064 6.10121 9.56605 6.10055 9.63188 6.1648L9.98113 5.807ZM9.98379 6.74633C10.244 6.48706 10.244 6.06756 9.9825 5.80835L9.6305 6.16345C9.69483 6.22721 9.69482 6.32843 9.63088 6.39213L9.98379 6.74633ZM8.37892 8.34345L9.98368 6.74644L9.63098 6.39203L8.02622 7.98904L8.37892 8.34345ZM8.02626 8.34349L9.63189 9.94061L9.9845 9.58612L8.37887 7.989L8.02626 8.34349ZM9.6322 9.94092C9.69553 10.0037 9.69554 10.105 9.63182 10.1679L9.98291 10.5239C10.245 10.2654 10.245 9.84435 9.98419 9.58581L9.6322 9.94092ZM9.63137 10.1683C9.56738 10.2317 9.46099 10.2322 9.39571 10.1675L9.04372 10.5226C9.3026 10.7792 9.72319 10.7813 9.98336 10.5234L9.63137 10.1683ZM9.39602 10.1678L7.79238 8.57265L7.43977 8.92714L9.04341 10.5223L9.39602 10.1678ZM6.18932 10.5225L7.79243 8.9271L7.43973 8.57269L5.83663 10.168L6.18932 10.5225ZM5.24933 10.5236C5.50951 10.7815 5.93009 10.7794 6.18897 10.5228L5.83698 10.1677C5.7717 10.2324 5.66531 10.232 5.60133 10.1685L5.24933 10.5236Z" fill="#FF5B5B"/>
</svg>
