<svg width="13" height="13" viewBox="0 0 13 13" fill="none" xmlns="http://www.w3.org/2000/svg">
<path d="M9.89941 2.24944C9.81582 2.17215 9.68974 2.11229 9.57596 2.1088L5.86337 1.99621C5.63179 2.00858 5.35265 2.19722 5.34306 2.46027C5.33359 2.71937 5.57966 2.95745 5.83875 2.94899L8.44741 3.02641L2.2494 9.22442C2.06301 9.41081 2.06301 9.71303 2.24941 9.89943C2.43581 10.0858 2.73803 10.0858 2.92442 9.89945L9.12244 3.70143L9.19985 6.31009C9.20005 6.54063 9.42936 6.81251 9.68857 6.80579C9.94774 6.7991 10.1497 6.51647 10.1526 6.28546L10.04 2.57289C10.0362 2.44584 9.98941 2.33903 9.89941 2.24944Z" fill="#10B683"/>
</svg>
