<svg width="16" height="16" viewBox="0 0 16 16" fill="none" xmlns="http://www.w3.org/2000/svg">
<path d="M5.40326 7.68353L7.62046 5.46594L7.62046 11.4512C7.62046 11.6609 7.79028 11.8311 8.00038 11.8311C8.21047 11.8311 8.3803 11.6609 8.3803 11.4512V5.46746L10.5967 7.68391C10.7453 7.83246 10.9854 7.83246 11.1339 7.68391C11.2825 7.53536 11.2825 7.29525 11.1339 7.1467L8.27088 4.28364C8.23555 4.24754 8.19338 4.21867 8.14551 4.19891C8.11701 4.18714 8.08548 4.18524 8.05433 4.1803C8.03609 4.17764 8.01937 4.16966 8.00038 4.16966H7.99962C7.94871 4.16966 7.89894 4.17992 7.85297 4.19929C7.8317 4.20803 7.81574 4.22437 7.79712 4.23691C7.77471 4.25134 7.75001 4.26198 7.73102 4.28098L4.86605 7.14632C4.7175 7.29487 4.7175 7.53498 4.86605 7.68353C5.0146 7.83208 5.25471 7.8317 5.40326 7.68353ZM8.00038 15C11.86 15 15 11.86 15 8C15 4.14041 11.86 1 8.00038 1C4.14041 1 1 4.14041 1 8C1 11.86 4.14003 15 8.00038 15ZM8.00038 1.76022C11.4409 1.76022 14.2402 4.55946 14.2402 8.00038C14.2402 11.4413 11.4409 14.2405 8.00038 14.2405C4.55908 14.2405 1.75984 11.4413 1.75984 8.00038C1.75984 4.55946 4.55908 1.76022 8.00038 1.76022Z" fill="#0F8CFF" stroke="#0F8CFF" stroke-width="0.6"/>
</svg>
