<svg width="30" height="30" viewBox="0 0 30 30" fill="none" xmlns="http://www.w3.org/2000/svg">
<circle cx="15" cy="15" r="15" fill="white"/>
<mask id="mask0" mask-type="alpha" maskUnits="userSpaceOnUse" x="0" y="0" width="30" height="30">
<circle cx="15" cy="15" r="15" fill="#FFC107"/>
<circle cx="15" cy="15" r="15" fill="#FFC107"/>
<circle cx="15" cy="15" r="15" fill="#FFC107"/>
</mask>
<g mask="url(#mask0)">
<circle cx="15" cy="15" r="15" fill="#F4D3FF"/>
<path d="M14.7278 19.7843C10.8445 19.7843 7.71637 17.573 7.71637 14.8763V10.3458C7.71637 8.83569 9.49619 7.59521 11.7075 7.59521H17.802C20.0133 7.59521 21.7931 8.83569 21.7931 10.3458V14.8763C21.7392 17.573 18.611 19.7843 14.7278 19.7843Z" fill="#414042"/>
<path d="M12.4626 21.9416C13.1477 21.9416 13.7031 21.3862 13.7031 20.7011C13.7031 20.016 13.1477 19.4606 12.4626 19.4606C11.7775 19.4606 11.2222 20.016 11.2222 20.7011C11.2222 21.3862 11.7775 21.9416 12.4626 21.9416Z" fill="#414042"/>
<path d="M11.0063 20.7012C11.6914 20.7012 12.2468 20.1458 12.2468 19.4607C12.2468 18.7756 11.6914 18.2202 11.0063 18.2202C10.3212 18.2202 9.76587 18.7756 9.76587 19.4607C9.76587 20.1458 10.3212 20.7012 11.0063 20.7012Z" fill="#414042"/>
<path d="M20.1212 18.9213C20.8063 18.9213 21.3617 18.3659 21.3617 17.6808C21.3617 16.9957 20.8063 16.4403 20.1212 16.4403C19.4361 16.4403 18.8807 16.9957 18.8807 17.6808C18.8807 18.3659 19.4361 18.9213 20.1212 18.9213Z" fill="#414042"/>
<path d="M19.0965 20.7551C19.7816 20.7551 20.337 20.1997 20.337 19.5146C20.337 18.8296 19.7816 18.2742 19.0965 18.2742C18.4114 18.2742 17.856 18.8296 17.856 19.5146C17.856 20.1997 18.4114 20.7551 19.0965 20.7551Z" fill="#414042"/>
<path d="M17.2088 21.726C17.8939 21.726 18.4493 21.1706 18.4493 20.4855C18.4493 19.8004 17.8939 19.2451 17.2088 19.2451C16.5237 19.2451 15.9683 19.8004 15.9683 20.4855C15.9683 21.1706 16.5237 21.726 17.2088 21.726Z" fill="#414042"/>
<path d="M14.512 23.0203C15.6141 23.0203 16.5075 22.1269 16.5075 21.0248C16.5075 19.9227 15.6141 19.0292 14.512 19.0292C13.4099 19.0292 12.5164 19.9227 12.5164 21.0248C12.5164 22.1269 13.4099 23.0203 14.512 23.0203Z" fill="#414042"/>
<path d="M10.0355 19.191C10.7206 19.191 11.2759 18.6357 11.2759 17.9506C11.2759 17.2655 10.7206 16.7101 10.0355 16.7101C9.35036 16.7101 8.79498 17.2655 8.79498 17.9506C8.79498 18.6357 9.35036 19.191 10.0355 19.191Z" fill="#414042"/>
<path d="M8.57934 17.4113C9.26444 17.4113 9.81982 16.8559 9.81982 16.1708C9.81982 15.4857 9.26444 14.9303 8.57934 14.9303C7.89425 14.9303 7.33887 15.4857 7.33887 16.1708C7.33887 16.8559 7.89425 17.4113 8.57934 17.4113Z" fill="#414042"/>
<path d="M7.60852 15.1998C8.29362 15.1998 8.849 14.6444 8.849 13.9593C8.849 13.2743 8.29362 12.7189 7.60852 12.7189C6.92342 12.7189 6.36804 13.2743 6.36804 13.9593C6.36804 14.6444 6.92342 15.1998 7.60852 15.1998Z" fill="#414042"/>
<path d="M8.03998 12.9885C8.72507 12.9885 9.28046 12.4331 9.28046 11.748C9.28046 11.063 8.72507 10.5076 8.03998 10.5076C7.35488 10.5076 6.7995 11.063 6.7995 11.748C6.7995 12.4331 7.35488 12.9885 8.03998 12.9885Z" fill="#414042"/>
<path d="M8.03998 10.9392C8.72507 10.9392 9.28046 10.3838 9.28046 9.69873C9.28046 9.01363 8.72507 8.45825 8.03998 8.45825C7.35488 8.45825 6.7995 9.01363 6.7995 9.69873C6.7995 10.3838 7.35488 10.9392 8.03998 10.9392Z" fill="#414042"/>
<path d="M8.57934 9.69873C9.26444 9.69873 9.81982 9.14335 9.81982 8.45825C9.81982 7.77315 9.26444 7.21777 8.57934 7.21777C7.89425 7.21777 7.33887 7.77315 7.33887 8.45825C7.33887 9.14335 7.89425 9.69873 8.57934 9.69873Z" fill="#414042"/>
<path d="M21.0381 17.4113C21.7232 17.4113 22.2786 16.8559 22.2786 16.1708C22.2786 15.4857 21.7232 14.9303 21.0381 14.9303C20.3531 14.9303 19.7977 15.4857 19.7977 16.1708C19.7977 16.8559 20.3531 17.4113 21.0381 17.4113Z" fill="#414042"/>
<path d="M21.9009 15.1999C22.6456 15.1999 23.2492 14.5963 23.2492 13.8516C23.2492 13.1069 22.6456 12.5032 21.9009 12.5032C21.1562 12.5032 20.5526 13.1069 20.5526 13.8516C20.5526 14.5963 21.1562 15.1999 21.9009 15.1999Z" fill="#414042"/>
<path d="M21.5774 12.9885C22.2625 12.9885 22.8179 12.4331 22.8179 11.748C22.8179 11.063 22.2625 10.5076 21.5774 10.5076C20.8923 10.5076 20.3369 11.063 20.3369 11.748C20.3369 12.4331 20.8923 12.9885 21.5774 12.9885Z" fill="#414042"/>
<path d="M21.5774 10.9392C22.2625 10.9392 22.8179 10.3838 22.8179 9.69873C22.8179 9.01363 22.2625 8.45825 21.5774 8.45825C20.8923 8.45825 20.3369 9.01363 20.3369 9.69873C20.3369 10.3838 20.8923 10.9392 21.5774 10.9392Z" fill="#414042"/>
<path d="M20.7145 9.53686C21.3996 9.53686 21.955 8.98148 21.955 8.29639C21.955 7.61129 21.3996 7.05591 20.7145 7.05591C20.0294 7.05591 19.474 7.61129 19.474 8.29639C19.474 8.98148 20.0294 9.53686 20.7145 9.53686Z" fill="#414042"/>
<path d="M23.2493 13.8516C23.2493 13.3122 22.9257 12.8268 22.4403 12.6111C22.6561 12.3954 22.8179 12.0718 22.8179 11.7482C22.8179 11.3167 22.6021 10.9391 22.2785 10.7234C22.6021 10.5077 22.8179 10.1301 22.8179 9.69867C22.8179 9.15933 22.4403 8.67392 21.901 8.51212C21.901 8.45819 21.901 8.35032 21.901 8.29639C21.901 7.59525 21.3616 7.05591 20.7144 7.05591C20.1751 7.05591 19.7436 7.37951 19.5818 7.86492C19.0425 7.70311 18.4492 7.54131 17.802 7.54131H11.7075C10.467 7.54131 9.3344 7.97278 8.63326 8.56606C8.47146 8.45819 8.25573 8.40425 8.09392 8.40425C7.39278 8.40425 6.85345 8.94359 6.85345 9.64473C6.85345 10.0762 7.06918 10.4537 7.39278 10.6695C7.06918 10.8852 6.85345 11.2627 6.85345 11.6942C6.85345 12.1257 7.06918 12.5032 7.39278 12.719C6.79951 12.8268 6.36804 13.3122 6.36804 13.9055C6.36804 14.6066 6.90738 15.146 7.60852 15.146C7.66245 15.146 7.71639 15.146 7.77032 15.146V15.1999C7.50065 15.4157 7.33885 15.7393 7.33885 16.1168C7.33885 16.8179 7.87819 17.3573 8.57933 17.3573C8.63326 17.3573 8.6872 17.3573 8.6872 17.3573C8.74113 17.4112 8.79506 17.5191 8.849 17.573C8.79506 17.6809 8.79506 17.8427 8.79506 17.9505C8.79506 18.5438 9.22653 19.0832 9.81981 19.1371C9.76587 19.245 9.76587 19.3528 9.76587 19.4607C9.76587 20.1618 10.3052 20.7012 11.0064 20.7012C11.1142 20.7012 11.1682 20.7012 11.276 20.7012C11.276 20.7012 11.276 20.7012 11.276 20.7551C11.276 21.4562 11.8154 21.9956 12.5165 21.9956C12.6244 21.9956 12.6783 21.9956 12.7862 21.9416C13.1098 22.5889 13.8109 23.0743 14.566 23.0743C15.5368 23.0743 16.3458 22.3731 16.5076 21.5102C16.7233 21.672 16.9391 21.7798 17.2627 21.7798C17.9099 21.7798 18.4492 21.2405 18.5032 20.5933C18.665 20.7012 18.9346 20.7551 19.1504 20.7551C19.8515 20.7551 20.3908 20.2158 20.3908 19.5146C20.3908 19.2989 20.3369 19.0832 20.229 18.9214C20.8762 18.9214 21.4156 18.382 21.4156 17.6809C21.4156 17.573 21.4156 17.4651 21.3616 17.3573C21.901 17.2494 22.3325 16.764 22.3325 16.1707C22.3325 15.7932 22.1707 15.4157 21.847 15.1999C21.901 15.1999 21.901 15.1999 21.9549 15.1999C22.6561 15.1999 23.2493 14.6066 23.2493 13.8516ZM17.8559 19.245C17.8559 19.2989 17.8559 19.3528 17.8559 19.4068C17.802 19.3528 17.6941 19.3528 17.6402 19.2989C17.7481 19.2989 17.802 19.2989 17.8559 19.245ZM16.3458 19.6225C16.2919 19.6764 16.2379 19.7304 16.184 19.8382C16.1301 19.7843 16.0761 19.7304 16.0761 19.6764C16.1301 19.6764 16.2379 19.6764 16.3458 19.6225ZM13.0558 19.6225C13.0558 19.6225 13.0019 19.6225 13.0558 19.6225C13.0019 19.6225 13.0558 19.6225 13.0558 19.6225ZM12.4086 19.5146C12.3547 19.5146 12.3008 19.5146 12.2468 19.5146C12.2468 19.5146 12.2468 19.5146 12.2468 19.4607C12.3008 19.4607 12.3547 19.4607 12.4086 19.5146Z" fill="#414042"/>
<path d="M21.6852 14.6066C21.6852 14.1751 21.4156 13.7976 21.038 13.6358C21.1998 13.474 21.3077 13.2043 21.3077 12.9347C21.3077 12.611 21.1459 12.2874 20.8762 12.1256C21.1459 11.9638 21.3077 11.6402 21.3077 11.3166C21.3077 10.8852 20.9841 10.5076 20.6066 10.3998C20.6066 10.3458 20.6066 10.2919 20.6066 10.238C20.6066 9.69862 20.1751 9.26715 19.6358 9.26715C19.2043 9.26715 18.8807 9.53682 18.7189 9.91436C18.2874 9.75256 17.802 9.69862 17.3166 9.69862H12.4626C11.4378 9.69862 10.5749 10.0222 9.9816 10.5076C9.87373 10.4537 9.71193 10.3998 9.55013 10.3998C9.01079 10.3998 8.57932 10.8312 8.57932 11.3706C8.57932 11.6942 8.74112 12.0178 9.01079 12.1796C8.74112 12.3414 8.57932 12.665 8.57932 12.9886C8.57932 13.3122 8.74112 13.6358 9.01079 13.7976C8.52539 13.8515 8.20178 14.283 8.20178 14.7684C8.20178 15.3077 8.63325 15.7392 9.17259 15.7392C9.22652 15.7392 9.28046 15.7392 9.28046 15.7392V15.7931C9.06472 15.9549 8.95686 16.2246 8.95686 16.4943C8.95686 17.0336 9.38833 17.4651 9.92766 17.4651C9.9816 17.4651 9.9816 17.4651 10.0355 17.4651C10.0895 17.519 10.1434 17.573 10.1973 17.6269C10.1434 17.7348 10.1434 17.8426 10.1434 17.9505C10.1434 18.4359 10.5209 18.8134 10.9524 18.9213C10.9524 19.0292 10.8985 19.0831 10.8985 19.191C10.8985 19.7303 11.3299 20.1618 11.8693 20.1618C11.9232 20.1618 11.9771 20.1618 12.085 20.1618C12.085 20.1618 12.085 20.1618 12.085 20.2157C12.085 20.7551 12.5165 21.1865 13.0558 21.1865C13.1098 21.1865 13.2176 21.1865 13.2716 21.1865C13.5412 21.7259 14.0806 22.1034 14.7278 22.1034C15.4829 22.1034 16.1301 21.5641 16.2919 20.8629C16.4537 20.9708 16.6694 21.0787 16.8851 21.0787C17.4245 21.0787 17.8559 20.6472 17.8559 20.1618C18.0177 20.2697 18.1795 20.3236 18.3413 20.3236C18.8807 20.3236 19.3122 19.8921 19.3122 19.3528C19.3122 19.191 19.2582 19.0292 19.2043 18.8674C19.7436 18.8674 20.1751 18.4359 20.1751 17.8966C20.1751 17.7887 20.1751 17.7348 20.1212 17.6269C20.5526 17.519 20.9302 17.1415 20.9302 16.6561C20.9302 16.3325 20.7684 16.0628 20.5526 15.901C20.6066 15.901 20.6066 15.901 20.6605 15.901C21.1998 15.6853 21.6852 15.1999 21.6852 14.6066ZM17.4245 18.9213C17.4245 18.9752 17.4245 19.0292 17.4245 19.0831C17.3705 19.0292 17.3166 19.0292 17.2627 18.9752C17.3166 18.9752 17.3705 18.9213 17.4245 18.9213ZM16.184 19.2449C16.1301 19.2988 16.0761 19.3528 16.0761 19.4067C16.0222 19.3528 16.0222 19.2988 15.9683 19.2988C16.0222 19.2449 16.0761 19.2449 16.184 19.2449ZM13.0558 19.137C13.0019 19.137 12.948 19.137 12.894 19.137C12.894 19.137 12.894 19.137 12.894 19.0831C12.948 19.0831 13.0019 19.0831 13.0558 19.137Z" fill="#231F20"/>
<path d="M19.7976 9.69873C20.4827 9.69873 21.0381 9.14335 21.0381 8.45825C21.0381 7.77315 20.4827 7.21777 19.7976 7.21777C19.1125 7.21777 18.5571 7.77315 18.5571 8.45825C18.5571 9.14335 19.1125 9.69873 19.7976 9.69873Z" fill="#414042"/>
<path d="M23.5191 34.616H6.26025V30.9485C6.26025 26.2023 10.1435 22.3191 14.8897 22.3191C19.6358 22.3191 23.5191 26.2023 23.5191 30.9485V34.616Z" fill="#B43D5A"/>
<path d="M15.3211 24.3147H14.4582C14.0806 24.3147 13.757 23.9911 13.757 23.6135V19.5685C13.757 19.191 14.0806 18.8674 14.4582 18.8674H15.375C15.7526 18.8674 16.0762 19.191 16.0762 19.5685V23.6135C16.0222 23.9911 15.6986 24.3147 15.3211 24.3147Z" fill="#CF9C89"/>
<path d="M15.3211 24.3147H14.8896V18.8135H16.0762V23.5597C16.0223 23.9911 15.6987 24.3147 15.3211 24.3147Z" fill="#D9B0A1"/>
<path d="M19.7436 16.1706C20.1904 16.1706 20.5526 15.8084 20.5526 15.3616C20.5526 14.9148 20.1904 14.5526 19.7436 14.5526C19.2968 14.5526 18.9346 14.9148 18.9346 15.3616C18.9346 15.8084 19.2968 16.1706 19.7436 16.1706Z" fill="#D9B0A1"/>
<path d="M14.8357 20.7012C12.139 20.7012 9.92773 18.4899 9.92773 15.7933V11.2628C9.92773 9.75266 11.1682 8.45825 12.7323 8.45825H16.9931C18.5032 8.45825 19.7976 9.69873 19.7976 11.2628V15.7933C19.7437 18.4899 17.5863 20.7012 14.8357 20.7012Z" fill="#CF9C89"/>
<path d="M16.993 8.45825H16.0222C17.5323 8.45825 18.8267 9.69873 18.8267 11.2628V15.7933C18.8267 18.3281 16.8851 20.4316 14.4042 20.6473C14.566 20.6473 14.7278 20.6473 14.8896 20.6473C17.5863 20.6473 19.7976 18.436 19.7976 15.7393V11.2089C19.7436 9.69873 18.5031 8.45825 16.993 8.45825Z" fill="#D9B0A1"/>
<path d="M9.92772 16.1706C10.3745 16.1706 10.7367 15.8084 10.7367 15.3616C10.7367 14.9148 10.3745 14.5526 9.92772 14.5526C9.48092 14.5526 9.11871 14.9148 9.11871 15.3616C9.11871 15.8084 9.48092 16.1706 9.92772 16.1706Z" fill="#CF9C89"/>
<path d="M13.8109 13.6897H11.9232C11.8693 13.6897 11.8154 13.6358 11.8154 13.5819C11.8154 13.5279 11.8693 13.474 11.9232 13.474H13.8109C13.8649 13.474 13.9188 13.5279 13.9188 13.5819C13.9188 13.6358 13.8649 13.6897 13.8109 13.6897Z" fill="#414042"/>
<path d="M17.7481 13.7436H15.8604C15.8065 13.7436 15.7526 13.6897 15.7526 13.6358C15.7526 13.5818 15.8065 13.5279 15.8604 13.5279H17.7481C17.802 13.5279 17.856 13.5818 17.856 13.6358C17.856 13.6897 17.802 13.7436 17.7481 13.7436Z" fill="#414042"/>
<path d="M12.8941 14.6066C13.0728 14.6066 13.2177 14.4617 13.2177 14.283C13.2177 14.1042 13.0728 13.9594 12.8941 13.9594C12.7154 13.9594 12.5705 14.1042 12.5705 14.283C12.5705 14.4617 12.7154 14.6066 12.8941 14.6066Z" fill="#414042"/>
<path d="M16.8312 14.6066C17.01 14.6066 17.1548 14.4617 17.1548 14.283C17.1548 14.1042 17.01 13.9594 16.8312 13.9594C16.6525 13.9594 16.5076 14.1042 16.5076 14.283C16.5076 14.4617 16.6525 14.6066 16.8312 14.6066Z" fill="#414042"/>
<path d="M14.8896 16.7101C14.5121 16.7101 14.1885 16.4405 14.1345 16.0629C14.1345 16.1169 14.1345 16.1708 14.1345 16.2247C14.1345 16.6562 14.5121 17.0337 14.9435 17.0337C15.375 17.0337 15.7525 16.6562 15.7525 16.2247C15.7525 16.1708 15.7525 16.1169 15.7525 16.0629C15.5907 16.4405 15.2671 16.7101 14.8896 16.7101Z" fill="#9B7567"/>
<path d="M16.7772 17.9506C16.7772 18.9754 15.9682 19.7844 14.9435 19.7844C13.9187 19.7844 13.1097 18.9754 13.1097 17.9506H16.7772Z" fill="white"/>
<path d="M11.2761 10.5076C12.0803 10.5076 12.7323 9.85567 12.7323 9.05143C12.7323 8.24718 12.0803 7.59521 11.2761 7.59521C10.4719 7.59521 9.81989 8.24718 9.81989 9.05143C9.81989 9.85567 10.4719 10.5076 11.2761 10.5076Z" fill="#414042"/>
<path d="M10.0895 12.0179C10.7746 12.0179 11.33 11.4625 11.33 10.7774C11.33 10.0923 10.7746 9.53693 10.0895 9.53693C9.40444 9.53693 8.84906 10.0923 8.84906 10.7774C8.84906 11.4625 9.40444 12.0179 10.0895 12.0179Z" fill="#414042"/>
<path d="M11.9772 8.88972C12.7815 8.88972 13.4334 8.23775 13.4334 7.43351C13.4334 6.62926 12.7815 5.97729 11.9772 5.97729C11.173 5.97729 10.521 6.62926 10.521 7.43351C10.521 8.23775 11.173 8.88972 11.9772 8.88972Z" fill="#414042"/>
<path d="M18.0717 11.4247C18.8759 11.4247 19.5279 10.7727 19.5279 9.96848C19.5279 9.16424 18.8759 8.51227 18.0717 8.51227C17.2674 8.51227 16.6155 9.16424 16.6155 9.96848C16.6155 10.7727 17.2674 11.4247 18.0717 11.4247Z" fill="#414042"/>
<path d="M19.5818 11.2628C20.2669 11.2628 20.8223 10.7074 20.8223 10.0223C20.8223 9.33724 20.2669 8.78186 19.5818 8.78186C18.8968 8.78186 18.3414 9.33724 18.3414 10.0223C18.3414 10.7074 18.8968 11.2628 19.5818 11.2628Z" fill="#414042"/>
<path d="M18.6111 9.37512C19.5941 9.37512 20.3909 8.57827 20.3909 7.59531C20.3909 6.61234 19.5941 5.81549 18.6111 5.81549C17.6282 5.81549 16.8313 6.61234 16.8313 7.59531C16.8313 8.57827 17.6282 9.37512 18.6111 9.37512Z" fill="#414042"/>
<path d="M10.2512 9.26723C11.0554 9.26723 11.7074 8.61526 11.7074 7.81101C11.7074 7.00677 11.0554 6.3548 10.2512 6.3548C9.44695 6.3548 8.79498 7.00677 8.79498 7.81101C8.79498 8.61526 9.44695 9.26723 10.2512 9.26723Z" fill="#414042"/>
<path d="M14.8897 11.3168C16.7067 11.3168 18.1797 9.98867 18.1797 8.35039C18.1797 6.71212 16.7067 5.38403 14.8897 5.38403C13.0727 5.38403 11.5997 6.71212 11.5997 8.35039C11.5997 9.98867 13.0727 11.3168 14.8897 11.3168Z" fill="#414042"/>
<path d="M17.6942 6.73218C17.7481 6.94791 17.802 7.21758 17.802 7.48725C17.802 9.26707 16.2919 10.6693 14.5121 10.6693C13.3794 10.6693 12.4086 10.13 11.8154 9.321C12.2468 10.4536 13.4873 11.3166 14.9435 11.3166C16.7773 11.3166 18.2335 9.96821 18.2335 8.35019C18.1796 7.75692 18.0178 7.21758 17.6942 6.73218Z" fill="#231F20"/>
<path d="M9.71196 15.7391C10.3592 15.7391 10.8446 16.2245 10.8446 16.8717C10.8446 17.519 10.3592 18.0044 9.71196 18.0044C9.06475 18.0044 8.57935 17.519 8.57935 16.8717C8.57935 16.3324 8.90295 15.9009 9.38835 15.7931" stroke="#FFC107" stroke-width="0.75" stroke-miterlimit="10"/>
<path d="M20.0133 15.901C19.3661 15.901 18.8807 16.3864 18.8807 17.0336C18.8807 17.6808 19.3661 18.1662 20.0133 18.1662C20.6606 18.1662 21.146 17.6808 21.146 17.0336C21.146 16.4943 20.8224 16.0628 20.3369 15.9549" stroke="#FFC107" stroke-width="0.75" stroke-miterlimit="10"/>
<path d="M16.1301 24.962H13.7031C13.3256 24.962 13.002 24.6384 13.002 24.2608V22.0495C13.002 21.672 13.3256 21.3484 13.7031 21.3484H16.1301C16.5077 21.3484 16.8313 21.672 16.8313 22.0495V24.2608C16.7773 24.6384 16.5077 24.962 16.1301 24.962Z" fill="#992743"/>
<path d="M16.7772 21.7798C16.7772 21.5641 16.5615 21.4023 16.3458 21.4023H16.0222V24.9619H16.3458C16.5615 24.9619 16.7233 24.8001 16.7772 24.5844V21.7798Z" fill="#FBA5BA"/>
<path d="M15.3211 21.4023H14.566V24.9619H15.3211V21.4023Z" fill="#FBA5BA"/>
<path d="M13.8109 21.4023H13.4333C13.2715 21.4023 13.1637 21.4562 13.1097 21.5641V24.7462C13.1637 24.854 13.3255 24.908 13.4333 24.908H13.8109V21.4023Z" fill="#FBA5BA"/>
</g>
</svg>
