<svg width="19" height="20" viewBox="0 0 19 20" fill="none" xmlns="http://www.w3.org/2000/svg">
<path d="M9.455 10.4122C6.96606 10.4122 4.94264 11.0002 3.53376 12.2104C2.11039 13.4331 1.4 15.2168 1.4 17.4161C1.4 18.07 1.93004 18.6001 2.58394 18.6001H16.326C16.9799 18.6001 17.51 18.07 17.51 17.4161C17.51 15.2169 16.7996 13.4332 15.3762 12.2105C13.9674 11.0002 11.9439 10.4122 9.455 10.4122ZM15.0406 16.2322H3.8696C4.06796 15.163 4.55262 14.3789 5.29176 13.83C6.19434 13.1597 7.55684 12.7801 9.455 12.7801C11.3532 12.7801 12.7157 13.1597 13.6183 13.83C14.3574 14.3789 14.8422 15.163 15.0406 16.2322Z" fill="#0F8CFF" stroke="#E7EEF7" stroke-width="1.2"/>
<path d="M9.45501 1.4C6.90417 1.4 4.98154 3.37861 4.98154 5.95116C4.98154 8.55372 6.94245 10.7555 9.45501 10.7555C11.9676 10.7555 13.9285 8.55374 13.9285 5.95134C13.9285 3.37863 12.0059 1.4 9.45501 1.4ZM9.45501 8.38784C8.35764 8.38784 7.34942 7.36129 7.34942 5.95134C7.34942 4.65371 8.23463 3.76788 9.45501 3.76788C10.6503 3.76788 11.5606 4.67958 11.5606 5.95134C11.5606 7.36129 10.5524 8.38784 9.45501 8.38784Z" fill="#0F8CFF" stroke="#E7EEF7" stroke-width="1.2"/>
</svg>
