<svg width="100" height="140" viewBox="0 0 100 140" fill="none" xmlns="http://www.w3.org/2000/svg">
<path d="M7.81258 42.4642H85.9376C90.2345 42.4642 93.7501 45.9798 93.7501 50.2768V59.6519C93.7501 63.9489 90.2345 67.4645 85.9376 67.4645H7.81258C3.51561 67.4641 0 63.9485 0 59.6517V50.2766C0 45.9798 3.51561 42.4642 7.81258 42.4642Z" fill="#A86A3F"/>
<path d="M24.9219 50.8235L73.8282 37.8548C75.4689 37.3861 77.1875 38.4017 77.6562 40.0424L85.7812 70.0424C86.25 71.6831 85.2344 73.4017 83.5937 73.8704L19.9219 90.8234C18.2813 91.2922 16.5626 90.2765 16.0939 88.6359L10.1562 66.6047L24.9219 50.8235Z" fill="#3DB39E"/>
<path d="M77.2657 69.1048L66.7188 71.9172C65.8595 72.1516 65 71.6827 64.8439 70.8234C64.6094 69.9641 65.0784 69.1046 65.9377 68.9485L75.0001 66.5266L70.1565 48.4017L61.094 50.8235C60.2347 51.058 59.3752 50.5891 59.2191 49.7297C58.9846 48.8704 59.4535 48.0109 60.3129 47.8548L70.8597 45.0424C71.719 44.8079 72.5785 45.2769 72.7346 46.1362L78.3596 67.2298C78.5937 68.0891 78.125 68.9485 77.2657 69.1048ZM33.5156 80.9017L22.9688 83.7141C22.1095 83.9486 21.25 83.4796 21.0939 82.6203L15.4688 61.5267C15.2344 60.6673 15.7033 59.8078 16.5626 59.6517L27.1095 56.8393C27.9688 56.6048 28.8283 57.0738 28.9844 57.9331C29.2189 58.7924 28.7499 59.6519 27.8906 59.808L18.8281 62.2299L23.6718 80.3548L32.7343 77.933C33.5936 77.6985 34.4531 78.1674 34.6092 79.0267C34.8437 79.8079 34.3749 80.6672 33.5156 80.9017Z" fill="#78CABB"/>
<path d="M0.624741 61.7611C14.5309 53.7922 52.031 31.8391 52.031 31.8391C53.5154 30.9798 55.4685 31.4485 56.328 32.9329L71.953 59.8078C72.8123 61.2922 72.2654 63.1671 70.781 64.0267L13.5934 96.8391C12.109 97.6984 10.1559 97.2297 9.29643 95.7453C9.29643 95.7453 4.92151 86.8391 0.546387 79.339C0.546585 61.7611 0.624741 67.5423 0.624741 61.7611Z" fill="#5ABEAC"/>
<path d="M63.9846 58.9485L53.0472 40.0423C52.5784 39.2611 51.641 39.0266 50.9378 39.4954L41.4847 44.9641C40.7036 45.4328 40.4691 46.3703 40.9378 47.0735C41.4066 47.8546 42.344 48.0891 43.0472 47.6204L51.1722 42.9328L60.5473 59.1828L52.4223 63.8704C51.6412 64.3391 51.4067 65.2766 51.8754 65.9798C52.3442 66.7609 53.2816 66.9954 53.9848 66.5267L63.4379 61.058C64.1409 60.6674 64.4533 59.7299 63.9846 58.9485ZM22.5784 81.058L14.4534 85.7456L5.07832 69.4954L13.2033 64.8078C13.9845 64.3391 14.2189 63.4016 13.7502 62.6984C13.2815 61.9173 12.344 61.6828 11.6408 62.1515L2.18776 67.6202C1.4066 68.089 1.17213 69.0264 1.64087 69.7297L12.5783 88.6359C13.047 89.4171 13.9845 89.6516 14.6877 89.1828L24.1407 83.7141C24.9219 83.2454 25.1564 82.3079 24.6876 81.6047C24.297 80.9017 23.3596 80.5891 22.5784 81.058ZM26.5628 53.4798C20.5472 56.9173 18.5159 64.5736 21.9534 70.5892C25.469 76.6048 33.0471 78.636 39.0627 75.1986C45.0783 71.7611 47.1095 64.1048 43.6721 58.0892C40.1565 52.1516 32.5784 50.0424 26.5628 53.4798ZM63.9846 58.9485L53.0472 40.0423C52.5784 39.2611 51.641 39.0266 50.9378 39.4954L41.4847 44.9641C40.7036 45.4328 40.4691 46.3703 40.9378 47.0735C41.4066 47.8546 42.344 48.0891 43.0472 47.6204L51.1722 42.9328L60.5473 59.1828L52.4223 63.8704C51.6412 64.3391 51.4067 65.2766 51.8754 65.9798C52.3442 66.7609 53.2816 66.9954 53.9848 66.5267L63.4379 61.058C64.1409 60.6674 64.4533 59.7299 63.9846 58.9485ZM22.5784 81.058L14.4534 85.7456L5.07832 69.4954L13.2033 64.8078C13.9845 64.3391 14.2189 63.4016 13.7502 62.6984C13.2815 61.9173 12.344 61.6828 11.6408 62.1515L2.18776 67.6202C1.4066 68.089 1.17213 69.0264 1.64087 69.7297L12.5783 88.6359C13.047 89.4171 13.9845 89.6516 14.6877 89.1828L24.1407 83.7141C24.9219 83.2454 25.1564 82.3079 24.6876 81.6047C24.297 80.9017 23.3596 80.5891 22.5784 81.058ZM26.5628 53.4798C20.5472 56.9173 18.5159 64.5736 21.9534 70.5892C25.469 76.6048 33.0471 78.636 39.0627 75.1986C45.0783 71.7611 47.1095 64.1048 43.6721 58.0892C40.1565 52.1516 32.5784 50.0424 26.5628 53.4798Z" fill="#8CD2C5"/>
<path d="M89.0626 120.589H7.81258C3.51561 120.589 0 117.074 0 112.777V56.5267H89.0626C93.3596 56.5267 96.8752 60.0423 96.8752 64.3392V112.777C96.875 117.074 93.3594 120.589 89.0626 120.589ZM6.25006 56.5267H0V50.2766C0 53.7141 2.81241 56.5267 6.25006 56.5267Z" fill="#C47E4D"/>
<path d="M96.8748 101.058H84.3749C78.3593 101.058 73.4375 96.1361 73.4375 90.1205C73.4375 84.1049 78.3593 79.183 84.3749 79.183H96.8748C98.5937 79.183 99.9999 80.5892 99.9999 82.3081V97.933C99.9999 99.6517 98.5937 101.058 96.8748 101.058Z" fill="#A86A3F"/>
<path d="M84.3751 83.8704C87.8125 83.8704 90.6251 86.6828 90.6251 90.1204C90.6251 93.5581 87.8127 96.3705 84.3751 96.3705C80.9376 96.3705 78.125 93.5581 78.125 90.1204C78.125 86.6828 80.9376 83.8704 84.3751 83.8704Z" fill="#EFC75E"/>
<path d="M85.9376 94.8078C82.5001 94.8078 79.6875 91.9954 79.6875 88.5578C79.6875 87.2297 80.0781 85.9796 80.7813 84.964C79.1406 86.0578 78.125 87.9327 78.125 90.1203C78.125 93.5577 80.9374 96.3703 84.3751 96.3703C86.4845 96.3703 88.3594 95.2766 89.5313 93.714C88.5157 94.4172 87.2656 94.8078 85.9376 94.8078Z" fill="#D7B354"/>
<path d="M89.0626 117.464H7.81258C3.51561 117.464 0 113.949 0 109.652V112.777C0 117.074 3.51561 120.589 7.81258 120.589H89.0626C93.3596 120.589 96.8752 117.074 96.8752 112.777V109.652C96.875 113.949 93.3594 117.464 89.0626 117.464Z" fill="#B27245"/>
<path d="M89.0626 56.5267H6.25006C2.81241 56.5267 0 53.7141 0 50.2766V53.4016C0 56.8391 2.81241 59.6517 6.25006 59.6517H89.0626C93.3596 59.6517 96.8752 63.1673 96.8752 67.4643V64.3393C96.875 60.0423 93.3594 56.5267 89.0626 56.5267Z" fill="#CA8B5F"/>
<path d="M50 140C61.0457 140 70 131.046 70 120C70 108.954 61.0457 100 50 100C38.9543 100 30 108.954 30 120C30 131.046 38.9543 140 50 140Z" fill="#00E59E"/>
<path d="M44.8896 129.022L55.1736 139.306C63.6909 137.035 70.0001 129.274 70.0001 120C70.0001 119.811 70.0001 119.621 70.0001 119.432L61.9243 111.987L44.8896 129.022Z" fill="#00D492"/>
<path d="M50.5042 124.48C51.3875 125.363 51.3875 126.877 50.5042 127.761L48.6746 129.59C47.7913 130.473 46.2771 130.473 45.3938 129.59L37.3812 121.514C36.4979 120.631 36.4979 119.117 37.3812 118.234L39.2109 116.404C40.0941 115.521 41.6083 115.521 42.4916 116.404L50.5042 124.48Z" fill="white"/>
<path d="M57.5074 110.536C58.3907 109.653 59.9049 109.653 60.7882 110.536L62.6178 112.366C63.5011 113.249 63.5011 114.763 62.6178 115.647L48.7377 129.464C47.8544 130.347 46.3402 130.347 45.457 129.464L43.6273 127.634C42.744 126.751 42.744 125.237 43.6273 124.353L57.5074 110.536Z" fill="white"/>
<path d="M51.4269 25.4129C51.0151 25.8247 50.3963 25.947 49.8586 25.7244C49.3209 25.5018 48.9705 24.9773 48.9705 24.3956L48.9705 2.0103C48.9843 1.22525 49.6246 0.595929 50.4096 0.595928C51.1942 0.596386 51.8345 1.22479 51.8483 2.00984L51.8478 24.3956C51.8483 24.7772 51.6967 25.1431 51.4269 25.4129Z" fill="#84B5CB"/>
<path d="M59.1449 21.0452C58.7331 21.4569 58.1143 21.5801 57.5771 21.3571C57.0393 21.1345 56.6885 20.6096 56.6885 20.0279L56.6885 7.81797C56.7022 7.03292 57.3425 6.4036 58.1271 6.40406C58.9117 6.4036 59.552 7.03293 59.5662 7.81752L59.5658 20.0279C59.5662 20.4094 59.4146 20.7754 59.1449 21.0452Z" fill="#84B5CB"/>
<path d="M43.2869 20.993C42.8747 21.4043 42.2559 21.5275 41.7187 21.3044C41.181 21.0818 40.8306 20.5574 40.8301 19.9753L40.8306 13.8703C40.8439 13.0857 41.4842 12.4564 42.2692 12.4564C43.0543 12.4564 43.6941 13.0852 43.7079 13.8703L43.7079 19.9757C43.7079 20.3568 43.5563 20.7228 43.2869 20.993Z" fill="#84B5CB"/>
</svg>
