<svg width="20" height="17" viewBox="0 0 20 17" fill="none" xmlns="http://www.w3.org/2000/svg">
<path d="M18.3368 6.65263H18.1895V4.94737C18.1895 3.89474 17.3263 3.03158 16.2737 3.03158H16.0421V2.10526C16.0421 0.947368 15.0947 0 13.9368 0H2.10526C0.947368 0 0 0.947368 0 2.10526V14.7158C0 15.7684 0.863158 16.6316 1.91579 16.6316H16.2737C17.3263 16.6316 18.1895 15.7684 18.1895 14.7158V12.5684H18.3368C19.2632 12.5684 20 11.8316 20 10.9053V8.31579C20 7.41053 19.2632 6.65263 18.3368 6.65263ZM2.10526 1.17895H13.9158C14.4211 1.17895 14.8421 1.6 14.8421 2.10526V3.03158H2.10526C1.6 3.03158 1.17895 2.61053 1.17895 2.10526C1.17895 1.6 1.6 1.17895 2.10526 1.17895ZM17.0105 14.7158C17.0105 15.1158 16.6737 15.4526 16.2737 15.4526H1.91579C1.51579 15.4526 1.17895 15.1158 1.17895 14.7158V4C1.45263 4.14737 1.76842 4.21053 2.10526 4.21053H14.9684H16.2526C16.6526 4.21053 16.9895 4.54737 16.9895 4.94737V6.65263H14.8211C13.3895 6.65263 12.2316 7.81053 12.2316 9.2421V10C12.2316 11.4316 13.3895 12.5895 14.8211 12.5895H16.9895V14.7158H17.0105ZM18.8211 10.9053C18.8211 11.1789 18.6105 11.3895 18.3368 11.3895H14.8211C14.0421 11.3895 13.4316 10.7579 13.4316 10V9.2421C13.4316 8.46316 14.0632 7.85263 14.8211 7.85263H18.3368C18.6105 7.85263 18.8211 8.06316 18.8211 8.33684V10.9053Z" fill="#8FAAFF"/>
<path d="M15.3894 10.5475C15.901 10.5475 16.3157 10.1327 16.3157 9.62114C16.3157 9.10955 15.901 8.69482 15.3894 8.69482C14.8778 8.69482 14.4631 9.10955 14.4631 9.62114C14.4631 10.1327 14.8778 10.5475 15.3894 10.5475Z" fill="#8FAAFF"/>
</svg>
