<svg width="100" height="140" viewBox="0 0 100 140" fill="none" xmlns="http://www.w3.org/2000/svg">
<path d="M7.81258 42.4642H85.9376C90.2345 42.4642 93.7501 45.9798 93.7501 50.2768V59.6519C93.7501 63.9489 90.2345 67.4645 85.9376 67.4645H7.81258C3.51561 67.4641 0 63.9485 0 59.6517V50.2766C0 45.9798 3.51561 42.4642 7.81258 42.4642Z" fill="#A86A3F"/>
<path d="M89.0626 120.589H7.81258C3.51561 120.589 0 117.074 0 112.777V56.5267H89.0626C93.3596 56.5267 96.8752 60.0423 96.8752 64.3392V112.777C96.875 117.074 93.3594 120.589 89.0626 120.589ZM6.25006 56.5267H0V50.2766C0 53.7141 2.81241 56.5267 6.25006 56.5267Z" fill="#C47E4D"/>
<path d="M96.8748 101.058H84.3749C78.3593 101.058 73.4375 96.1361 73.4375 90.1205C73.4375 84.1049 78.3593 79.183 84.3749 79.183H96.8748C98.5937 79.183 99.9999 80.5892 99.9999 82.3081V97.933C99.9999 99.6517 98.5937 101.058 96.8748 101.058Z" fill="#A86A3F"/>
<path d="M84.3751 83.8704C87.8125 83.8704 90.6251 86.6828 90.6251 90.1204C90.6251 93.5581 87.8127 96.3705 84.3751 96.3705C80.9376 96.3705 78.125 93.5581 78.125 90.1204C78.125 86.6828 80.9376 83.8704 84.3751 83.8704Z" fill="#EFC75E"/>
<path d="M85.9376 94.8078C82.5001 94.8078 79.6875 91.9954 79.6875 88.5578C79.6875 87.2297 80.0781 85.9796 80.7813 84.964C79.1406 86.0578 78.125 87.9327 78.125 90.1203C78.125 93.5577 80.9374 96.3703 84.3751 96.3703C86.4845 96.3703 88.3594 95.2766 89.5313 93.714C88.5157 94.4172 87.2656 94.8078 85.9376 94.8078Z" fill="#D7B354"/>
<path d="M89.0626 117.464H7.81258C3.51561 117.464 0 113.949 0 109.652V112.777C0 117.074 3.51561 120.589 7.81258 120.589H89.0626C93.3596 120.589 96.8752 117.074 96.8752 112.777V109.652C96.875 113.949 93.3594 117.464 89.0626 117.464Z" fill="#B27245"/>
<path d="M89.0626 56.5267H6.25006C2.81241 56.5267 0 53.7141 0 50.2766V53.4016C0 56.8391 2.81241 59.6517 6.25006 59.6517H89.0626C93.3596 59.6517 96.8752 63.1673 96.8752 67.4643V64.3393C96.875 60.0423 93.3594 56.5267 89.0626 56.5267Z" fill="#CA8B5F"/>
<path d="M51.4269 25.4129C51.0151 25.8247 50.3963 25.947 49.8586 25.7244C49.3209 25.5018 48.9705 24.9773 48.9705 24.3956L48.9705 2.0103C48.9843 1.22525 49.6246 0.595929 50.4096 0.595928C51.1942 0.596386 51.8345 1.22479 51.8483 2.00984L51.8478 24.3956C51.8483 24.7772 51.6967 25.1431 51.4269 25.4129Z" fill="#84B5CB"/>
<path d="M59.1449 21.0452C58.7331 21.4569 58.1143 21.5801 57.5771 21.3571C57.0393 21.1345 56.6885 20.6096 56.6885 20.0279L56.6885 7.81797C56.7022 7.03292 57.3425 6.4036 58.1271 6.40406C58.9117 6.4036 59.552 7.03293 59.5662 7.81752L59.5658 20.0279C59.5662 20.4094 59.4146 20.7754 59.1449 21.0452Z" fill="#84B5CB"/>
<path d="M43.2869 20.993C42.8747 21.4043 42.2559 21.5275 41.7187 21.3044C41.181 21.0818 40.8306 20.5574 40.8301 19.9753L40.8306 13.8703C40.8439 13.0857 41.4842 12.4564 42.2692 12.4564C43.0543 12.4564 43.6941 13.0852 43.7079 13.8703L43.7079 19.9757C43.7079 20.3568 43.5563 20.7228 43.2869 20.993Z" fill="#84B5CB"/>
<path d="M50 140C61.0457 140 70 131.046 70 120C70 108.954 61.0457 100 50 100C38.9543 100 30 108.954 30 120C30 131.046 38.9543 140 50 140Z" fill="#F15249"/>
<path d="M41.6089 129.022L52.3975 139.811C61.4827 138.738 68.6751 131.609 69.8108 122.524L58.959 111.672L41.6089 129.022Z" fill="#AD0E0E"/>
<path d="M59.4639 124.416C60.3472 125.3 60.3472 126.814 59.4639 127.697L57.6974 129.464C56.8141 130.347 55.2999 130.347 54.4166 129.464L40.5365 115.584C39.6532 114.7 39.6532 113.186 40.5365 112.303L42.3661 110.473C43.2494 109.59 44.7636 109.59 45.6469 110.473L59.4639 124.416Z" fill="white"/>
<path d="M52.1451 117.035L47.0347 122.145L54.4164 129.464C55.2997 130.347 56.8138 130.347 57.6971 129.464L59.5268 127.634C60.4101 126.751 60.4101 125.237 59.5268 124.353L52.1451 117.035Z" fill="#D6D6D6"/>
<path d="M54.4166 110.536C55.2999 109.653 56.8141 109.653 57.6974 110.536L59.527 112.366C60.4103 113.249 60.4103 114.763 59.527 115.647L45.5838 129.464C44.7005 130.347 43.1863 130.347 42.303 129.464L40.5365 127.697C39.6532 126.814 39.6532 125.3 40.5365 124.416L54.4166 110.536Z" fill="white"/>
</svg>
