<svg width="35" height="35" viewBox="0 0 35 35" fill="none" xmlns="http://www.w3.org/2000/svg">
<circle cx="17.5" cy="17.5" r="17.5" fill="#18379A"/>
<path d="M26.3368 15.6526H26.1895V13.9474C26.1895 12.8947 25.3263 12.0316 24.2737 12.0316H24.0421V11.1053C24.0421 9.94737 23.0947 9 21.9368 9H10.1053C8.94737 9 8 9.94737 8 11.1053V23.7158C8 24.7684 8.86316 25.6316 9.91579 25.6316H24.2737C25.3263 25.6316 26.1895 24.7684 26.1895 23.7158V21.5684H26.3368C27.2632 21.5684 28 20.8316 28 19.9053V17.3158C28 16.4105 27.2632 15.6526 26.3368 15.6526ZM10.1053 10.1789H21.9158C22.4211 10.1789 22.8421 10.6 22.8421 11.1053V12.0316H10.1053C9.6 12.0316 9.17895 11.6105 9.17895 11.1053C9.17895 10.6 9.6 10.1789 10.1053 10.1789ZM25.0105 23.7158C25.0105 24.1158 24.6737 24.4526 24.2737 24.4526H9.91579C9.51579 24.4526 9.17895 24.1158 9.17895 23.7158V13C9.45263 13.1474 9.76842 13.2105 10.1053 13.2105H22.9684H24.2526C24.6526 13.2105 24.9895 13.5474 24.9895 13.9474V15.6526H22.8211C21.3895 15.6526 20.2316 16.8105 20.2316 18.2421V19C20.2316 20.4316 21.3895 21.5895 22.8211 21.5895H24.9895V23.7158H25.0105ZM26.8211 19.9053C26.8211 20.1789 26.6105 20.3895 26.3368 20.3895H22.8211C22.0421 20.3895 21.4316 19.7579 21.4316 19V18.2421C21.4316 17.4632 22.0632 16.8526 22.8211 16.8526H26.3368C26.6105 16.8526 26.8211 17.0632 26.8211 17.3368V19.9053Z" fill="#8FAAFF"/>
<path d="M23.3894 19.5474C23.901 19.5474 24.3157 19.1327 24.3157 18.6211C24.3157 18.1095 23.901 17.6948 23.3894 17.6948C22.8778 17.6948 22.4631 18.1095 22.4631 18.6211C22.4631 19.1327 22.8778 19.5474 23.3894 19.5474Z" fill="#8FAAFF"/>
</svg>

